<?xml version="1.0" encoding="utf-8"?>
<!-- Generator: Adobe Illustrator 22.0.0, SVG Export Plug-In . SVG Version: 6.00 Build 0)  -->
<svg fill="#000000" width="52" height="52" version="1.1" id="lni_lni-apartment" xmlns="http://www.w3.org/2000/svg" xmlns:xlink="http://www.w3.org/1999/xlink" x="0px"
	 y="0px" viewBox="0 0 64 64" style="enable-background:new 0 0 64 64;" xml:space="preserve">
<g>
	<path d="M58,2H32.4c-2.2,0-4,1.8-4,4v6.5H6c-2.2,0-4,1.8-4,4V58c0,2.2,1.8,4,4,4h22.4h2H58c2.2,0,4-1.8,4-4V6C62,3.8,60.2,2,58,2z
		 M28.4,60H6c-1.1,0-2-0.9-2-2V16.5c0-1.1,0.9-2,2-2h22.4V60z M60,58c0,1.1-0.9,2-2,2H30.4V14.5V6c0-1.1,0.9-2,2-2H58
		c1.1,0,2,0.9,2,2V58z"/>
	<path d="M9.2,30.4h4.3c0.3,0,0.5-0.2,0.5-0.5v-4.3c0-0.3-0.2-0.5-0.5-0.5H9.2c-0.3,0-0.5,0.2-0.5,0.5v4.3
		C8.7,30.2,8.9,30.4,9.2,30.4z"/>
	<path d="M19.3,30.4h4.3c0.3,0,0.5-0.2,0.5-0.5v-4.3c0-0.3-0.2-0.5-0.5-0.5h-4.3c-0.3,0-0.5,0.2-0.5,0.5v4.3
		C18.8,30.2,19,30.4,19.3,30.4z"/>
	<path d="M9.2,44.9h4.3c0.3,0,0.5-0.2,0.5-0.5v-4.3c0-0.3-0.2-0.5-0.5-0.5H9.2c-0.3,0-0.5,0.2-0.5,0.5v4.3
		C8.7,44.6,8.9,44.9,9.2,44.9z"/>
	<path d="M19.3,44.9h4.3c0.3,0,0.5-0.2,0.5-0.5v-4.3c0-0.3-0.2-0.5-0.5-0.5h-4.3c-0.3,0-0.5,0.2-0.5,0.5v4.3
		C18.8,44.6,19,44.9,19.3,44.9z"/>
	<path d="M42,12.1h-4.3c-0.3,0-0.5,0.2-0.5,0.5v4.3c0,0.3,0.2,0.5,0.5,0.5H42c0.3,0,0.5-0.2,0.5-0.5v-4.3
		C42.5,12.4,42.3,12.1,42,12.1z"/>
	<path d="M52.6,12.1h-4.3c-0.3,0-0.5,0.2-0.5,0.5v4.3c0,0.3,0.2,0.5,0.5,0.5h4.3c0.3,0,0.5-0.2,0.5-0.5v-4.3
		C53.1,12.4,52.9,12.1,52.6,12.1z"/>
	<path d="M42,26.4h-4.3c-0.3,0-0.5,0.2-0.5,0.5v4.3c0,0.3,0.2,0.5,0.5,0.5H42c0.3,0,0.5-0.2,0.5-0.5v-4.3
		C42.5,26.6,42.3,26.4,42,26.4z"/>
	<path d="M52.6,26.4h-4.3c-0.3,0-0.5,0.2-0.5,0.5v4.3c0,0.3,0.2,0.5,0.5,0.5h4.3c0.3,0,0.5-0.2,0.5-0.5v-4.3
		C53.1,26.6,52.9,26.4,52.6,26.4z"/>
	<path d="M42,40.7h-4.3c-0.3,0-0.5,0.2-0.5,0.5v4.3c0,0.3,0.2,0.5,0.5,0.5H42c0.3,0,0.5-0.2,0.5-0.5v-4.3
		C42.5,40.9,42.3,40.7,42,40.7z"/>
	<path d="M52.6,40.7h-4.3c-0.3,0-0.5,0.2-0.5,0.5v4.3c0,0.3,0.2,0.5,0.5,0.5h4.3c0.3,0,0.5-0.2,0.5-0.5v-4.3
		C53.1,40.9,52.9,40.7,52.6,40.7z"/>
</g>
</svg>
