<?xml version="1.0" encoding="utf-8"?>
<!-- Generator: Adobe Illustrator 22.0.1, SVG Export Plug-In . SVG Version: 6.00 Build 0)  -->
<svg fill="#000000" width="52" height="52" version="1.1" id="lni_lni-dollar-bundle" xmlns="http://www.w3.org/2000/svg" xmlns:xlink="http://www.w3.org/1999/xlink"
	 x="0px" y="0px" viewBox="0 0 64 64" style="enable-background:new 0 0 64 64;" xml:space="preserve">
<g>
	<path d="M34.9,18h-6.2c-0.6,0-1,0.4-1,1s0.4,1,1,1h4.7v1.8c0,0.6,0.4,1,1,1s1-0.4,1-1v-1.9c2.1-0.3,3.8-2,3.8-4.2
		c0-2.4-1.9-4.3-4.3-4.3H32c-1.3,0-2.3-1-2.3-2.3s1-2.3,2.3-2.3h6.2c0.6,0,1-0.4,1-1s-0.4-1-1-1h-2.8V3c0-0.6-0.4-1-1-1s-1,0.4-1,1
		v1.8H32c-2.4,0-4.3,1.9-4.3,4.3s1.9,4.3,4.3,4.3h2.8c1.3,0,2.3,1,2.3,2.3S36.1,18,34.9,18z"/>
	<path d="M60.5,50.8c-0.4-0.4-1-0.4-1.4,0L49.9,60H33.2v-6.7h14.6c0.3,0,0.5-0.1,0.7-0.3l11.2-11.2c0.4-0.4,0.4-1,0-1.4
		s-1-0.4-1.4,0L47.4,51.3H33.2v-6.7h12.7c0.3,0,0.5-0.1,0.7-0.3l12.6-12.4c0.3-0.3,0.4-0.7,0.2-1.1c-0.2-0.4-0.5-0.6-0.9-0.6H43.8
		H32.6H16.8c-0.3,0-0.5,0.1-0.7,0.3L3.5,42.9c-0.3,0.3-0.4,0.7-0.2,1.1c0.2,0.4,0.5,0.6,0.9,0.6H20v6.7H4.2c-0.6,0-1,0.4-1,1
		s0.4,1,1,1H20V60H4.2c-0.6,0-1,0.4-1,1s0.4,1,1,1H21h11.2h18.1c0.3,0,0.5-0.1,0.7-0.3l9.5-9.5C60.9,51.8,60.9,51.1,60.5,50.8z
		 M45.5,42.6h-11l9.7-10.4H56L45.5,42.6z M41.5,32.2l-9.7,10.4h-8.4L33,32.2H41.5z M17.2,32.2h13.1l-9.7,10.4h-14L17.2,32.2z M22,60
		V44.6h9.2v7.7c0,0,0,0,0,0s0,0,0,0V60H22z"/>
</g>
</svg>
