<?xml version="1.0" encoding="utf-8"?>
<!-- Generator: Adobe Illustrator 22.0.1, SVG Export Plug-In . SVG Version: 6.00 Build 0)  -->
<svg fill="#000000" width="52" height="52" version="1.1" id="lni_lni-chat-alt-10" xmlns="http://www.w3.org/2000/svg" xmlns:xlink="http://www.w3.org/1999/xlink"
	 x="0px" y="0px" viewBox="0 0 64 64" style="enable-background:new 0 0 64 64;" xml:space="preserve">
<g>
	<path d="M53.2,10.5C46.8,4.1,38,1,28.9,1.9C15,3.4,3.9,14.5,2.4,28.4c-0.7,6.7,0.8,13.2,4.2,18.8L2.2,58.8c-0.4,1-0.1,2.1,0.7,2.8
		c0.5,0.4,1.1,0.7,1.7,0.7c0.4,0,0.8-0.1,1.1-0.3L16,56.8c5.7,3.6,12.2,5.2,19,4.6C49.1,60,60.4,48.8,61.8,34.7
		C62.8,25.7,59.6,16.8,53.2,10.5z M59.9,34.5c-1.3,13.2-11.8,23.6-25,24.9c-6.5,0.6-12.8-1-18.2-4.5c-0.3-0.2-0.7-0.2-1-0.1
		L4.8,60.2c-0.3,0.2-0.5,0-0.6-0.1C4.1,60,3.9,59.8,4,59.5l4.6-12c0.1-0.3,0.1-0.6-0.1-0.9C5.2,41.2,3.7,35,4.4,28.6
		c1.3-13,11.7-23.4,24.7-24.7c1-0.1,2-0.2,3-0.2c7.4,0,14.4,2.9,19.7,8.1C57.8,17.8,60.7,26.1,59.9,34.5z"/>
	<circle cx="16.8" cy="31.7" r="3.1"/>
	<circle cx="32" cy="31.7" r="3.1"/>
	<circle cx="47.2" cy="31.7" r="3.1"/>
</g>
</svg>
