<?xml version="1.0" encoding="utf-8"?>
<!-- Generator: Adobe Illustrator 22.0.1, SVG Export Plug-In . SVG Version: 6.00 Build 0)  -->
<svg fill="#5b2f2f" width="52" height="52" version="1.1" id="lni_lni-int-ecommerce" xmlns="http://www.w3.org/2000/svg" xmlns:xlink="http://www.w3.org/1999/xlink"
	 x="0px" y="0px" viewBox="0 0 64 64" style="enable-background:new 0 0 64 64;" xml:space="preserve">
<g>
	<path d="M59.3,9.4h-7.5c-0.5,0-0.9,0.3-1,0.8l-3.1,12.8h-5c0.4-1.4,0.5-2.8,0.5-4.2c0-3-0.8-5.9-2.3-8.5c-3-5-8.2-8.1-14.1-8.2
		c-0.2,0-0.4,0-0.6,0c-0.2,0-0.3,0-0.5,0C20.1,2.3,15,5.4,12.2,10.2c-1.5,2.6-2.3,5.5-2.3,8.5c0,1.4,0.2,2.9,0.5,4.2H4.7
		c-0.3,0-0.6,0.1-0.8,0.4c-0.2,0.2-0.3,0.6-0.2,0.8l4.7,20.2c0.1,0.5,0.5,0.8,1,0.8h34.2c0.5,0,0.9-0.3,1-0.8l8-33h6.7
		c0.6,0,1-0.4,1-1S59.9,9.4,59.3,9.4z M41.2,18.7c0,1.4-0.2,2.9-0.6,4.2H32c0.2-1.4,0.3-2.8,0.3-4.2c0-1.7-0.2-3.3-0.4-4.9
		c2.6-0.3,5.2-0.9,7.7-1.8C40.7,14,41.2,16.4,41.2,18.7z M22.4,22.9c-0.2-1.4-0.3-2.8-0.3-4.2c0-1.6,0.2-3.2,0.4-4.8c0,0,0,0,0,0
		c1.3,0.1,2.7,0.2,4,0.2c1.1,0,2.3-0.1,3.3-0.1c0.3,1.5,0.4,3.1,0.4,4.7c0,1.5-0.1,2.9-0.3,4.2H22.4z M26.2,4.3
		c1.5,2.4,2.6,5,3.3,7.7c-2.1,0.2-4.4,0.1-6.5-0.1C23.6,9.3,24.7,6.7,26.2,4.3z M38.5,10.2c-2.3,0.8-4.6,1.3-7,1.6
		c-0.7-2.7-1.7-5.3-3.1-7.7C32.5,4.6,36.1,6.8,38.5,10.2z M23.9,4.3c-1.3,2.4-2.3,4.9-3,7.4c-2.2-0.3-4.3-0.8-6.4-1.5
		C16.8,7.1,20.1,5,23.9,4.3z M11.8,18.7c0-2.4,0.6-4.7,1.6-6.8c2.3,0.8,4.6,1.4,7,1.7c-0.3,1.6-0.4,3.3-0.4,5c0,1.4,0.1,2.8,0.3,4.2
		h-7.9C12.1,21.6,11.8,20.2,11.8,18.7z M42.8,43.1H10.2L6,24.9h41.3L42.8,43.1z"/>
	<path d="M38.2,51.8H14.7c-2.8,0-5.1,2.3-5.1,5.1c0,2.8,2.3,5.1,5.1,5.1s5.1-2.3,5.1-5.1c0-1.2-0.4-2.2-1.1-3.1h15.4
		c-0.7,0.9-1.1,1.9-1.1,3.1c0,2.8,2.3,5.1,5.1,5.1c2.8,0,5.1-2.3,5.1-5.1C43.3,54.1,41,51.8,38.2,51.8z M17.8,56.9
		c0,1.7-1.4,3.1-3.1,3.1c-1.7,0-3.1-1.4-3.1-3.1c0-1.7,1.4-3.1,3.1-3.1C16.4,53.8,17.8,55.2,17.8,56.9z M38.2,60
		c-1.7,0-3.1-1.4-3.1-3.1c0-1.7,1.4-3.1,3.1-3.1c1.7,0,3.1,1.4,3.1,3.1C41.3,58.6,39.9,60,38.2,60z"/>
</g>
</svg>
