<?xml version="1.0" encoding="utf-8"?>
<!-- Generator: Adobe Illustrator 22.0.1, SVG Export Plug-In . SVG Version: 6.00 Build 0)  -->
<svg fill="#000000" width="52" height="52" version="1.1" id="lni_lni-home-alt-4" xmlns="http://www.w3.org/2000/svg" xmlns:xlink="http://www.w3.org/1999/xlink" x="0px"
	 y="0px" viewBox="0 0 64 64" style="enable-background:new 0 0 64 64;" xml:space="preserve">
<path d="M59.7,26.4L33.2,1.7c-0.7-0.6-1.7-0.6-2.4,0L4.3,26.4c-0.4,0.4-0.6,1-0.5,1.5c0.1,0.6,0.4,1.1,0.9,1.3
	c3.9,2,6.3,5.9,6.3,10.3V58c0,2.6,2.1,4.8,4.8,4.8h7.4c2.6,0,4.8-2.1,4.8-4.8v-5.8c0-0.7,0.6-1.3,1.3-1.3h5.4c0.7,0,1.3,0.6,1.3,1.3
	V58c0,2.6,2.1,4.8,4.8,4.8h7.6c2.6,0,4.8-2.1,4.8-4.8V39.6c0-4.3,2.5-8.3,6.4-10.3c0.5-0.3,0.9-0.8,0.9-1.3
	C60.3,27.4,60.1,26.8,59.7,26.4z M32,5.4l23.6,22c-0.7,0.5-1.4,1.2-2,1.8H10.4c-0.6-0.6-1.3-1.3-2-1.8L32,5.4z M49.4,58
	c0,0.7-0.6,1.3-1.3,1.3h-7.6c-0.7,0-1.3-0.6-1.3-1.3v-5.8c0-2.6-2.1-4.8-4.8-4.8h-5.4c-2.6,0-4.8,2.1-4.8,4.8V58
	c0,0.7-0.6,1.3-1.3,1.3h-7.4c-0.7,0-1.3-0.6-1.3-1.3V39.6c0-2.5-0.6-4.8-1.6-6.9h38.2c-1.1,2.1-1.7,4.4-1.7,6.9V58z"/>
</svg>
