<?xml version="1.0" encoding="utf-8"?>
<!-- Generator: Adobe Illustrator 22.0.1, SVG Export Plug-In . SVG Version: 6.00 Build 0)  -->
<svg fill="#000000" width="56" height="56" version="1.1" id="lni_lni-message-info" xmlns="http://www.w3.org/2000/svg" xmlns:xlink="http://www.w3.org/1999/xlink"
	 x="0px" y="0px" viewBox="0 0 64 64" style="enable-background:new 0 0 64 64;" xml:space="preserve">
<g>
	<path d="M51.8,42c-1,0-1.8,0.8-1.8,1.8v8.8c0,1,0.8,1.8,1.8,1.8s1.8-0.8,1.8-1.8v-8.8C53.6,42.7,52.8,42,51.8,42z"/>
	<path d="M56.9,10.8H7.1c-3.2,0-5.8,2.6-5.8,5.8V48c0,3.2,2.6,5.8,5.8,5.8h31.8c1,0,1.8-0.8,1.8-1.8s-0.8-1.8-1.8-1.8H7.1
		c-1.3,0-2.3-1-2.3-2.3V16.8l24.1,14.6c1,0.6,2.1,0.9,3.2,0.9s2.2-0.3,3.2-0.9l24.1-14.6V31c0,1,0.8,1.8,1.8,1.8s1.8-0.8,1.8-1.8
		V16.6C62.8,13.4,60.1,10.8,56.9,10.8z M33.4,28.4c-0.8,0.5-1.9,0.5-2.7,0l-23.2-14h49.1L33.4,28.4z"/>
	<path d="M51.8,33.1c-1.6,0-2.8,1.3-2.8,2.8s1.3,2.8,2.8,2.8c1.6,0,2.8-1.3,2.8-2.8S53.4,33.1,51.8,33.1z"/>
</g>
</svg>
