<?xml version="1.0" encoding="utf-8"?>
<!-- Generator: Adobe Illustrator 22.0.1, SVG Export Plug-In . SVG Version: 6.00 Build 0)  -->
<svg fill="#000000" width="52" height="52" version="1.1" id="lni_lni-menu-circle" xmlns="http://www.w3.org/2000/svg" xmlns:xlink="http://www.w3.org/1999/xlink"
	 x="0px" y="0px" viewBox="0 0 64 64" style="enable-background:new 0 0 64 64;" xml:space="preserve">
<g>
	<path d="M32,1.3C15,1.3,1.3,15,1.3,32C1.3,49,15,62.8,32,62.8C49,62.8,62.8,49,62.8,32C62.8,15,49,1.3,32,1.3z M32,59.3
		C17,59.3,4.8,47,4.8,32C4.8,17,17,4.8,32,4.8C47,4.8,59.3,17,59.3,32C59.3,47,47,59.3,32,59.3z"/>
	<path d="M42.4,18.2H21.6c-1,0-1.8,0.8-1.8,1.8s0.8,1.8,1.8,1.8h20.8c1,0,1.8-0.8,1.8-1.8S43.4,18.2,42.4,18.2z"/>
	<path d="M42.4,30.3H21.6c-1,0-1.8,0.8-1.8,1.8s0.8,1.8,1.8,1.8h20.8c1,0,1.8-0.8,1.8-1.8S43.4,30.3,42.4,30.3z"/>
	<path d="M42.4,42.3H21.6c-1,0-1.8,0.8-1.8,1.8s0.8,1.8,1.8,1.8h20.8c1,0,1.8-0.8,1.8-1.8S43.4,42.3,42.4,42.3z"/>
</g>
</svg>
