<?xml version="1.0" encoding="utf-8"?>
<!-- Generator: Adobe Illustrator 22.0.1, SVG Export Plug-In . SVG Version: 6.00 Build 0)  -->
<svg fill="#000000" width="52" height="52" version="1.1" id="lni_lni-down-arrow-box" xmlns="http://www.w3.org/2000/svg" xmlns:xlink="http://www.w3.org/1999/xlink"
	 x="0px" y="0px" viewBox="0 0 64 64" style="enable-background:new 0 0 64 64;" xml:space="preserve">
<g>
	<path d="M42.4,33.4l-8.7,8.1V18.3c0-1-0.8-1.8-1.8-1.8s-1.8,0.8-1.8,1.8v23.4l-8.7-8.3c-0.7-0.7-1.8-0.6-2.5,0.1
		c-0.7,0.7-0.6,1.8,0.1,2.5l9.8,9.3l0.1,0.1c0.8,0.6,1.8,1,2.8,1c1,0,2-0.3,2.8-1L44.8,36c0.7-0.7,0.7-1.8,0.1-2.5
		C44.2,32.8,43.1,32.8,42.4,33.4z"/>
	<path d="M57,1.3H7C3.8,1.3,1.3,3.8,1.3,7v50c0,3.2,2.6,5.8,5.8,5.8h50c3.2,0,5.8-2.6,5.8-5.8V7C62.8,3.8,60.2,1.3,57,1.3z M59.3,57
		c0,1.2-1,2.3-2.3,2.3H7c-1.2,0-2.3-1-2.3-2.3V7c0-1.2,1-2.3,2.3-2.3h50c1.2,0,2.3,1,2.3,2.3V57z"/>
</g>
</svg>
