<?xml version="1.0" encoding="utf-8"?>
<!-- Generator: Adobe Illustrator 22.0.0, SVG Export Plug-In . SVG Version: 6.00 Build 0)  -->
<svg fill="#000000" width="52" height="52" version="1.1" id="lni_lni-target-customer" xmlns="http://www.w3.org/2000/svg" xmlns:xlink="http://www.w3.org/1999/xlink"
	 x="0px" y="0px" viewBox="0 0 64 64" style="enable-background:new 0 0 64 64;" xml:space="preserve">
<g>
	<path d="M61,31h-7.3C53.1,19.8,44.1,10.9,33,10.4V3c0-0.6-0.4-1-1-1c-0.6,0-1,0.4-1,1v7.4C19.9,10.9,10.9,19.8,10.3,31H3
		c-0.6,0-1,0.4-1,1c0,0.6,0.4,1,1,1h7.3c0.4,11.3,9.5,20.4,20.7,20.9V61c0,0.6,0.4,1,1,1c0.6,0,1-0.4,1-1v-7.1
		c11.2-0.5,20.2-9.6,20.7-20.9H61c0.6,0,1-0.4,1-1C62,31.4,61.6,31,61,31z M33,51.9v-1.4c0-0.6-0.4-1-1-1c-0.6,0-1,0.4-1,1v1.4
		C20.9,51.4,12.8,43.2,12.3,33h3.8c0.6,0,1-0.4,1-1c0-0.6-0.4-1-1-1h-3.8C12.9,21,21,12.9,31,12.4v1.1c0,0.6,0.4,1,1,1
		c0.6,0,1-0.4,1-1v-1.1C43,12.9,51.1,21,51.6,31h-1.2c-0.6,0-1,0.4-1,1c0,0.6,0.4,1,1,1h1.2C51.2,43.2,43.1,51.4,33,51.9z"/>
	<path d="M35.7,36.8c2.1-1.2,3.5-3.5,3.5-6.1c0-3.9-3.2-7.1-7.1-7.1c-3.9,0-7.1,3.2-7.1,7.1c0,2.6,1.4,4.9,3.5,6.1
		c-2.3,0.6-4.4,1.7-6.3,3.3c-0.4,0.4-0.4,1-0.1,1.4c0.4,0.4,1,0.5,1.4,0.1c2.4-2.1,5.4-3.3,8.6-3.3c3.2,0,6.2,1.2,8.6,3.3
		c0.2,0.2,0.4,0.3,0.7,0.3c0.3,0,0.5-0.1,0.7-0.3c0.4-0.4,0.3-1-0.1-1.4C40.1,38.5,38,37.4,35.7,36.8z M26.9,30.7
		c0-2.8,2.3-5.1,5.1-5.1s5.1,2.3,5.1,5.1s-2.3,5.1-5.1,5.1S26.9,33.5,26.9,30.7z"/>
</g>
</svg>
