<?xml version="1.0" encoding="utf-8"?>
<!-- Generator: Adobe Illustrator 22.0.1, SVG Export Plug-In . SVG Version: 6.00 Build 0)  -->
<svg fill="#5b2f2f" width="52" height="52" version="1.1" id="lni_lni-mobile-alt" xmlns="http://www.w3.org/2000/svg" xmlns:xlink="http://www.w3.org/1999/xlink" x="0px"
	 y="0px" viewBox="0 0 64 64" style="enable-background:new 0 0 64 64;" xml:space="preserve">
<g>
	<path d="M43.4,1.3H20.6c-4.4,0-8,3.6-8,8v45.5c0,4.4,3.6,8,8,8h22.7c4.4,0,8-3.6,8-8V9.3C51.4,4.8,47.8,1.3,43.4,1.3z M26.9,4.8
		h10.8c0,0.1,0,0.2,0,0.3v2.2c0,0.8-0.6,1.4-1.4,1.4h-8c-0.8,0-1.4-0.6-1.4-1.4V5.1C27,5,27,4.9,26.9,4.8z M47.9,54.7
		c0,2.5-2,4.5-4.5,4.5H20.6c-2.5,0-4.5-2-4.5-4.5V9.3c0-2.5,2-4.5,4.5-4.5h2.9c0,0.1,0,0.2,0,0.3v2.2c0,2.7,2.2,4.9,4.9,4.9h8
		c2.7,0,4.9-2.2,4.9-4.9V5.1c0-0.1,0-0.2,0-0.3h2.2c2.5,0,4.5,2,4.5,4.5V54.7z"/>
	<path d="M34.4,51.1h-4.8c-1,0-1.8,0.8-1.8,1.8s0.8,1.8,1.8,1.8h4.8c1,0,1.8-0.8,1.8-1.8S35.3,51.1,34.4,51.1z"/>
</g>
</svg>
