<?xml version="1.0" encoding="utf-8"?>
<!-- Generator: Adobe Illustrator 22.0.1, SVG Export Plug-In . SVG Version: 6.00 Build 0)  -->
<svg fill="#000000" width="52" height="52" version="1.1" id="lni_lni-music-note" xmlns="http://www.w3.org/2000/svg" xmlns:xlink="http://www.w3.org/1999/xlink" x="0px"
	 y="0px" viewBox="0 0 64 64" style="enable-background:new 0 0 64 64;" xml:space="preserve">
<path d="M56.4,2H40.1c-3.7,0-6.7,2.8-6.7,6.3v38c-2.5-3.1-7.1-5.1-12.4-5.1c-7.9,0-14.4,4.7-14.4,10.4C6.6,57.3,13.1,62,21,62
	c7.9,0,14.4-4.7,14.4-10.4c0-0.1,0-0.3,0-0.4c0-0.1,0-0.1,0-0.2V8.3c0-2.4,2.1-4.3,4.7-4.3h16.3c0.6,0,1-0.4,1-1S56.9,2,56.4,2z
	 M21,60c-6.8,0-12.4-3.8-12.4-8.4s5.5-8.4,12.4-8.4c6.8,0,12.4,3.8,12.4,8.4S27.8,60,21,60z"/>
</svg>
