<?xml version="1.0" encoding="utf-8"?>
<!-- Generator: Adobe Illustrator 22.0.1, SVG Export Plug-In . SVG Version: 6.00 Build 0)  -->
<svg fill="#000000" width="52" height="52" version="1.1" id="lni_lni-user-settings" xmlns="http://www.w3.org/2000/svg" xmlns:xlink="http://www.w3.org/1999/xlink"
	 x="0px" y="0px" viewBox="0 0 64 64" style="enable-background:new 0 0 64 64;" xml:space="preserve">
<g>
	<path d="M45.2,40.1c-2.7,0-4.9,2.2-4.9,4.9c0,2.7,2.2,4.9,4.9,4.9s4.9-2.2,4.9-4.9C50.1,42.3,47.9,40.1,45.2,40.1z M45.2,47.9
		c-1.6,0-2.9-1.3-2.9-2.9c0-1.6,1.3-2.9,2.9-2.9c1.6,0,2.9,1.3,2.9,2.9C48.1,46.6,46.8,47.9,45.2,47.9z"/>
	<path d="M61.3,48.7l-3.3-1.8c0.1-0.7,0.2-1.4,0.2-2c0-0.8-0.1-1.4-0.2-2l3.4-1.9c0.6-0.3,0.8-1.1,0.6-1.7c0,0,0-0.1-0.1-0.1
		l-3.2-5.4c-0.4-0.6-1.1-0.8-1.7-0.5c0,0-0.1,0-0.1,0.1l-3.4,1.9c-0.2-0.2-0.4-0.4-0.6-0.5c-0.6-0.5-1.2-1-2-1.4
		c-0.2-0.1-0.2-0.2-0.2-0.4v-2.1c0-1.3-1.1-2.4-2.4-2.4h-5.7c-1.3,0-2.4,1.1-2.4,2.4v2.2c0,0.2-0.1,0.3-0.3,0.4
		c-0.1,0-0.2,0.1-0.2,0.1c0-0.3,0-0.5-0.2-0.8c-0.2-0.2-0.3-0.4-0.5-0.6l-0.2-0.2c-3.7-4.3-8.5-6.9-13.8-7.2
		c5.6-0.7,9.9-5.4,9.9-11.1c0-6.2-5-11.2-11.2-11.2s-11.2,5-11.2,11.2c0,5.7,4.3,10.5,9.9,11.1c-5.3,0.4-10.2,2.9-13.8,7.2
		C4.3,36.4,2.1,42.9,2,50c0,0.4,0.2,0.7,0.6,0.9c2.5,1.2,11.4,5.3,20.9,5.3c2.6,0,5.2-0.3,7.9-0.8l0.4,0.7c0.4,0.6,1.1,0.8,1.7,0.5
		c0,0,0.1,0,0.1-0.1l3.4-1.9c0.2,0.2,0.4,0.3,0.6,0.5c0.6,0.5,1.2,1,2.1,1.4c0.2,0.1,0.3,0.2,0.3,0.4v2.4c0,1.3,1.1,2.4,2.4,2.4h5.7
		c1.3,0,2.4-1.1,2.4-2.4v-2.5c0-0.2,0.1-0.3,0.3-0.4c0.8-0.4,1.4-0.9,2-1.4c0.2-0.2,0.4-0.3,0.6-0.5l3.2,1.8c1,0.6,1.8,0.2,2.1-0.4
		l3.2-5.4c0.2-0.3,0.2-0.7,0.1-1.1C61.8,49.2,61.6,48.9,61.3,48.7z M14.2,13.4c0-5.1,4.1-9.2,9.2-9.2s9.2,4.1,9.2,9.2
		s-4.1,9.2-9.2,9.2S14.2,18.5,14.2,13.4z M23.4,54.2C15,54.2,7,50.8,4,49.4C4.2,43,6.3,37.2,9.8,33c3.6-4.2,8.4-6.6,13.6-6.6
		c5.2,0,10,2.3,13.6,6.6l0.1,0.2c0.1,0.2,0.3,0.3,0.4,0.5c0.2,0.2,0.4,0.4,0.6,0.4c-0.2,0.2-0.4,0.3-0.6,0.5
		c-0.2,0.1-0.4,0.3-0.6,0.5l-3.2-1.8c-1.1-0.6-1.8-0.2-2.1,0.4l-3.1,5.4c-0.2,0.3-0.2,0.7-0.1,1.1s0.3,0.7,0.7,0.8l3.4,1.8
		c-0.1,0.6-0.2,1.3-0.2,2c0,0.7,0,1.3,0.1,2L29,48.8c-0.6,0.4-0.8,1.1-0.6,1.7c0,0,0,0.1,0.1,0.1l1.7,2.9
		C27.9,54,25.6,54.2,23.4,54.2z M57.2,54.4l-3-1.6c-0.7-0.4-1.5-0.3-2.1,0.2c-0.3,0.2-0.5,0.4-0.7,0.6c-0.6,0.5-1,0.9-1.6,1.1
		c-0.8,0.4-1.4,1.3-1.4,2.2v2.5c0,0.2-0.2,0.4-0.4,0.4h-5.7c-0.2,0-0.4-0.2-0.4-0.4V57c0-0.9-0.5-1.8-1.4-2.2
		c-0.6-0.3-1.1-0.7-1.6-1.2c-0.2-0.2-0.4-0.4-0.7-0.6c-0.3-0.3-0.7-0.4-1.2-0.4c-0.3,0-0.6,0.1-0.9,0.2l-3,1.6l-2.5-4.3l2.9-1.6
		c0.7-0.4,1.1-1.2,1-2c-0.1-0.6-0.1-1.1-0.1-1.7c0-0.6,0-1.2,0.1-1.7c0.1-0.8-0.2-1.7-1-2.1l-2.8-1.6l2.5-4.3l3,1.6
		c0.7,0.4,1.5,0.3,2.1-0.2c0.2-0.2,0.5-0.4,0.7-0.6c0.6-0.5,1-0.9,1.6-1.2c0.8-0.4,1.4-1.3,1.4-2.2v-2.2c0-0.2,0.2-0.4,0.4-0.4h5.7
		c0.2,0,0.4,0.2,0.4,0.4v2.1c0,0.9,0.5,1.8,1.4,2.2c0.6,0.3,1,0.7,1.6,1.1c0.2,0.2,0.5,0.4,0.7,0.6c0.6,0.5,1.4,0.5,2.1,0.2l3-1.6
		l2.5,4.3l-2.8,1.6c-0.7,0.4-1.1,1.2-1,2.1c0.1,0.5,0.1,1.1,0.1,1.7c0,0.6,0,1.1-0.1,1.7c-0.1,0.8,0.3,1.7,1,2.1l2.8,1.5L57.2,54.4z
		"/>
</g>
</svg>
