<?xml version="1.0" encoding="utf-8"?>
<!-- Generator: Adobe Illustrator 22.0.1, SVG Export Plug-In . SVG Version: 6.00 Build 0)  -->
<svg fill="#000000" width="52" height="52" version="1.1" id="lni_lni-soundcloud" xmlns="http://www.w3.org/2000/svg" xmlns:xlink="http://www.w3.org/1999/xlink" x="0px"
	 y="0px" viewBox="0 0 64 64" style="enable-background:new 0 0 64 64;" xml:space="preserve">
<g>
	<path d="M59.4,25.8c-1.9-2.2-4.7-3.7-7.9-4.2c-1.6-2.6-4.1-4.6-7-5.6c-1.5-0.5-2.9-0.7-4.1-0.7h-0.6c-0.9,0-1.6,0.8-1.6,1.7v29.8
		c0,1,0.7,1.7,1.7,1.7h9.7c7.5,0,13.5-6.1,13.5-13.5C63,31.5,61.7,28.3,59.4,25.8z M49.4,46.6h-9.3V17.4h0.3c1,0,2.2,0.2,3.5,0.6
		c2.6,0.9,4.8,2.7,6.2,5.1l0.3,0.4l0.5,0.1c2.9,0.3,5.4,1.6,7.1,3.6l0,0c2,2,3.1,4.8,3.1,7.8C61,41.4,55.8,46.6,49.4,46.6z"/>
	<path d="M26.1,16.9c-0.6,0-1,0.4-1,1v28.2c0,0.6,0.4,1,1,1s1-0.4,1-1V17.9C27.1,17.4,26.6,16.9,26.1,16.9z"/>
	<path d="M13.6,18.6c-0.6,0-1,0.4-1,1v24.7c0,0.6,0.4,1,1,1s1-0.4,1-1V19.6C14.6,19.1,14.2,18.6,13.6,18.6z"/>
	<path d="M2,22.2c-0.6,0-1,0.4-1,1v17.5c0,0.6,0.4,1,1,1s1-0.4,1-1V23.2C3,22.7,2.6,22.2,2,22.2z"/>
</g>
</svg>
