<?xml version="1.0" encoding="utf-8"?>
<!-- Generator: Adobe Illustrator 22.0.1, SVG Export Plug-In . SVG Version: 6.00 Build 0)  -->
<svg fill="#000000" width="52" height="52" version="1.1" id="lni_lni-shopping-bag-13" xmlns="http://www.w3.org/2000/svg" xmlns:xlink="http://www.w3.org/1999/xlink"
	 x="0px" y="0px" viewBox="0 0 64 64" style="enable-background:new 0 0 64 64;" xml:space="preserve">
<g>
	<path d="M54.7,2H9.3C5.3,2,2,5.3,2,9.3v37.1C2,55,9,62,17.6,62h28.7C55,62,62,55,62,46.4V9.3C62,5.3,58.7,2,54.7,2z M60,46.4
		C60,53.9,53.9,60,46.4,60H17.6C10.1,60,4,53.9,4,46.4V9.3C4,6.4,6.4,4,9.3,4h45.5C57.6,4,60,6.4,60,9.3V46.4z"/>
	<path d="M44.5,14c-0.6,0-1,0.4-1,1v10.4C43.5,31.8,38.4,37,32,37s-11.5-5.2-11.5-11.5V15c0-0.6-0.4-1-1-1s-1,0.4-1,1v10.4
		C18.5,32.9,24.5,39,32,39s13.5-6.1,13.5-13.5V15C45.5,14.4,45.1,14,44.5,14z"/>
</g>
</svg>
