<?xml version="1.0" encoding="utf-8"?>
<!-- Generator: Adobe Illustrator 22.0.0, SVG Export Plug-In . SVG Version: 6.00 Build 0)  -->
<svg fill="#000000" width="52" height="52" version="1.1" id="lni_lni-support" xmlns="http://www.w3.org/2000/svg" xmlns:xlink="http://www.w3.org/1999/xlink" x="0px"
	 y="0px" viewBox="0 0 64 64" style="enable-background:new 0 0 64 64;" xml:space="preserve">
<g>
	<path d="M30.6,19.5H13.8c-0.6,0-1,0.4-1,1s0.4,1,1,1h16.8c0.6,0,1-0.4,1-1S31.1,19.5,30.6,19.5z"/>
	<path d="M13.8,29.4h7.7c0.6,0,1-0.4,1-1s-0.4-1-1-1h-7.7c-0.6,0-1,0.4-1,1S13.2,29.4,13.8,29.4z"/>
	<path d="M26.7,35.3h-13c-0.6,0-1,0.4-1,1s0.4,1,1,1h13c0.6,0,1-0.4,1-1S27.3,35.3,26.7,35.3z"/>
	<path d="M48.3,18.1c-2-0.2-3.8,0.7-4.7,2.4c-0.3,0.5-0.1,1.1,0.4,1.4c0.5,0.3,1.1,0.1,1.4-0.4c0.5-1,1.6-1.5,2.7-1.4
		c1.2,0.1,2.2,1.1,2.3,2.2c0.1,1.1-0.4,2.1-1.4,2.6c-1.3,0.6-2.2,2.1-2.2,3.5v1.3c0,0.6,0.4,1,1,1s1-0.4,1-1v-1.3
		c0-0.6,0.5-1.4,1.1-1.7c1.7-0.8,2.7-2.7,2.5-4.6C52.2,20,50.4,18.3,48.3,18.1z"/>
	<path d="M47.8,36c-0.8,0-1.5,0.7-1.5,1.5c0,0.8,0.7,1.5,1.5,1.5c0.8,0,1.5-0.7,1.5-1.5C49.3,36.7,48.6,36,47.8,36z"/>
	<path d="M55.3,10.2H8.7c-3.7,0-6.7,3-6.7,6.7v33.3c0,1.3,0.7,2.5,1.8,3.1c0.6,0.3,1.2,0.5,1.8,0.5c0.6,0,1.2-0.2,1.8-0.5L19,46.7
		c0.2-0.1,0.5-0.2,0.8-0.2h35.5c3.7,0,6.7-3,6.7-6.7V16.9C62,13.2,59,10.2,55.3,10.2z M60,39.8c0,2.6-2.1,4.7-4.7,4.7H19.8
		c-0.6,0-1.3,0.2-1.8,0.5L6.5,51.6c-0.5,0.3-1.1,0.3-1.6,0C4.3,51.3,4,50.8,4,50.2V16.9c0-2.6,2.1-4.7,4.7-4.7h46.6
		c2.6,0,4.7,2.1,4.7,4.7V39.8z"/>
</g>
</svg>
