<svg width="40" height="40" viewBox="0 0 40 40" fill="none" xmlns="http://www.w3.org/2000/svg">
<g clip-path="url(#clip0_21_802)">
<path opacity="0.4" d="M10.5429 39.6388L0.570131 33.2824C-0.274669 32.7439 -0.169069 31.8037 0.810131 31.1822L24.8973 15.8334C25.8733 15.2154 27.3485 15.1448 28.1933 15.6824L38.1661 22.0388C39.0109 22.5764 38.9045 23.5166 37.9261 24.1381L13.8397 39.4852C12.8629 40.1067 11.3877 40.1747 10.5429 39.6388Z" fill="#D6D8E5"/>
<path d="M11.8063 38.7992L1.83353 32.4429C0.988734 31.9052 1.09513 30.965 2.07353 30.3435L26.1599 14.9973C27.1359 14.3794 28.6111 14.3078 29.4559 14.8464L39.4287 21.2027C40.2735 21.7413 40.1679 22.6815 39.1887 23.303L15.1023 38.6492C14.1263 39.2707 12.6511 39.3378 11.8063 38.7992Z" fill="#B1B4C4"/>
<path d="M1.2627 31.5203V30.5068L2.3395 30.9553L1.2627 31.5203Z" fill="#B1B4C4"/>
<path d="M39.9994 22.0776V21.103L39.1426 21.7121L39.9994 22.0776Z" fill="#B1B4C4"/>
<path d="M11.8063 37.942L1.83353 31.5856C0.988734 31.0471 1.09513 30.1069 2.07353 29.4854L26.1599 14.1392C27.1359 13.5212 28.6111 13.4506 29.4559 13.9883L39.4287 20.3446C40.2735 20.8823 40.1679 21.8225 39.1887 22.444L15.1023 37.791C14.1263 38.4125 12.6511 38.4805 11.8063 37.942Z" fill="#616E84"/>
<path d="M3.03643 32.8894C3.0877 32.8567 3.0879 32.7512 3.03686 32.6536C2.98583 32.5561 2.9029 32.5035 2.85163 32.5362C2.80035 32.5688 2.80016 32.6744 2.85119 32.7719C2.90222 32.8695 2.98515 32.922 3.03643 32.8894Z" fill="#757B89"/>
<path d="M3.5169 33.1953C3.56817 33.1626 3.56836 33.0571 3.51733 32.9595C3.4663 32.862 3.38337 32.8094 3.3321 32.8421C3.28082 32.8747 3.28063 32.9803 3.33166 33.0778C3.38269 33.1754 3.46562 33.228 3.5169 33.1953Z" fill="#757B89"/>
<path d="M3.99736 33.5013C4.04864 33.4687 4.04883 33.3631 3.9978 33.2656C3.94677 33.168 3.86384 33.1154 3.81256 33.1481C3.76129 33.1808 3.7611 33.2863 3.81213 33.3839C3.86316 33.4814 3.94609 33.534 3.99736 33.5013Z" fill="#757B89"/>
<path d="M4.47686 33.8072C4.52813 33.7746 4.52833 33.669 4.47729 33.5715C4.42626 33.4739 4.34333 33.4213 4.29206 33.454C4.24078 33.4867 4.24059 33.5922 4.29162 33.6898C4.34265 33.7873 4.42558 33.8399 4.47686 33.8072Z" fill="#757B89"/>
<path d="M8.59893 36.4332C8.6502 36.4006 8.6504 36.295 8.59936 36.1975C8.54833 36.0999 8.4654 36.0473 8.41413 36.08C8.36285 36.1127 8.36266 36.2182 8.41369 36.3158C8.46472 36.4133 8.54765 36.4659 8.59893 36.4332Z" fill="#757B89"/>
<path d="M9.07842 36.7391C9.12969 36.7065 9.12989 36.6009 9.07886 36.5034C9.02783 36.4058 8.94489 36.3533 8.89362 36.3859C8.84235 36.4186 8.84215 36.5241 8.89318 36.6217C8.94421 36.7192 9.02715 36.7718 9.07842 36.7391Z" fill="#757B89"/>
<path d="M9.55889 37.0452C9.61016 37.0125 9.61036 36.907 9.55933 36.8094C9.50829 36.7119 9.42536 36.6593 9.37409 36.6919C9.32281 36.7246 9.32262 36.8302 9.37365 36.9277C9.42468 37.0252 9.50762 37.0778 9.55889 37.0452Z" fill="#757B89"/>
<path d="M10.0384 37.3511C10.0897 37.3184 10.0898 37.2129 10.0388 37.1153C9.98779 37.0178 9.90485 36.9652 9.85358 36.9979C9.80231 37.0305 9.80211 37.1361 9.85314 37.2336C9.90417 37.3312 9.98711 37.3837 10.0384 37.3511Z" fill="#757B89"/>
<path d="M7.10534 35.5858L5.78694 34.7453C5.74127 34.7094 5.70383 34.6622 5.67758 34.6074C5.65133 34.5527 5.63701 34.492 5.63574 34.4301C5.63574 34.3074 5.70294 34.2536 5.78694 34.3039L7.10534 35.1443C7.15144 35.1806 7.18915 35.2284 7.21542 35.2838C7.24169 35.3391 7.25577 35.4005 7.25654 35.463C7.25654 35.5822 7.18934 35.6387 7.10534 35.5858Z" fill="#757B89"/>
<path d="M36.9815 24.4904L35.7551 25.2717C35.6751 25.3211 35.6143 25.2717 35.6143 25.1543C35.6151 25.0961 35.6282 25.039 35.6527 24.9875C35.6771 24.9359 35.7122 24.8915 35.7551 24.8576L36.9815 24.0763C37.0615 24.0269 37.1215 24.0763 37.1215 24.1937C37.1207 24.2518 37.1077 24.3089 37.0834 24.3604C37.0591 24.4119 37.0242 24.4564 36.9815 24.4904Z" fill="#757B89"/>
<path d="M35.1026 25.6901L33.8761 26.4714C33.7961 26.5209 33.7354 26.4714 33.7354 26.354C33.7362 26.296 33.7494 26.239 33.7739 26.1876C33.7983 26.1363 33.8333 26.092 33.8761 26.0583L35.1026 25.277C35.1826 25.2275 35.2426 25.277 35.2426 25.3944C35.2418 25.4523 35.2288 25.5093 35.2045 25.5607C35.1802 25.612 35.1453 25.6564 35.1026 25.6901Z" fill="#757B89"/>
<path d="M11.8063 37.7849L1.83353 31.4285C0.988734 30.8909 1.09513 29.9507 2.07353 29.3291L26.1599 13.9838C27.1359 13.3659 28.6111 13.2944 29.4559 13.8329L39.4287 20.1892C40.2735 20.7278 40.1679 21.668 39.1887 22.2895L15.1023 37.6357C14.1263 38.2572 12.6511 38.3243 11.8063 37.7849Z" fill="#20232D"/>
<path d="M37.8789 20.7048L33.9853 18.2241L33.9757 18.2303C33.5157 18.5234 32.7701 18.5234 32.3101 18.2303C31.8501 17.9372 31.8501 17.4622 32.3101 17.1709L32.3197 17.1647L28.4261 14.6839C27.8349 14.307 26.8757 14.307 26.2845 14.6839L2.82133 29.6311C2.23013 30.008 2.23013 30.619 2.82133 30.995L12.2733 37.0177C12.8653 37.3947 13.8237 37.3947 14.4149 37.0177L37.8789 22.0706C38.4701 21.6927 38.4701 21.0818 37.8789 20.7048Z" fill="#F2F5F9"/>
<path d="M33.3671 17.8824C33.6141 17.8824 33.8143 17.7547 33.8143 17.5973C33.8143 17.4398 33.6141 17.3121 33.3671 17.3121C33.1201 17.3121 32.9199 17.4398 32.9199 17.5973C32.9199 17.7547 33.1201 17.8824 33.3671 17.8824Z" fill="#2B303F"/>
<path opacity="0.1" d="M33.235 17.682C33.2187 17.6764 33.2044 17.6652 33.1943 17.65C33.1842 17.6349 33.1787 17.6165 33.1787 17.5977C33.1787 17.5788 33.1842 17.5605 33.1943 17.5453C33.2044 17.5302 33.2187 17.519 33.235 17.5134C33.276 17.4903 33.3214 17.4782 33.3674 17.4782C33.4134 17.4782 33.4588 17.4903 33.4998 17.5134C33.5161 17.519 33.5303 17.5302 33.5405 17.5453C33.5506 17.5605 33.5561 17.5788 33.5561 17.5977C33.5561 17.6165 33.5506 17.6349 33.5405 17.65C33.5303 17.6652 33.5161 17.6764 33.4998 17.682C33.4588 17.7051 33.4134 17.7171 33.3674 17.7171C33.3214 17.7171 33.276 17.7051 33.235 17.682Z" fill="white"/>
<path d="M22.1999 30.8653L13.8847 36.2011L10.5127 34.0532L18.8287 28.7173L22.1999 30.8653Z" fill="#B9CC00"/>
<path d="M30.7048 17.7421L16.3608 26.9676L12.4336 24.5946L26.7768 15.369L30.7048 17.7421Z" fill="#B9CC00"/>
<path d="M16.4881 23.3153H16.0977V24.8303C16.0991 24.8492 16.1052 24.8674 16.1152 24.8829C16.1252 24.8985 16.1387 24.9108 16.1545 24.9186C16.1972 24.9425 16.2445 24.955 16.2925 24.955C16.3404 24.955 16.3877 24.9425 16.4305 24.9186C16.4464 24.911 16.4602 24.8987 16.4703 24.8832C16.4805 24.8676 16.4866 24.8494 16.4881 24.8303V23.3153Z" fill="#443D31"/>
<path d="M16.3025 23.3383C16.8676 23.3383 17.3257 22.8328 17.3257 22.2092C17.3257 21.5855 16.8676 21.08 16.3025 21.08C15.7374 21.08 15.2793 21.5855 15.2793 22.2092C15.2793 22.8328 15.7374 23.3383 16.3025 23.3383Z" fill="#593F3F" fill-opacity="0.84"/>
<path d="M18.8797 21.8004H18.4893V23.3144C18.4907 23.3335 18.4969 23.3518 18.507 23.3674C18.5171 23.3829 18.5309 23.3951 18.5469 23.4027C18.5896 23.4267 18.6369 23.4392 18.6849 23.4392C18.7328 23.4392 18.7801 23.4267 18.8229 23.4027C18.8386 23.3949 18.8522 23.3826 18.8621 23.3671C18.8721 23.3516 18.8782 23.3334 18.8797 23.3144V21.8004Z" fill="#443D31"/>
<path d="M18.6941 21.8233C19.2592 21.8233 19.7173 21.3178 19.7173 20.6942C19.7173 20.0706 19.2592 19.5651 18.6941 19.5651C18.129 19.5651 17.6709 20.0706 17.6709 20.6942C17.6709 21.3178 18.129 21.8233 18.6941 21.8233Z" fill="#593F3F" fill-opacity="0.84"/>
<path d="M23.8582 18.9162H23.4678V20.4311C23.4692 20.4502 23.4754 20.4685 23.4855 20.4841C23.4957 20.4996 23.5094 20.5118 23.5254 20.5194C23.5681 20.5434 23.6154 20.5559 23.6634 20.5559C23.7113 20.5559 23.7586 20.5434 23.8014 20.5194C23.8171 20.5116 23.8307 20.4993 23.8407 20.4838C23.8506 20.4683 23.8567 20.4501 23.8582 20.4311V18.9162Z" fill="#443D31"/>
<path d="M23.6726 18.9391C24.2377 18.9391 24.6958 18.4336 24.6958 17.81C24.6958 17.1864 24.2377 16.6809 23.6726 16.6809C23.1075 16.6809 22.6494 17.1864 22.6494 17.81C22.6494 18.4336 23.1075 18.9391 23.6726 18.9391Z" fill="#593F3F" fill-opacity="0.84"/>
<path d="M31.2593 19.5006L9.42886 33.4096L8.59766 32.8799L30.4281 18.9709L31.2593 19.5006Z" fill="#E88C40"/>
<path d="M32.9025 24.3518L29.4385 22.1447V12.9633L32.9025 15.1704V24.3518Z" fill="#E4E7EF"/>
<path d="M32.9025 15.1704L29.4385 12.9633L32.9025 10.7562L36.3665 12.9633L32.9025 15.1704Z" fill="#EDF1F9"/>
<path d="M32.2793 17.0684L30.0625 15.6559V14.42L32.2793 15.8325V17.0684Z" fill="#593F3F"/>
<path d="M36.3673 22.1447L32.9033 24.3526V15.1712L36.3673 12.9642V22.1447Z" fill="#DADCE5"/>
<path d="M34.3584 16.5396L33.5264 17.0693V15.8334L34.3584 15.3037V16.5396Z" fill="#593F3F"/>
<path d="M35.7441 15.6568L34.9121 16.1865V14.9505L35.7441 14.4208V15.6568Z" fill="#593F3F"/>
<path d="M34.3584 18.3936L33.5264 18.9233V17.6873L34.3584 17.1576V18.3936Z" fill="#593F3F"/>
<path d="M35.7441 17.5107L34.9121 18.0404V16.8045L35.7441 16.2748V17.5107Z" fill="#593F3F"/>
<path d="M34.3584 20.2475L33.5264 20.7772V19.5412L34.3584 19.0115V20.2475Z" fill="#593F3F"/>
<path d="M35.7441 19.3647L34.9121 19.8944V18.6584L35.7441 18.1287V19.3647Z" fill="#593F3F"/>
<path d="M34.3584 22.1897L33.5264 22.7194V21.4835L34.3584 20.9538V22.1897Z" fill="#593F3F"/>
<path d="M35.7441 21.3069L34.9121 21.8366V20.6006L35.7441 20.071V21.3069Z" fill="#593F3F"/>
<path d="M32.2793 18.9224L30.0625 17.5099V16.2739L32.2793 17.6864V18.9224Z" fill="#593F3F"/>
<path d="M32.2793 20.7763L30.0625 19.3638V18.1278L32.2793 19.5404V20.7763Z" fill="#593F3F"/>
<path d="M32.2793 22.7185L30.0625 21.306V20.0701L32.2793 21.4826V22.7185Z" fill="#593F3F"/>
<path d="M32.9027 14.2001L30.9043 12.9271V12.5325L32.9027 13.8064V14.2001Z" fill="#E4E7EF"/>
<path d="M32.9033 14.2001L34.9025 12.9271V12.5325L32.9033 13.8064V14.2001Z" fill="#DADCE5"/>
<path d="M12.1994 29.6231L8.73535 27.416V12.9386L12.1994 15.1456V29.6231Z" fill="#E4E7EF"/>
<path d="M12.1994 15.1456L8.73535 12.9386L12.1994 10.7315L15.6634 12.9386L12.1994 15.1456Z" fill="#EDF1F9"/>
<path d="M11.5752 17.0437L9.3584 15.6312V14.3952L11.5752 15.8078V17.0437Z" fill="#84A6F4"/>
<path d="M15.6632 27.4169L12.1992 29.624V15.1456L15.6632 12.9386V27.4169Z" fill="#DADCE5"/>
<path d="M13.6535 16.514L12.8223 17.0437V15.8078L13.6535 15.2781V16.514Z" fill="#84A6F4"/>
<path d="M15.0392 15.6312L14.208 16.1609V14.9249L15.0392 14.3952V15.6312Z" fill="#84A6F4"/>
<path d="M13.6535 18.368L12.8223 18.8977V17.6617L13.6535 17.132V18.368Z" fill="#84A6F4"/>
<path d="M15.0392 17.4851L14.208 18.0148V16.7789L15.0392 16.2492V17.4851Z" fill="#84A6F4"/>
<path d="M13.6535 20.2219L12.8223 20.7516V19.5156L13.6535 18.9859V20.2219Z" fill="#84A6F4"/>
<path d="M15.0392 19.3391L14.208 19.8688V18.6328L15.0392 18.1031V19.3391Z" fill="#84A6F4"/>
<path d="M13.6535 22.1641L12.8223 22.6938V21.4579L13.6535 20.9282V22.1641Z" fill="#84A6F4"/>
<path d="M15.0392 21.2813L14.208 21.811V20.575L15.0392 20.0453V21.2813Z" fill="#84A6F4"/>
<path d="M13.6535 24.2379L12.8223 24.7676V23.5325L13.6535 23.0028V24.2379Z" fill="#84A6F4"/>
<path d="M15.0392 23.3551L14.208 23.8848V22.6497L15.0392 22.12V23.3551Z" fill="#84A6F4"/>
<path d="M13.6535 26.3584L12.8223 26.8881V25.6522L13.6535 25.1225V26.3584Z" fill="#84A6F4"/>
<path d="M15.0392 25.4756L14.208 26.0053V24.7694L15.0392 24.2397V25.4756Z" fill="#84A6F4"/>
<path d="M11.5752 18.8977L9.3584 17.4851V16.2492L11.5752 17.6617V18.8977Z" fill="#84A6F4"/>
<path d="M11.5752 20.7516L9.3584 19.3391V18.1031L11.5752 19.5156V20.7516Z" fill="#84A6F4"/>
<path d="M11.5752 22.6938L9.3584 21.2813V20.0453L11.5752 21.4579V22.6938Z" fill="#84A6F4"/>
<path d="M11.5752 24.7676L9.3584 23.3551V22.12L11.5752 23.5325V24.7676Z" fill="#84A6F4"/>
<path d="M11.5752 26.8881L9.3584 25.4756V24.2397L11.5752 25.6522V26.8881Z" fill="#84A6F4"/>
<path d="M12.1984 14.1754L10.1992 12.9024V12.5078L12.1984 13.7817V14.1754Z" fill="#E4E7EF"/>
<path d="M12.1992 14.1754L14.1984 12.9024V12.5078L12.1992 13.7817V14.1754Z" fill="#DADCE5"/>
<path d="M12.1994 29.6231L8.73535 27.416V12.9386L12.1994 15.1456V29.6231Z" fill="#E4E7EF"/>
<path d="M12.1994 15.1456L8.73535 12.9386L12.1994 10.7315L15.6634 12.9386L12.1994 15.1456Z" fill="#EDF1F9"/>
<path d="M11.576 17.0437L9.3584 15.6312V14.3952L11.576 15.8078V17.0437Z" fill="#593F3F"/>
<path d="M15.6632 27.4169L12.1992 29.624V15.1456L15.6632 12.9386V27.4169Z" fill="#DADCE5"/>
<path d="M13.6543 16.514L12.8223 17.0437V15.8078L13.6543 15.2781V16.514Z" fill="#593F3F"/>
<path d="M15.04 15.6312L14.208 16.1609V14.9249L15.04 14.3952V15.6312Z" fill="#593F3F"/>
<path d="M13.6543 18.368L12.8223 18.8977V17.6617L13.6543 17.132V18.368Z" fill="#593F3F"/>
<path d="M15.04 17.4851L14.208 18.0148V16.7789L15.04 16.2492V17.4851Z" fill="#593F3F"/>
<path d="M13.6543 20.2219L12.8223 20.7516V19.5156L13.6543 18.9859V20.2219Z" fill="#593F3F"/>
<path d="M15.04 19.3391L14.208 19.8688V18.6328L15.04 18.1031V19.3391Z" fill="#593F3F"/>
<path d="M13.6543 22.1641L12.8223 22.6938V21.4579L13.6543 20.9282V22.1641Z" fill="#593F3F"/>
<path d="M15.04 21.2813L14.208 21.811V20.575L15.04 20.0453V21.2813Z" fill="#593F3F"/>
<path d="M13.6543 24.2379L12.8223 24.7676V23.5325L13.6543 23.0028V24.2379Z" fill="#593F3F"/>
<path d="M15.04 23.3551L14.208 23.8848V22.6497L15.04 22.12V23.3551Z" fill="#593F3F"/>
<path d="M13.6543 26.3584L12.8223 26.8881V25.6522L13.6543 25.1225V26.3584Z" fill="#593F3F"/>
<path d="M15.04 25.4756L14.208 26.0053V24.7694L15.04 24.2397V25.4756Z" fill="#593F3F"/>
<path d="M11.576 18.8977L9.3584 17.4851V16.2492L11.576 17.6617V18.8977Z" fill="#593F3F"/>
<path d="M11.576 20.7516L9.3584 19.3391V18.1031L11.576 19.5156V20.7516Z" fill="#593F3F"/>
<path d="M11.576 22.6938L9.3584 21.2813V20.0453L11.576 21.4579V22.6938Z" fill="#593F3F"/>
<path d="M11.576 24.7676L9.3584 23.3551V22.12L11.576 23.5325V24.7676Z" fill="#593F3F"/>
<path d="M11.576 26.8881L9.3584 25.4756V24.2397L11.576 25.6522V26.8881Z" fill="#593F3F"/>
<path d="M12.1984 14.1754L10.1992 12.9024V12.5078L12.1984 13.7817V14.1754Z" fill="#E4E7EF"/>
<path d="M12.1992 14.1754L14.1984 12.9024V12.5078L12.1992 13.7817V14.1754Z" fill="#DADCE5"/>
<path d="M27.7765 27.4858L24.3125 25.2787V10.8004L27.7765 13.0075V27.4858Z" fill="#E4E7EF"/>
<path d="M27.7763 13.0075L24.3115 10.8004L27.7755 8.59332L31.2403 10.8004L27.7763 13.0075Z" fill="#EDF1F9"/>
<path d="M27.1523 14.9055L24.9355 13.493V12.257L27.1523 13.6696V14.9055Z" fill="#593F3F"/>
<path d="M31.2402 25.2796L27.7754 27.4867V13.0083L31.2402 10.8013V25.2796Z" fill="#DADCE5"/>
<path d="M29.2306 14.3767L28.3994 14.9064V13.6704L29.2306 13.1407V14.3767Z" fill="#593F3F"/>
<path d="M30.6164 13.4939L29.7852 14.0236V12.7876L30.6164 12.2579V13.4939Z" fill="#593F3F"/>
<path d="M29.2306 16.2306L28.3994 16.7603V15.5244L29.2306 14.9947V16.2306Z" fill="#593F3F"/>
<path d="M30.6164 15.3478L29.7852 15.8775V14.6415L30.6164 14.1118V15.3478Z" fill="#593F3F"/>
<path d="M29.2306 18.0846L28.3994 18.6143V17.3783L29.2306 16.8486V18.0846Z" fill="#593F3F"/>
<path d="M30.6164 17.2017L29.7852 17.7314V16.4955L30.6164 15.9658V17.2017Z" fill="#593F3F"/>
<path d="M29.2306 20.0268L28.3994 20.5565V19.3205L29.2306 18.7908V20.0268Z" fill="#593F3F"/>
<path d="M30.6164 19.144L29.7852 19.6737V18.4377L30.6164 17.908V19.144Z" fill="#593F3F"/>
<path d="M29.2306 22.1006L28.3994 22.6302V21.3943L29.2306 20.8646V22.1006Z" fill="#593F3F"/>
<path d="M30.6164 21.2177L29.7852 21.7474V20.5115L30.6164 19.9818V21.2177Z" fill="#593F3F"/>
<path d="M29.2306 24.2211L28.3994 24.7508V23.5148L29.2306 22.9851V24.2211Z" fill="#593F3F"/>
<path d="M30.6164 23.3383L29.7852 23.868V22.632L30.6164 22.1014V23.3383Z" fill="#593F3F"/>
<path d="M27.1523 16.7594L24.9355 15.3469V14.111L27.1523 15.5235V16.7594Z" fill="#593F3F"/>
<path d="M27.1523 18.6134L24.9355 17.2009V15.9649L27.1523 17.3774V18.6134Z" fill="#593F3F"/>
<path d="M27.1523 20.5556L24.9355 19.1431V17.9071L27.1523 19.3197V20.5556Z" fill="#593F3F"/>
<path d="M27.1523 22.6303L24.9355 21.2177V19.9818L27.1523 21.3943V22.6303Z" fill="#593F3F"/>
<path d="M27.1523 24.7508L24.9355 23.3383V22.1014L27.1523 23.5148V24.7508Z" fill="#593F3F"/>
<path d="M27.7765 12.0381L25.7773 10.7642V10.3704L27.7765 11.6435V12.0381Z" fill="#E4E7EF"/>
<path d="M27.7764 12.0381L29.7756 10.7642V10.3704L27.7764 11.6435V12.0381Z" fill="#DADCE5"/>
<path d="M7.69544 32.449L4.23145 30.242V21.0606L7.69544 23.2676V32.449Z" fill="#E4E7EF"/>
<path d="M7.69544 23.2677L4.23145 21.0606L7.69465 18.8535L11.1594 21.0606L7.69544 23.2677Z" fill="#EDF1F9"/>
<path d="M7.07129 25.1657L4.85449 23.7532V22.5172L7.07129 23.9298V25.1657Z" fill="#593F3F"/>
<path d="M11.1593 30.242L7.69531 32.449V23.2685L11.1593 21.0615V30.242Z" fill="#DADCE5"/>
<path d="M9.15054 24.6369L8.31934 25.1666V23.9307L9.15054 23.401V24.6369Z" fill="#593F3F"/>
<path d="M10.5353 23.7541L9.7041 24.2838V23.0478L10.5353 22.5181V23.7541Z" fill="#593F3F"/>
<path d="M9.15054 26.4909L8.31934 27.0206V25.7846L9.15054 25.2549V26.4909Z" fill="#593F3F"/>
<path d="M10.5353 25.608L9.7041 26.1377V24.9018L10.5353 24.3721V25.608Z" fill="#593F3F"/>
<path d="M9.15054 28.3448L8.31934 28.8745V27.6385L9.15054 27.1088V28.3448Z" fill="#593F3F"/>
<path d="M10.5353 27.462L9.7041 27.9917V26.7557L10.5353 26.226V27.462Z" fill="#593F3F"/>
<path d="M9.15054 30.2861L8.31934 30.8158V29.5799L9.15054 29.0502V30.2861Z" fill="#593F3F"/>
<path d="M10.5353 29.4033L9.7041 29.933V28.6971L10.5353 28.1674V29.4033Z" fill="#593F3F"/>
<path d="M7.07129 27.0197L4.85449 25.6071V24.3712L7.07129 25.7837V27.0197Z" fill="#593F3F"/>
<path d="M7.07129 28.8736L4.85449 27.4611V26.2251L7.07129 27.6377V28.8736Z" fill="#593F3F"/>
<path d="M7.07129 30.8158L4.85449 29.4033V28.1674L7.07129 29.5799V30.8158Z" fill="#593F3F"/>
<path d="M7.69549 22.2974L5.69629 21.0244V20.6298L7.69549 21.9037V22.2974Z" fill="#E4E7EF"/>
<path d="M7.69531 22.2974L9.69451 21.0244V20.6298L7.69531 21.9037V22.2974Z" fill="#DADCE5"/>
<path d="M22.8234 30.5254L19.3594 28.3183V19.1369L22.8234 21.344V30.5254Z" fill="#E4E7EF"/>
<path d="M22.8232 21.344L19.3584 19.1369L22.8224 16.9298L26.2872 19.1369L22.8232 21.344Z" fill="#EDF1F9"/>
<path d="M22.1992 23.242L19.9824 21.8295V20.5936L22.1992 22.0061V23.242Z" fill="#593F3F"/>
<path d="M26.2872 28.3183L22.8232 30.5254V21.3449L26.2872 19.1378V28.3183Z" fill="#DADCE5"/>
<path d="M24.2785 22.7133L23.4473 23.2429V22.007L24.2785 21.4773V22.7133Z" fill="#593F3F"/>
<path d="M25.6632 21.8304L24.832 22.3601V21.1241L25.6632 20.5945V21.8304Z" fill="#593F3F"/>
<path d="M24.2785 24.5672L23.4473 25.0969V23.8609L24.2785 23.3312V24.5672Z" fill="#593F3F"/>
<path d="M25.6632 23.6844L24.832 24.214V22.9781L25.6632 22.4484V23.6844Z" fill="#593F3F"/>
<path d="M24.2785 26.4202L23.4473 26.9499V25.714L24.2785 25.1843V26.4202Z" fill="#593F3F"/>
<path d="M25.6632 25.5374L24.832 26.0671V24.8311L25.6632 24.3015V25.5374Z" fill="#593F3F"/>
<path d="M24.2785 28.3625L23.4473 28.8921V27.6562L24.2785 27.1265V28.3625Z" fill="#593F3F"/>
<path d="M25.6632 27.4796L24.832 28.0093V26.7733L25.6632 26.2437V27.4796Z" fill="#593F3F"/>
<path d="M22.1992 25.096L19.9824 23.6835V22.4475L22.1992 23.86V25.096Z" fill="#593F3F"/>
<path d="M22.1992 26.9499L19.9824 25.5374V24.3015L22.1992 25.714V26.9499Z" fill="#593F3F"/>
<path d="M22.1992 28.8921L19.9824 27.4796V26.2437L22.1992 27.6562V28.8921Z" fill="#593F3F"/>
<path d="M22.8234 20.3737L20.8242 19.1007V18.7061L22.8234 19.98V20.3737Z" fill="#E4E7EF"/>
<path d="M22.8232 20.3737L24.8224 19.1007V18.7061L22.8232 19.98V20.3737Z" fill="#DADCE5"/>
<path d="M18.9343 29.7653H18.5439V31.2802C18.5456 31.2992 18.5518 31.3174 18.5619 31.3329C18.572 31.3485 18.5857 31.3607 18.6015 31.3685C18.6443 31.3924 18.6916 31.4049 18.7395 31.4049C18.7875 31.4049 18.8348 31.3924 18.8775 31.3685C18.8932 31.3605 18.9067 31.3482 18.9166 31.3327C18.9266 31.3172 18.9327 31.2991 18.9343 31.2802V29.7653Z" fill="#443D31"/>
<path d="M18.7488 29.7882C19.3139 29.7882 19.772 29.2827 19.772 28.6591C19.772 28.0355 19.3139 27.5299 18.7488 27.5299C18.1837 27.5299 17.7256 28.0355 17.7256 28.6591C17.7256 29.2827 18.1837 29.7882 18.7488 29.7882Z" fill="#593F3F" fill-opacity="0.84"/>
<path d="M16.5662 31.2767H16.1758V32.7916C16.1773 32.8107 16.1834 32.829 16.1935 32.8445C16.2037 32.8601 16.2174 32.8723 16.2334 32.8799C16.2761 32.9038 16.3234 32.9163 16.3714 32.9163C16.4193 32.9163 16.4666 32.9038 16.5094 32.8799C16.5251 32.8721 16.5387 32.8598 16.5487 32.8443C16.5587 32.8288 16.5647 32.8106 16.5662 32.7916V31.2767Z" fill="#443D31"/>
<path d="M16.3806 31.2996C16.9457 31.2996 17.4038 30.7941 17.4038 30.1705C17.4038 29.5469 16.9457 29.0414 16.3806 29.0414C15.8155 29.0414 15.3574 29.5469 15.3574 30.1705C15.3574 30.7941 15.8155 31.2996 16.3806 31.2996Z" fill="#593F3F" fill-opacity="0.84"/>
<path d="M14.032 32.8931H13.6416V34.4072C13.6432 34.4261 13.6492 34.4443 13.6592 34.4598C13.6692 34.4753 13.6827 34.4876 13.6984 34.4955C13.7413 34.5194 13.7887 34.5319 13.8368 34.5319C13.8849 34.5319 13.9323 34.5194 13.9752 34.4955C13.9909 34.4876 14.0044 34.4753 14.0144 34.4598C14.0244 34.4443 14.0304 34.4261 14.032 34.4072V32.8931Z" fill="#443D31"/>
<path d="M13.8464 32.9161C14.4115 32.9161 14.8696 32.4105 14.8696 31.7869C14.8696 31.1633 14.4115 30.6578 13.8464 30.6578C13.2813 30.6578 12.8232 31.1633 12.8232 31.7869C12.8232 32.4105 13.2813 32.9161 13.8464 32.9161Z" fill="#593F3F" fill-opacity="0.84"/>
<path d="M28.2842 0.320363C27.7418 -0.0248219 27.2442 -0.0813228 26.8698 0.104071C26.8114 0.132857 26.7557 0.16774 26.7034 0.208244L25.9434 0.682322C25.9434 0.682322 26.0882 0.791793 26.2522 0.910974C26.1811 1.15873 26.1462 1.41741 26.149 1.67727C26.15 1.9445 26.1768 2.21084 26.229 2.47181L26.009 2.49035C26.009 2.51507 26.357 4.53939 26.397 4.62061C26.437 4.70183 27.0882 5.56612 27.105 5.55906C27.1442 5.49553 27.18 5.4295 27.2122 5.3613C27.4754 6.00842 27.733 6.59726 27.9322 7.0272L27.2682 7.36444L27.5082 8.26404L28.3666 7.72287C28.3713 7.72076 28.3759 7.71809 28.3802 7.71492C28.681 7.46067 29.7042 6.54164 30.2386 5.39309C30.3708 5.08351 30.4347 4.74375 30.425 4.40167C30.4194 2.90087 29.4618 1.07077 28.2842 0.320363ZM28.2842 4.45376C27.673 4.06443 27.1754 3.11363 27.1754 2.33497C27.1754 1.68433 27.5226 1.35768 27.9922 1.49364L27.8994 1.53955C27.9618 1.62077 28.9842 3.60006 29.0298 3.81459C29.0833 3.99344 29.1645 4.1607 29.2698 4.30898C29.0898 4.65063 28.7194 4.7292 28.2842 4.45376Z" fill="#DB4949"/>
<path d="M27.4274 0.860643C26.2506 0.11024 25.293 0.721156 25.293 2.22108C25.2968 2.6392 25.3597 3.05411 25.4794 3.45086C26.013 5.27919 27.0394 7.50391 27.3378 8.14043C27.358 8.18553 27.389 8.22369 27.4274 8.25079C27.4403 8.26151 27.4558 8.26767 27.4719 8.26845C27.4881 8.26924 27.5041 8.26462 27.5178 8.2552C27.8186 8.00095 28.8426 7.08192 29.3762 5.93337C29.5082 5.62433 29.572 5.28521 29.5626 4.94372C29.5626 3.44291 28.605 1.61105 27.4274 0.860643ZM27.4274 4.99492C26.8162 4.60471 26.3186 3.65391 26.3186 2.87614C26.3186 2.09837 26.8162 1.78055 27.4274 2.16988C28.0386 2.5592 28.537 3.51001 28.537 4.28866C28.537 5.06731 28.0394 5.38513 27.4274 4.99492Z" fill="#E88C40"/>
<path opacity="0.1" d="M27.776 10.9522C28.3853 10.9522 28.8793 10.6376 28.8793 10.2495C28.8793 9.86138 28.3853 9.54675 27.776 9.54675C27.1668 9.54675 26.6729 9.86138 26.6729 10.2495C26.6729 10.6376 27.1668 10.9522 27.776 10.9522Z" fill="black"/>
</g>
<defs>
<clipPath id="clip0_21_802">
<rect width="40" height="40" fill="white"/>
</clipPath>
</defs>
</svg>
