<svg width="21" height="21" viewBox="0 0 21 21" fill="none" xmlns="http://www.w3.org/2000/svg">
<path d="M17.6295 2.00806H15.6214V1.00403C15.6214 0.737746 15.5156 0.482367 15.3273 0.294074C15.139 0.105782 14.8836 0 14.6174 0C14.3511 0 14.0957 0.105782 13.9074 0.294074C13.7191 0.482367 13.6133 0.737746 13.6133 1.00403V2.00806H7.58914V1.00403C7.58914 0.737746 7.48335 0.482367 7.29506 0.294074C7.10677 0.105782 6.85139 0 6.5851 0C6.31882 0 6.06344 0.105782 5.87515 0.294074C5.68685 0.482367 5.58107 0.737746 5.58107 1.00403V2.00806H3.57301C2.77415 2.00806 2.00801 2.32541 1.44314 2.89029C0.878258 3.45516 0.560913 4.2213 0.560913 5.02016V17.0685C0.560913 17.8674 0.878258 18.6335 1.44314 19.1984C2.00801 19.7633 2.77415 20.0806 3.57301 20.0806H17.6295C18.4283 20.0806 19.1944 19.7633 19.7593 19.1984C20.3242 18.6335 20.6415 17.8674 20.6415 17.0685V5.02016C20.6415 4.2213 20.3242 3.45516 19.7593 2.89029C19.1944 2.32541 18.4283 2.00806 17.6295 2.00806V2.00806ZM18.6335 17.0685C18.6335 17.3348 18.5277 17.5902 18.3394 17.7785C18.1511 17.9668 17.8957 18.0726 17.6295 18.0726H3.57301C3.30672 18.0726 3.05134 17.9668 2.86305 17.7785C2.67476 17.5902 2.56898 17.3348 2.56898 17.0685V10.0403H18.6335V17.0685ZM18.6335 8.03225H2.56898V5.02016C2.56898 4.75387 2.67476 4.49849 2.86305 4.3102C3.05134 4.12191 3.30672 4.01613 3.57301 4.01613H5.58107V5.02016C5.58107 5.28644 5.68685 5.54182 5.87515 5.73012C6.06344 5.91841 6.31882 6.02419 6.5851 6.02419C6.85139 6.02419 7.10677 5.91841 7.29506 5.73012C7.48335 5.54182 7.58914 5.28644 7.58914 5.02016V4.01613H13.6133V5.02016C13.6133 5.28644 13.7191 5.54182 13.9074 5.73012C14.0957 5.91841 14.3511 6.02419 14.6174 6.02419C14.8836 6.02419 15.139 5.91841 15.3273 5.73012C15.5156 5.54182 15.6214 5.28644 15.6214 5.02016V4.01613H17.6295C17.8957 4.01613 18.1511 4.12191 18.3394 4.3102C18.5277 4.49849 18.6335 4.75387 18.6335 5.02016V8.03225Z" fill="white"/>
</svg>
