<svg width="19" height="18" viewBox="0 0 19 18" fill="none" xmlns="http://www.w3.org/2000/svg">
<path d="M0 0.961548H18V12.9615H0V0.961548ZM9 3.96155C9.79565 3.96155 10.5587 4.27762 11.1213 4.84023C11.6839 5.40284 12 6.1659 12 6.96155C12 7.7572 11.6839 8.52026 11.1213 9.08287C10.5587 9.64548 9.79565 9.96155 9 9.96155C8.20435 9.96155 7.44129 9.64548 6.87868 9.08287C6.31607 8.52026 6 7.7572 6 6.96155C6 6.1659 6.31607 5.40284 6.87868 4.84023C7.44129 4.27762 8.20435 3.96155 9 3.96155M4 2.96155C4 3.49198 3.78929 4.00069 3.41421 4.37576C3.03914 4.75083 2.53043 4.96155 2 4.96155V8.96155C2.53043 8.96155 3.03914 9.17226 3.41421 9.54733C3.78929 9.92241 4 10.4311 4 10.9615H14C14 10.4311 14.2107 9.92241 14.5858 9.54733C14.9609 9.17226 15.4696 8.96155 16 8.96155V4.96155C15.4696 4.96155 14.9609 4.75083 14.5858 4.37576C14.2107 4.00069 14 3.49198 14 2.96155H4ZM1 5.96155H3V15.9615H19V17.9615H1V5.96155Z" fill="white"/>
</svg>
