<svg width="40" height="40" viewBox="0 0 40 40" fill="none" xmlns="http://www.w3.org/2000/svg">
<path opacity="0.4" d="M12.4821 39.7303L4.43367 35.0205C3.7523 34.6203 3.83757 33.9249 4.62473 33.4639L24.0661 22.0884C24.8557 21.6274 26.0439 21.5778 26.7253 21.9763L34.7738 26.6861C35.4551 27.0863 35.3699 27.7825 34.5827 28.2427L15.1413 39.619C14.3541 40.0792 13.1635 40.1296 12.4821 39.7303Z" fill="#D6D8E5"/>
<path d="M13.5012 39.1108L5.45352 34.4011C4.77136 34.0009 4.85742 33.3046 5.64458 32.8445L25.0852 21.4665C25.8747 21.0064 27.059 20.9559 27.7451 21.3553L35.7928 26.0651C36.4742 26.4652 36.3889 27.1607 35.6018 27.6217L16.1611 38.9988C15.374 39.4598 14.1834 39.5094 13.5012 39.1108Z" fill="#B1B4C4"/>
<path d="M4.99316 33.7144V32.9637L5.86244 33.2958L4.99316 33.7144Z" fill="#B1B4C4"/>
<path d="M36.2533 26.7149V25.9931L35.5625 26.4444L36.2533 26.7149Z" fill="#B1B4C4"/>
<path d="M13.5012 38.4746L5.45352 33.7648C4.77136 33.3647 4.85742 32.6692 5.64458 32.2082L25.0852 20.8311C25.8747 20.3701 27.059 20.3205 27.7451 20.7191L35.7928 25.4289C36.4742 25.829 36.3889 26.5253 35.6018 26.9854L16.1611 38.3634C15.374 38.8235 14.1834 38.874 13.5012 38.4746Z" fill="#616E84"/>
<path d="M6.42492 34.7301C6.46608 34.7061 6.46605 34.6279 6.42484 34.5555C6.38364 34.4832 6.31686 34.4441 6.2757 34.4682C6.23454 34.4923 6.23458 34.5704 6.27578 34.6428C6.31699 34.7151 6.38376 34.7542 6.42492 34.7301Z" fill="#757B89"/>
<path d="M6.81262 34.9571C6.85378 34.933 6.85374 34.8548 6.81254 34.7825C6.77133 34.7102 6.70456 34.671 6.6634 34.6951C6.62223 34.7192 6.62227 34.7974 6.66348 34.8697C6.70468 34.9421 6.77146 34.9812 6.81262 34.9571Z" fill="#757B89"/>
<path d="M7.19934 35.1832C7.2405 35.1592 7.24046 35.081 7.19925 35.0086C7.15805 34.9363 7.09128 34.8972 7.05011 34.9213C7.00895 34.9453 7.00899 35.0235 7.0502 35.0959C7.0914 35.1682 7.15817 35.2073 7.19934 35.1832Z" fill="#757B89"/>
<path d="M7.58703 35.4105C7.62819 35.3864 7.62816 35.3082 7.58695 35.2359C7.54574 35.1636 7.47897 35.1244 7.43781 35.1485C7.39665 35.1726 7.39669 35.2508 7.43789 35.3231C7.4791 35.3955 7.54587 35.4346 7.58703 35.4105Z" fill="#757B89"/>
<path d="M10.9132 37.3566C10.9544 37.3325 10.9543 37.2543 10.9131 37.182C10.8719 37.1096 10.8051 37.0705 10.764 37.0946C10.7228 37.1187 10.7229 37.1969 10.7641 37.2692C10.8053 37.3416 10.872 37.3807 10.9132 37.3566Z" fill="#757B89"/>
<path d="M11.2999 37.5839C11.3411 37.5599 11.341 37.4817 11.2998 37.4093C11.2586 37.337 11.1919 37.2979 11.1507 37.322C11.1095 37.346 11.1096 37.4242 11.1508 37.4966C11.192 37.5689 11.2588 37.608 11.2999 37.5839Z" fill="#757B89"/>
<path d="M11.6876 37.8101C11.7288 37.786 11.7287 37.7078 11.6875 37.6355C11.6463 37.5631 11.5796 37.524 11.5384 37.5481C11.4972 37.5722 11.4973 37.6504 11.5385 37.7227C11.5797 37.795 11.6465 37.8342 11.6876 37.8101Z" fill="#757B89"/>
<path d="M12.0753 38.0369C12.1165 38.0129 12.1164 37.9347 12.0752 37.8623C12.034 37.79 11.9673 37.7509 11.9261 37.775C11.8849 37.799 11.885 37.8772 11.9262 37.9496C11.9674 38.0219 12.0342 38.061 12.0753 38.0369Z" fill="#757B89"/>
<path d="M9.71127 36.7283L8.64777 36.1049C8.61044 36.0781 8.57989 36.0428 8.55862 36.0018C8.53735 35.9607 8.52596 35.9152 8.52539 35.8688C8.52539 35.7776 8.57987 35.736 8.64777 35.7752L9.71127 36.3986C9.7486 36.4254 9.77914 36.4607 9.80041 36.5018C9.82168 36.5428 9.83307 36.5884 9.83364 36.6347C9.8297 36.7259 9.77522 36.7676 9.71127 36.7283Z" fill="#757B89"/>
<path d="M33.8176 28.5036L32.8276 29.083C32.7652 29.119 32.7139 29.083 32.7139 28.9958C32.7146 28.9527 32.7253 28.9103 32.745 28.8721C32.7647 28.8339 32.793 28.8009 32.8276 28.7757L33.8176 28.1971C33.88 28.1603 33.9305 28.1971 33.9305 28.2835C33.93 28.3266 33.9194 28.3689 33.8998 28.4071C33.8802 28.4454 33.8521 28.4784 33.8176 28.5036Z" fill="#757B89"/>
<path d="M32.302 29.3903L31.3119 29.9698C31.2496 30.0066 31.1982 29.9698 31.1982 29.8825C31.1991 29.8395 31.2098 29.7974 31.2295 29.7593C31.2493 29.7212 31.2775 29.6883 31.3119 29.6633L32.302 29.0838C32.3644 29.047 32.4149 29.0838 32.4149 29.1711C32.4144 29.214 32.4039 29.2563 32.3843 29.2944C32.3647 29.3325 32.3365 29.3653 32.302 29.3903Z" fill="#757B89"/>
<path d="M13.5012 38.3594L5.45352 33.6496C4.77136 33.2494 4.85742 32.554 5.64458 32.093L25.0852 20.7159C25.8747 20.2549 27.059 20.2045 27.7451 20.6038L35.7928 25.3136C36.4742 25.7138 36.3889 26.4092 35.6018 26.8702L16.1611 38.2473C15.374 38.7083 14.1834 38.7579 13.5012 38.3594Z" fill="#20232D"/>
<path d="M34.929 25.5017L31.7866 23.661L31.7795 23.6658C31.4077 23.8827 30.806 23.8827 30.4373 23.6658C30.0686 23.4489 30.0662 23.096 30.4373 22.8791L30.4452 22.8743L27.3029 21.0336C26.8292 20.7543 26.0523 20.7543 25.5746 21.0336L6.63849 32.1178C6.16477 32.3971 6.16477 32.8501 6.63849 33.1294L14.2661 37.5935C14.7438 37.8728 15.5176 37.8728 15.9944 37.5935L34.929 26.5125C35.4058 26.2332 35.4058 25.781 34.929 25.5017Z" fill="white"/>
<path opacity="0.5" d="M34.9296 26.5125L15.9951 37.5935C15.564 37.8456 14.8898 37.8704 14.4113 37.6655C14.362 37.6446 14.314 37.6205 14.2676 37.5935L6.63917 33.1326C6.53337 33.0738 6.44191 32.9918 6.37152 32.8925C6.19151 32.634 6.28072 32.3267 6.63917 32.117L25.5729 21.0368C26.0506 20.7583 26.8235 20.7583 27.3012 21.0368L30.4435 22.8775H30.4356C30.0646 23.0944 30.0646 23.4465 30.4356 23.6642C30.8067 23.8819 31.4091 23.8811 31.7778 23.6642L31.7857 23.6594L34.9281 25.5001C35.4065 25.781 35.4065 26.2332 34.9296 26.5125Z" fill="url(#paint0_linear_21_552)"/>
<path d="M30.9009 23.6058C31.1001 23.6058 31.2617 23.5112 31.2617 23.3945C31.2617 23.2778 31.1001 23.1832 30.9009 23.1832C30.7016 23.1832 30.54 23.2778 30.54 23.3945C30.54 23.5112 30.7016 23.6058 30.9009 23.6058Z" fill="#2B303F"/>
<path opacity="0.1" d="M30.7922 23.4569C30.7795 23.4523 30.7686 23.4438 30.7609 23.4326C30.7532 23.4214 30.749 23.4081 30.749 23.3945C30.749 23.3809 30.7532 23.3676 30.7609 23.3564C30.7686 23.3452 30.7795 23.3367 30.7922 23.3321C30.8253 23.3151 30.862 23.3062 30.8991 23.3062C30.9363 23.3062 30.973 23.3151 31.0061 23.3321C31.0191 23.3363 31.0305 23.3447 31.0385 23.3559C31.0466 23.3671 31.0509 23.3806 31.0509 23.3945C31.0509 23.4084 31.0466 23.4219 31.0385 23.4331C31.0305 23.4443 31.0191 23.4526 31.0061 23.4569C30.973 23.4739 30.9363 23.4828 30.8991 23.4828C30.862 23.4828 30.8253 23.4739 30.7922 23.4569Z" fill="white"/>
<path d="M32.1942 24.9175L32.0576 24.8374L32.2858 24.7038L32.4224 24.7838L32.1942 24.9175Z" fill="#E9EAF2"/>
<path d="M32.3758 25.0239L32.2393 24.9439L32.5582 24.7574L32.6948 24.8374L32.3758 25.0239Z" fill="#E9EAF2"/>
<path d="M32.5585 25.1303L32.4219 25.0503L32.8774 24.7838L33.014 24.8638L32.5585 25.1303Z" fill="#E9EAF2"/>
<path d="M32.7411 25.2376L32.6045 25.1576L33.2424 24.7838L33.379 24.8638L32.7411 25.2376Z" fill="#E9EAF2"/>
<path d="M33.3335 25.5841L33.1211 25.4593L33.5467 25.2104L33.759 25.3352L33.3335 25.5841Z" fill="#E9EAF2"/>
<path d="M33.6175 25.7498L33.4043 25.6257L33.8299 25.3768L34.0422 25.5009L33.6175 25.7498Z" fill="#E9EAF2"/>
<path d="M33.9007 25.9155L33.6875 25.7914L34.1131 25.5425L34.3254 25.6666L33.9007 25.9155Z" fill="#E9EAF2"/>
<path d="M25.0005 23.4713L24.0222 22.8983C23.8864 22.8183 23.9038 22.6814 24.0601 22.5902L24.9626 22.062C25.0426 22.0165 25.132 21.9908 25.2236 21.9869C25.3153 21.983 25.4065 22.001 25.49 22.0396L26.4682 22.6118C26.6032 22.6918 26.5866 22.8295 26.4303 22.9207L25.5279 23.4489C25.4478 23.4942 25.3584 23.5198 25.2668 23.5237C25.1752 23.5275 25.084 23.5096 25.0005 23.4713Z" fill="#E9EAF2"/>
<path d="M31.6547 27.3656L25.9299 24.0155C25.7948 23.9355 25.8122 23.7978 25.9678 23.7066L26.871 23.1784C26.9509 23.1331 27.0402 23.1075 27.1317 23.1036C27.2231 23.0997 27.3142 23.1176 27.3976 23.156L33.1225 26.5061C33.2575 26.5861 33.2409 26.7237 33.0846 26.815L32.1822 27.3432C32.102 27.3882 32.0126 27.4137 31.9211 27.4176C31.8295 27.4215 31.7383 27.4037 31.6547 27.3656Z" fill="#E9EAF2"/>
<path d="M23.0187 24.631L22.0405 24.058C21.9055 23.9779 21.922 23.8411 22.0784 23.7498L22.9808 23.2216C23.0608 23.1761 23.1502 23.1504 23.2419 23.1465C23.3335 23.1426 23.4248 23.1607 23.5082 23.1992L24.4864 23.769C24.6215 23.8491 24.6049 23.9867 24.4485 24.078L23.5461 24.6062C23.4662 24.6518 23.3769 24.6778 23.2853 24.6821C23.1937 24.6864 23.1024 24.6689 23.0187 24.631Z" fill="#E9EAF2"/>
<path d="M29.6728 28.5252L23.9487 25.1752C23.8137 25.0951 23.8302 24.9575 23.9866 24.8662L24.889 24.338C24.9691 24.2928 25.0585 24.2672 25.1501 24.2633C25.2417 24.2594 25.3329 24.2773 25.4164 24.3156L31.1405 27.6657C31.2755 27.7457 31.2589 27.8834 31.1026 27.9746L30.2002 28.5028C30.1201 28.5479 30.0307 28.5734 29.9391 28.5773C29.8475 28.5812 29.7563 28.5633 29.6728 28.5252Z" fill="#E9EAF2"/>
<g opacity="0.6">
<path d="M21.038 25.7906L20.059 25.2176C19.924 25.1376 19.9406 25.0007 20.0969 24.9095L21.0002 24.3813C21.08 24.3358 21.1693 24.31 21.2608 24.3062C21.3523 24.3023 21.4434 24.3203 21.5268 24.3589L22.5058 24.9311C22.6408 25.0111 22.6234 25.1488 22.4679 25.24L21.5647 25.7698C21.4846 25.8148 21.3953 25.8402 21.3038 25.8438C21.2123 25.8474 21.1213 25.8292 21.038 25.7906Z" fill="#E9EAF2"/>
<path d="M27.6921 29.6849L21.9672 26.3348C21.8322 26.2548 21.8488 26.1171 22.0051 26.0259L22.9076 25.4977C22.9876 25.4524 23.077 25.4268 23.1686 25.4229C23.2602 25.4191 23.3514 25.437 23.435 25.4753L29.1599 28.8253C29.2949 28.9054 29.2775 29.043 29.122 29.1343L28.2187 29.6625C28.1387 29.7075 28.0495 29.733 27.958 29.7369C27.8666 29.7408 27.7756 29.723 27.6921 29.6849Z" fill="#E9EAF2"/>
</g>
<path d="M19.0561 26.9502L18.0802 26.3772C17.9452 26.2972 17.9626 26.1603 18.1181 26.0691L19.0214 25.5401C19.1013 25.4949 19.1907 25.4694 19.2821 25.4657C19.3736 25.4619 19.4647 25.48 19.548 25.5185L20.5278 26.0899C20.6628 26.1699 20.6462 26.3076 20.4899 26.3988L19.5804 26.9278C19.5007 26.9727 19.4119 26.9982 19.3209 27.0021C19.2298 27.0059 19.1392 26.9882 19.0561 26.9502Z" fill="#E9EAF2"/>
<path d="M25.7104 30.8445L19.9855 27.4945C19.8505 27.4144 19.8679 27.2768 20.0234 27.1855L20.9266 26.6573C21.0065 26.612 21.0958 26.5864 21.1873 26.5825C21.2788 26.5786 21.3699 26.5966 21.4533 26.6349L27.1781 29.985C27.3132 30.065 27.2958 30.2027 27.1402 30.2939L26.237 30.8221C26.157 30.8672 26.0678 30.8927 25.9763 30.8966C25.8849 30.9005 25.7938 30.8826 25.7104 30.8445Z" fill="#E9EAF2"/>
<path d="M17.0744 28.1099L16.0961 27.5369C15.9611 27.4568 15.9777 27.32 16.134 27.2288L17.0365 26.6998C17.1166 26.6546 17.206 26.6291 17.2976 26.6253C17.3892 26.6216 17.4804 26.6397 17.5639 26.6781L18.5421 27.2504C18.6771 27.3304 18.6605 27.468 18.5042 27.5593L17.6018 28.0907C17.5215 28.1354 17.4319 28.1605 17.3403 28.1638C17.2487 28.1671 17.1576 28.1487 17.0744 28.1099Z" fill="#E9EAF2"/>
<path d="M23.7284 32.0041L18.0011 28.6509C17.8661 28.5708 17.8835 28.4332 18.039 28.342L18.9423 27.8138C19.0223 27.7684 19.1117 27.7428 19.2033 27.7389C19.2949 27.735 19.3862 27.753 19.4697 27.7913L25.1938 31.1414C25.3288 31.2214 25.3122 31.3591 25.1559 31.4503L24.2534 31.9785C24.1739 32.0237 24.085 32.0496 23.9939 32.054C23.9028 32.0584 23.8119 32.0414 23.7284 32.0041Z" fill="#E9EAF2"/>
<g opacity="0.6">
<path d="M15.0929 29.2695L14.1147 28.6965C13.9797 28.6165 13.9963 28.4796 14.1526 28.3884L15.055 27.8594C15.1351 27.8142 15.2246 27.7887 15.3162 27.785C15.4078 27.7812 15.499 27.7993 15.5824 27.8378L16.5607 28.4108C16.6965 28.4908 16.6791 28.6285 16.5228 28.7197L15.6203 29.2479C15.5402 29.293 15.4507 29.3185 15.3592 29.3223C15.2676 29.326 15.1764 29.3079 15.0929 29.2695Z" fill="#E9EAF2"/>
<path d="M21.747 33.1638L16.0229 29.8137C15.8879 29.7337 15.9045 29.5961 16.0608 29.5048L16.9632 28.9766C17.0433 28.9314 17.1327 28.9058 17.2243 28.9019C17.3159 28.898 17.4071 28.9159 17.4906 28.9542L23.2124 32.3043C23.3474 32.3843 23.3308 32.522 23.1745 32.6132L22.272 33.1414C22.1922 33.1861 22.1032 33.2114 22.0121 33.2153C21.921 33.2191 21.8302 33.2015 21.747 33.1638Z" fill="#E9EAF2"/>
</g>
<path d="M13.112 30.4292L12.133 29.8561C11.998 29.7761 12.0153 29.6393 12.1709 29.548L13.0741 29.019C13.1541 28.9739 13.2434 28.9484 13.3349 28.9446C13.4263 28.9409 13.5174 28.9589 13.6007 28.9974L14.5797 29.5696C14.7147 29.6497 14.6974 29.7873 14.5418 29.8785L13.6386 30.4067C13.5587 30.452 13.4694 30.4777 13.3779 30.4816C13.2865 30.4855 13.1954 30.4675 13.112 30.4292Z" fill="#E9EAF2"/>
<path d="M19.7663 34.3234L14.0415 30.9718C13.9064 30.8917 13.923 30.7541 14.0793 30.6628L14.9818 30.1346C15.0619 30.0894 15.1513 30.0638 15.2429 30.0599C15.3345 30.056 15.4257 30.0739 15.5092 30.1122L21.2341 33.4623C21.3691 33.5423 21.3517 33.68 21.1962 33.7712L20.2914 34.301C20.2116 34.3458 20.1226 34.3712 20.0315 34.3751C19.9403 34.379 19.8496 34.3613 19.7663 34.3234Z" fill="#E9EAF2"/>
<g opacity="0.6">
<path d="M11.1325 31.5888L10.1535 31.0158C10.0185 30.9358 10.0359 30.7989 10.1914 30.7077L11.0946 30.1787C11.1747 30.1335 11.2642 30.108 11.3558 30.1042C11.4474 30.1005 11.5386 30.1186 11.622 30.1571L12.5979 30.7317C12.7329 30.8117 12.7163 30.9494 12.56 31.0406L11.6568 31.5688C11.577 31.6133 11.488 31.6383 11.397 31.6418C11.3059 31.6453 11.2154 31.6271 11.1325 31.5888Z" fill="#E9EAF2"/>
<path d="M17.7846 35.4831L12.0597 32.133C11.9247 32.053 11.9421 31.9153 12.0976 31.8241L13.0009 31.2959C13.0808 31.2506 13.1701 31.225 13.2615 31.2211C13.353 31.2172 13.4441 31.2351 13.5275 31.2735L19.2524 34.6236C19.3874 34.7036 19.3708 34.8412 19.2145 34.9325L18.3112 35.4607C18.2313 35.5057 18.142 35.5312 18.0506 35.5351C17.9591 35.539 17.8681 35.5212 17.7846 35.4831Z" fill="#E9EAF2"/>
</g>
<g opacity="0.6">
<path d="M9.14859 32.7484L8.17036 32.1722C8.03535 32.0922 8.05193 31.9553 8.20826 31.8641L9.11069 31.3351C9.1908 31.2899 9.28025 31.2644 9.37186 31.2607C9.46346 31.2569 9.55465 31.275 9.6381 31.3135L10.6163 31.8857C10.7513 31.9657 10.7348 32.1034 10.5784 32.1946L9.67599 32.7228C9.59618 32.7686 9.50689 32.7947 9.41529 32.7992C9.3237 32.8036 9.23235 32.7863 9.14859 32.7484Z" fill="#E9EAF2"/>
<path d="M15.8031 36.6427L10.079 33.2926C9.94316 33.2126 9.96053 33.0758 10.1161 32.9845L11.0193 32.4563C11.0993 32.411 11.1888 32.3854 11.2804 32.3815C11.372 32.3776 11.4632 32.3956 11.5467 32.4339L17.2708 35.784C17.4058 35.864 17.3892 36.0017 17.2329 36.0929L16.3305 36.6211C16.2503 36.6661 16.1608 36.6914 16.0693 36.6952C15.9777 36.6989 15.8866 36.681 15.8031 36.6427Z" fill="#E9EAF2"/>
</g>
<path d="M5.6586 14.8104V18.7639C5.65851 18.7913 5.6537 18.8183 5.64438 18.844C5.6393 18.8603 5.63269 18.8761 5.62465 18.8912C5.60104 18.9392 5.56502 18.9799 5.52043 19.0088L0.270048 22.082C0.255294 22.0935 0.237482 22.1003 0.218907 22.1014C0.200332 22.1025 0.181845 22.098 0.16583 22.0884C0.156718 22.0815 0.149402 22.0724 0.144512 22.062C0.135673 22.043 0.131346 22.0222 0.13188 22.0012V18.0477C0.131965 18.0205 0.136227 17.9935 0.144512 17.9676C0.150198 17.9506 0.157057 17.9341 0.16504 17.918C0.189189 17.8701 0.225418 17.8295 0.270048 17.8004L5.51885 14.7256C5.53384 14.7142 5.55189 14.7076 5.57062 14.7068C5.58936 14.7059 5.60791 14.7108 5.62386 14.7208C5.63256 14.7278 5.6398 14.7365 5.64517 14.7464C5.65469 14.7663 5.6593 14.7883 5.6586 14.8104Z" fill="#E88C40"/>
<path d="M0.175781 22.0916L0.377901 22.2044L0.390534 21.8411L0.175781 22.0916Z" fill="#DDB545"/>
<path d="M5.60973 14.716L5.82764 14.8368L5.52051 15.2098L5.60973 14.716Z" fill="#DDB545"/>
<path d="M5.86252 14.9241V18.8776C5.86203 18.9048 5.85723 18.9319 5.84831 18.9576C5.84288 18.9738 5.83628 18.9896 5.82857 19.0048C5.80496 19.0529 5.76894 19.0935 5.72435 19.1225L0.473971 22.194C0.459055 22.2053 0.44116 22.2118 0.422587 22.2126C0.404014 22.2135 0.385614 22.2087 0.369753 22.1988C0.360838 22.192 0.353551 22.1833 0.348435 22.1732C0.339025 22.1544 0.334411 22.1335 0.335013 22.1124V18.1589C0.334973 18.1316 0.339512 18.1046 0.348435 18.0789C0.370983 18.0113 0.415167 17.9532 0.473971 17.914L5.72277 14.8424C5.73765 14.8312 5.75549 14.8246 5.77404 14.8236C5.79259 14.8226 5.81102 14.8272 5.82699 14.8368C5.8361 14.8438 5.84342 14.8528 5.84831 14.8632C5.85799 14.882 5.86288 14.9029 5.86252 14.9241Z" fill="#DC853D"/>
<path opacity="0.12" d="M0.357857 22.2132L3.09832 18.5022L5.83404 18.992V19.3842L0.334961 22.6022L0.357857 22.2132Z" fill="black"/>
<path opacity="0.05" d="M3.09812 18.5022L0.363184 18.0445L0.111324 17.9628L0 22.4717L0.3695 22.1988L3.09812 18.5022Z" fill="black"/>
<path opacity="0.05" d="M3.09766 18.5022L5.83338 14.8424L6.08524 14.4671L6.19656 18.8448L5.83338 18.992L3.09766 18.5022Z" fill="black"/>
<path d="M39.3701 4.98028V9.60924C39.3694 9.64088 39.3638 9.67221 39.3535 9.70208C39.3469 9.7209 39.3393 9.73933 39.3306 9.7573C39.3029 9.81359 39.2606 9.86118 39.2082 9.89495L33.0602 13.4963C33.0426 13.5094 33.0216 13.5169 32.9998 13.5179C32.978 13.5189 32.9565 13.5133 32.9378 13.5019C32.9272 13.4939 32.9185 13.4835 32.9125 13.4715C32.902 13.4493 32.8968 13.4249 32.8975 13.4003V8.76732C32.8979 8.73677 32.9032 8.70649 32.9133 8.67769C32.9197 8.65788 32.9276 8.63862 32.937 8.62007C32.9648 8.56335 33.0074 8.51546 33.0602 8.48161L39.2067 4.88185C39.2241 4.86846 39.2451 4.86069 39.2669 4.85955C39.2887 4.85841 39.3104 4.86395 39.329 4.87544C39.3399 4.88326 39.3485 4.89372 39.3543 4.90585C39.3654 4.92902 39.3708 4.95455 39.3701 4.98028Z" fill="#E88C40"/>
<path d="M32.9492 13.5059L33.1861 13.638L33.2011 13.2122L32.9492 13.5059Z" fill="#DDB545"/>
<path d="M39.3122 4.86826L39.568 5.01071L39.208 5.44688L39.3122 4.86826Z" fill="#E88C40"/>
<path d="M39.6084 5.11314V9.74209C39.6077 9.77373 39.6021 9.80506 39.5918 9.83493C39.5852 9.85375 39.5775 9.87219 39.5689 9.89015C39.5407 9.94613 39.4985 9.99361 39.4465 10.0278L33.2984 13.6292C33.2809 13.6423 33.2599 13.6499 33.2381 13.6509C33.2163 13.6519 33.1947 13.6463 33.1761 13.6348C33.1653 13.627 33.1566 13.6165 33.1508 13.6044C33.1402 13.5822 33.1351 13.5578 33.1358 13.5331V8.90017C33.1362 8.86962 33.1415 8.83934 33.1516 8.81054C33.1577 8.79061 33.1656 8.77131 33.1753 8.75292C33.2031 8.69621 33.2457 8.64831 33.2984 8.61447L39.4449 5.0171C39.4625 5.00375 39.4836 4.99601 39.5056 4.99487C39.5275 4.99373 39.5493 4.99924 39.5681 5.0107C39.5787 5.01875 39.5874 5.02915 39.5934 5.04111C39.6038 5.06361 39.609 5.08827 39.6084 5.11314Z" fill="#DC853D"/>
<path opacity="0.12" d="M33.161 13.6476L36.372 9.30194L39.5752 9.87576V10.3351L33.1357 14.1038L33.161 13.6476Z" fill="black"/>
<path opacity="0.05" d="M36.3718 9.30194L33.1687 8.76654L32.8742 8.6705L32.7432 13.9509L33.1758 13.6316L36.3718 9.30194Z" fill="black"/>
<path opacity="0.05" d="M36.3721 9.30193L39.5752 5.0171L39.8697 4.57693L40 9.70368L39.5752 9.87575L36.3721 9.30193Z" fill="black"/>
<path d="M25.9394 3.58375C25.9302 3.56094 25.9149 3.54123 25.8951 3.52693C25.8556 3.50601 25.8129 3.49169 25.7688 3.48451L19.1012 1.54218L12.4336 11.2891C12.387 11.3416 12.3472 11.4 12.3152 11.4627C12.2948 11.5021 12.2777 11.543 12.2639 11.5852C12.2434 11.6469 12.2325 11.7114 12.2315 11.7765V21.6082C12.2304 21.6607 12.2412 21.7127 12.2631 21.7603C12.2759 21.7855 12.2943 21.8074 12.3168 21.8243C12.3562 21.8488 12.4019 21.8608 12.4481 21.8587C12.4943 21.8565 12.5388 21.8404 12.5758 21.8123L25.6275 14.1742C25.7722 14.0758 25.8807 13.9318 25.9362 13.7644C25.9585 13.7009 25.9703 13.6341 25.9709 13.5667V3.73501C25.9721 3.68279 25.9613 3.631 25.9394 3.58375Z" fill="#E88C40"/>
<path d="M25.8765 3.51575L26.2863 3.76224L25.7139 4.188L25.8765 3.51575Z" fill="#CEB95F"/>
<path d="M12.7356 22.0764L12.3164 21.8203L12.963 21.3481L12.7356 22.0764Z" fill="#E88C40"/>
<path d="M19.1016 1.54218L19.5019 1.78627L26.2871 3.76142L25.95 3.55894C25.8197 3.50143 25.685 3.45485 25.5473 3.41969L19.1016 1.54218Z" fill="#C19B3D"/>
<path d="M26.3708 3.97912V13.8069C26.3697 13.8739 26.358 13.9404 26.336 14.0037C26.3224 14.0439 26.3058 14.083 26.2863 14.1206C26.2277 14.2402 26.1382 14.3414 26.0273 14.4135L12.9772 22.0516C12.9402 22.08 12.8956 22.0964 12.8493 22.0987C12.8029 22.1009 12.757 22.089 12.7174 22.0644C12.6952 22.0471 12.6771 22.025 12.6645 21.9996C12.6423 21.9524 12.6315 21.9006 12.6329 21.8483V12.0198C12.6339 11.9547 12.6448 11.8902 12.6653 11.8285C12.6792 11.7864 12.6964 11.7455 12.7166 11.7061C12.7757 11.5858 12.866 11.4842 12.978 11.4123L26.025 3.77584L25.8023 3.9311C25.9065 3.87108 26.2239 3.71422 26.2871 3.76224C26.3094 3.77948 26.3275 3.80165 26.34 3.82706C26.3621 3.87453 26.3726 3.92667 26.3708 3.97912Z" fill="#E88C40"/>
<path opacity="0.12" d="M12.7171 22.0644L19.5015 12.8729L26.3026 14.091V15.0657L12.6318 23.0656L12.7171 22.0644Z" fill="black"/>
<path opacity="0.05" d="M19.5015 12.8729L12.7013 11.7357L12.0767 11.5324L11.7988 22.7414L12.7171 22.0644L19.5015 12.8729Z" fill="black"/>
<path opacity="0.05" d="M19.4873 12.8601L26.2875 3.76382L26.9121 2.82986L27.19 13.7132L26.2875 14.0781L19.4873 12.8601Z" fill="black"/>
<path d="M12.7158 11.7061L19.5018 1.78629L26.2871 3.76224L19.5018 12.8729L12.7158 11.7061Z" fill="#F59443"/>
<path opacity="0.3" d="M26.2871 3.76224L24.7514 5.82462L19.5018 12.8729L14.253 11.9702L12.7158 11.7061L14.253 9.4588L18.0349 3.9303L19.5018 1.78629L20.9688 2.21365L24.7514 3.31567L26.2871 3.76224Z" fill="black"/>
<path d="M24.7513 0V5.82461L19.5017 12.8729L14.2529 11.9701V6.14393L24.7513 0Z" fill="#FAFBFF"/>
<path d="M17.7438 8.70331L15.1533 10.2191V7.18754L17.7438 5.67096V8.70331Z" fill="#E9EAF2"/>
<path d="M20.7975 6.91623L18.207 8.43281V5.40046L20.7975 3.88388V6.91623Z" fill="#E9EAF2"/>
<path d="M23.85 5.12995L21.2588 6.64652V3.61417L23.85 2.0976V5.12995Z" fill="#E9EAF2"/>
<path d="M23.85 6.38883L15.1533 11.478V10.9506L23.85 5.86063V6.38883Z" fill="#E9EAF2"/>
<path d="M22.5542 7.75574V8.28394L15.8353 12.2158L15.1523 12.1454V12.0878L22.5542 7.75574Z" fill="#E9EAF2"/>
<path d="M21.2585 9.57004V10.0982L17.2974 12.4159L16.4795 12.3671L21.2585 9.57004Z" fill="#E9EAF2"/>
<path d="M20.5777 11.1058V11.4284L20.3061 11.7925L18.6931 12.7369L17.9912 12.62L20.5777 11.1058Z" fill="#E9EAF2"/>
<defs>
<linearGradient id="paint0_linear_21_552" x1="20.7844" y1="37.8032" x2="20.7844" y2="20.8279" gradientUnits="userSpaceOnUse">
<stop offset="0.21" stop-color="white" stop-opacity="0"/>
<stop offset="1" stop-color="white" stop-opacity="0.2"/>
</linearGradient>
</defs>
</svg>
