<svg width="22" height="21" viewBox="0 0 22 21" fill="none" xmlns="http://www.w3.org/2000/svg">
<path d="M14.6532 6.38393e-06C14.0924 0.0041798 13.5603 0.340282 13.3322 0.890987L13.3265 0.90223C10.7301 0.537046 8.14913 2.13481 7.14309 4.55609C7.14309 4.55609 4.38835 11.2047 1.83936 11.1162C1.81202 11.1219 1.79269 11.1433 1.76347 11.1499C1.65252 11.1809 1.54642 11.2308 1.45149 11.2961C1.41264 11.3221 1.37303 11.3368 1.33906 11.3663C1.20969 11.4732 1.10783 11.6087 1.04113 11.7626C0.812049 12.3157 1.07402 12.945 1.62575 13.1736L15.5863 18.9551C16.1394 19.1842 16.7654 18.9264 16.9945 18.3733C17.0562 18.2173 17.0806 18.0485 17.0647 17.8815C17.0619 17.8365 17.045 17.7961 17.0366 17.7522C17.0153 17.6386 16.9757 17.5294 16.9186 17.4289C16.9039 17.4042 16.9071 17.3742 16.8905 17.3502C15.1917 15.7672 17.2404 10.3414 17.6353 9.34265C16.9666 9.35497 16.3021 9.23398 15.6806 8.98673C15.0592 8.73949 14.4932 8.37094 14.0157 7.9026C13.5382 7.43427 13.1588 6.87552 12.8995 6.25896C12.6403 5.64241 12.5065 4.9804 12.5058 4.31157C12.5065 3.45814 12.7241 2.61889 13.138 1.87259C13.552 1.12629 14.1488 0.497405 14.8724 0.044977C14.7987 0.0339971 14.7265 -0.000538876 14.6532 6.38393e-06V6.38393e-06ZM8.35448 17.5189C8.31821 18.9032 9.27726 20.1497 10.6817 20.4167C11.6792 20.6056 12.6477 20.2504 13.2984 19.565L8.35448 17.5189Z" fill="white"/>
<path d="M21.1402 4.31152C21.1402 5.26567 20.7611 6.18075 20.0865 6.85544C19.4118 7.53013 18.4967 7.90917 17.5425 7.90917C16.5884 7.90917 15.6733 7.53013 14.9986 6.85544C14.3239 6.18075 13.9449 5.26567 13.9449 4.31152C13.9449 3.35736 14.3239 2.44228 14.9986 1.76759C15.6733 1.0929 16.5884 0.713867 17.5425 0.713867C18.4967 0.713867 19.4118 1.0929 20.0865 1.76759C20.7611 2.44228 21.1402 3.35736 21.1402 4.31152V4.31152Z" fill="#D33636"/>
</svg>
