<svg width="24" height="26" viewBox="0 0 24 26" fill="none" xmlns="http://www.w3.org/2000/svg">
<path fill-rule="evenodd" clip-rule="evenodd" d="M16.3094 4.02267V6.84336L18.1175 5.0533V1.72633L17.2134 0.822266H0.94023L0.0361627 1.72633V2.60509L0 2.6304V21.2361L0.650928 22.0679L9.6916 25.1778L10.8488 24.328V22.5199H17.2134L18.1175 21.6158V18.3431L16.3094 16.535V20.7118H10.8488V5.72231L10.2521 4.89057L3.68136 2.6304H16.3094V4.02267ZM9.04068 23.0262L1.80814 20.6033V3.93226L9.04068 6.35516V23.0262V23.0262ZM20.8297 12.539H11.8433V10.7308H20.7574L17.8644 7.83783L19.1482 6.57214L23.6142 11.0201V12.3039L19.112 16.7881L17.8463 15.5224L20.8297 12.539V12.539Z" fill="white"/>
</svg>
