<svg width="40" height="40" viewBox="0 0 40 40" fill="none" xmlns="http://www.w3.org/2000/svg">
<g clip-path="url(#clip0_21_1095)">
<path opacity="0.2" d="M21.8302 40L0.251465 29.1112L12.3138 23.1016L33.8926 33.9904L21.8302 40Z" fill="#D6D8E5"/>
<path d="M18.5646 30.328C18.2438 30.5568 17.7693 30.3472 17.7419 30.3688C17.4146 30.6552 16.9191 30.9824 16.5535 31.232C16.3533 31.3704 16.0406 31.552 16.0964 31.82C16.1979 32.2936 17.0645 32.148 17.3918 32.0032C17.719 31.8584 17.9851 31.6176 18.295 31.4496C18.5153 31.3296 18.7328 31.2672 18.7667 31.0232C18.795 30.88 18.6213 30.32 18.5646 30.328Z" fill="#E88C40"/>
<path d="M18.7707 30.9248C18.7277 31.1584 18.5138 31.2232 18.2944 31.3424C17.9799 31.5128 17.7029 31.76 17.3802 31.9024C17.0777 32.036 16.3244 32.1688 16.1123 31.8304C16.2275 32.2872 17.0786 32.144 17.4031 32.0008C17.7276 31.8576 17.9964 31.6152 18.3063 31.4472C18.5266 31.3272 18.7442 31.2648 18.778 31.0208C18.7797 30.9887 18.7772 30.9565 18.7707 30.9248Z" fill="#593F3F"/>
<path d="M15.3058 28.6856C14.9849 28.9144 14.4227 28.664 14.3989 28.6856C14.0642 28.9812 13.7105 29.2598 13.3394 29.52C13.1392 29.6576 12.8275 29.84 12.8823 30.1072C12.9829 30.5808 13.8495 30.4352 14.1768 30.2904C14.5041 30.1456 14.771 29.9048 15.08 29.7368C15.3012 29.6168 15.5179 29.5544 15.5526 29.3112C15.5746 29.1656 15.3634 28.6792 15.3058 28.6856Z" fill="#E88C40"/>
<path d="M15.5409 29.248C15.4989 29.4816 15.2841 29.5464 15.0656 29.6656C14.7511 29.836 14.4741 30.0832 14.1468 30.2256C13.8452 30.3592 13.091 30.492 12.8789 30.1536C12.995 30.6104 13.8461 30.4672 14.1697 30.324C14.4933 30.1808 14.7639 29.9384 15.0729 29.7704C15.2941 29.6504 15.5108 29.588 15.5455 29.344C15.5476 29.312 15.546 29.2798 15.5409 29.248V29.248Z" fill="#9C73FF"/>
<path d="M22.8604 21.3168C23.216 23.2632 22.2278 23.9896 20.9407 24.404C20.0192 24.7008 18.6973 25.1584 18.6973 25.1584C18.6973 25.1584 18.7156 25.5856 18.7256 26.5448C18.7348 27.3888 18.6077 30.4712 18.6077 30.4712C18.6077 30.4712 18.0757 30.7112 17.6241 30.4616C17.6241 30.4616 17.1067 28.1 16.9961 27.0352C16.847 25.5912 16.5938 24.6456 16.6788 24.3352C16.7529 24.0616 18.5565 23.2848 19.1288 22.8696L15.3497 23.9776C15.4249 24.3365 15.4616 24.7007 15.4593 25.0656C15.4246 26.2112 15.3524 28.692 15.3524 28.692C15.3524 28.692 14.8341 29.0192 14.3916 28.6984C14.3916 28.6984 13.4409 23.7872 13.5561 23.1368C13.6658 22.52 16.9961 21.2592 17.5829 20.8248C17.6853 20.7519 17.8041 20.6988 17.9315 20.6687C18.0589 20.6387 18.1921 20.6324 18.3225 20.6504L22.8604 21.3168Z" fill="#593F3F"/>
<path d="M21.4131 14.3032L23.6117 15.2448C23.6117 15.2448 24.8056 15.6168 24.471 17.3824C24.2278 18.6624 23.9024 21.2288 23.9024 21.2288L19.7686 20.8624L21.4131 14.3032Z" fill="#2B303F"/>
<path d="M21.545 13.9888C21.545 13.9888 21.4902 14.916 21.514 14.9984C21.5377 15.0808 22.0003 15.352 22.1347 15.4496C22.2691 15.5472 21.4034 16.2952 20.981 16.4648C20.5587 16.6344 19.2231 16.1872 19.1993 15.6136C19.1755 15.04 19.4279 14.5568 19.6335 14.5312C19.8392 14.5056 21.545 13.9888 21.545 13.9888Z" fill="#FFCEA9"/>
<path d="M17.6971 16.1296L16.9356 17.24L15.9209 18.24L16.6824 18.684L17.6971 17.9064C17.6971 17.9064 19.3033 16.24 19.1972 16.1296C19.0912 16.0192 17.6971 16.1296 17.6971 16.1296Z" fill="#FFCEA9"/>
<path d="M21.6656 15.1584C21.6656 15.1584 20.8968 16.16 19.8245 16.2544C19.4862 15.9632 19.4588 14.9248 19.9232 14.5928C19.9232 14.5928 19.4935 14.2896 19.1992 14.348C18.883 14.516 18.6477 14.7791 18.5373 15.088C18.2642 15.7773 18.1359 16.5043 18.1589 17.2336C18.1771 18.2176 18.1589 20.704 18.1589 20.704C18.1589 20.704 18.3188 21.6544 19.2888 22.1272C20.0616 22.5091 20.9717 22.619 21.8338 22.4344C22.3768 22.324 22.5797 22.0576 22.7662 21.7144C22.7178 21.0248 22.406 19.6056 22.5377 18.7392C22.6693 17.8728 22.8778 17.2248 22.9317 16.524C22.9856 15.8232 22.8266 15.8376 22.4252 15.5872C22.1843 15.4283 21.9304 15.285 21.6656 15.1584Z" fill="#F4F4F4"/>
<path d="M21.1812 38.8888C21.4614 38.8888 21.6885 38.7738 21.6885 38.632C21.6885 38.4902 21.4614 38.3752 21.1812 38.3752C20.901 38.3752 20.6738 38.4902 20.6738 38.632C20.6738 38.7738 20.901 38.8888 21.1812 38.8888Z" fill="#2B303F"/>
<path d="M21.6895 29.892H20.6738V38.6056H21.6895V29.892Z" fill="#2B303F"/>
<path d="M2.48734 29.1312C2.76755 29.1312 2.9947 29.0162 2.9947 28.8744C2.9947 28.7326 2.76755 28.6176 2.48734 28.6176C2.20713 28.6176 1.97998 28.7326 1.97998 28.8744C1.97998 29.0162 2.20713 29.1312 2.48734 29.1312Z" fill="#2B303F"/>
<path d="M2.99561 20.1336H1.97998V28.8472H2.99561V20.1336Z" fill="#2B303F"/>
<path d="M31.6319 33.724C31.9121 33.724 32.1392 33.609 32.1392 33.4672C32.1392 33.3254 31.9121 33.2104 31.6319 33.2104C31.3517 33.2104 31.1245 33.3254 31.1245 33.4672C31.1245 33.609 31.3517 33.724 31.6319 33.724Z" fill="#2B303F"/>
<path d="M32.1401 25.3936H31.1245V33.4408H32.1401V25.3936Z" fill="#2B303F"/>
<path d="M32.8861 26.32L11.1063 15.3184L0.800938 20.5248L0.252441 20.2472V20.8L22.5799 32.0848L33.4346 26.6008V26.0456L32.8861 26.32Z" fill="#D3C4A9"/>
<path d="M22.5817 31.5296L0.251465 20.2472L11.1062 14.7632L33.4364 26.0456L22.5817 31.5296Z" fill="#EFE3CA"/>
<path d="M20.4305 23.1472C20.6188 23.0672 20.7559 22.9424 21.032 22.8448C21.2267 22.792 21.4036 22.6983 21.5476 22.572C21.7359 22.412 22.0449 21.7992 22.2652 21.204C22.5257 20.5008 22.5705 19.5456 22.5248 19.1336C22.4334 18.2984 22.0869 17.1288 22.0001 16.648C21.9132 16.1672 22.0915 15.976 22.3456 15.7984C22.6455 15.5904 23.0596 15.6824 23.2817 16.3584C23.5668 17.2909 23.7321 18.2483 23.7744 19.2128C23.7837 19.9283 23.658 20.6403 23.4024 21.32C23.1711 21.952 22.8694 22.4064 22.4837 22.9776C22.3776 23.1328 22.3438 23.2712 22.1829 23.588C22.022 23.9048 21.7478 24.24 21.4826 24.4072C21.2175 24.5744 21.0859 24.6 21.0256 24.5672C20.946 24.5264 20.9625 24.4512 21.0749 24.3616C21.2664 24.2312 21.4293 24.0716 21.5558 23.8904C21.5558 23.8904 21.3199 24.0976 21.1663 24.2104C21.0297 24.3111 20.8785 24.3956 20.7166 24.4616C20.5584 24.5224 20.3399 24.4056 20.4515 24.3128C20.563 24.22 20.6773 24.1744 20.9022 24.004C21.0219 23.9144 21.129 23.8126 21.2212 23.7008C21.0635 23.8062 20.8966 23.9006 20.7221 23.9832C20.4771 24.0928 20.35 24.0944 20.265 24.0912C20.18 24.088 20.0822 23.9864 20.2366 23.8872C20.3765 23.7984 20.5959 23.7384 20.8327 23.532C21.0045 23.3824 21.1024 23.2552 21.0539 23.2528C21.0055 23.2504 20.9113 23.344 20.7093 23.4C20.5072 23.456 20.2915 23.4048 20.2659 23.308C20.2403 23.2112 20.2421 23.2288 20.4305 23.1472Z" fill="#FFCEA9"/>
<path d="M19.1469 12.6072C19.2731 11.8872 19.8655 11.3416 20.7138 11.3832C21.0548 11.3989 21.3815 11.5079 21.6479 11.6948C21.9144 11.8816 22.1071 12.137 22.1989 12.4248C22.2906 12.7126 22.2769 13.0183 22.1595 13.2989C22.0422 13.5796 21.8272 13.8208 21.5448 13.9888C21.5151 14.0978 21.4709 14.2033 21.4131 14.3032C21.1133 14.6104 20.2064 14.8 19.9459 14.7672C19.6113 14.7256 19.4294 14.6032 19.2703 14.2832C18.9888 13.7184 19.0774 12.96 19.1469 12.6072Z" fill="#FFCEA9"/>
<path d="M21.5452 13.9888L21.4675 13.3608C21.4675 13.3608 22.0534 12.0328 20.6685 12.288C19.7543 12.456 19.5249 12.528 19.2461 11.992C18.9672 11.456 19.9491 10.9728 21.1146 11.1064C21.5158 11.1432 21.8866 11.3106 22.1534 11.5754C22.4203 11.8402 22.5637 12.183 22.5553 12.536C22.5252 12.9312 22.4045 13.7304 21.5452 13.9888Z" fill="#3A2C6D"/>
<path d="M23.9153 17.5928C23.9153 17.5928 23.1593 18.2504 22.2652 18.0608C22.1372 17.9848 21.8301 16.4472 21.8301 16.4472C21.8301 16.4472 21.8301 15.5952 22.5769 15.6176C23.3238 15.64 23.9153 17.5928 23.9153 17.5928Z" fill="#EDEDED"/>
<path d="M12.0156 21.352L15.0168 19.84C15.043 19.8266 15.0729 19.8196 15.1032 19.8196C15.1335 19.8196 15.1634 19.8266 15.1896 19.84L20.4542 22.5L17.3689 24.056L12.0156 21.352Z" fill="#F4F4F4"/>
<path d="M17.507 23.4984L17.7356 23.6136C17.7538 23.6232 17.752 23.64 17.7301 23.6504L17.5116 23.76C17.5004 23.7651 17.4881 23.7678 17.4755 23.7678C17.4629 23.7678 17.4505 23.7651 17.4394 23.76L17.2099 23.6448C17.1916 23.6352 17.1944 23.6192 17.2154 23.608L17.4339 23.4976C17.4453 23.4928 17.4579 23.4903 17.4706 23.4905C17.4832 23.4906 17.4957 23.4933 17.507 23.4984Z" fill="#2B303F"/>
<path d="M17.1862 23.3344L17.4157 23.4504C17.4339 23.46 17.4321 23.476 17.4102 23.4872L17.1862 23.6C17.1748 23.6049 17.1623 23.6075 17.1496 23.6075C17.137 23.6075 17.1244 23.6049 17.1131 23.6L16.8845 23.484C16.8663 23.4752 16.8681 23.4584 16.89 23.4472L17.1085 23.3376C17.1201 23.3314 17.1333 23.3279 17.1469 23.3273C17.1605 23.3268 17.174 23.3292 17.1862 23.3344V23.3344Z" fill="#2B303F"/>
<path d="M16.8552 23.1688L17.0838 23.2848C17.103 23.2944 17.1002 23.3104 17.0838 23.3216L16.8653 23.432C16.8539 23.4369 16.8414 23.4395 16.8287 23.4395C16.816 23.4395 16.8035 23.4369 16.7922 23.432L16.5636 23.3168C16.5444 23.3072 16.5472 23.2904 16.5691 23.28L16.7867 23.1696C16.7974 23.1652 16.809 23.1629 16.8209 23.1627C16.8327 23.1626 16.8444 23.1647 16.8552 23.1688V23.1688Z" fill="#2B303F"/>
<path d="M16.5352 23.0072L16.7637 23.1232C16.7829 23.1328 16.7802 23.1488 16.7582 23.16L16.5407 23.2704C16.5293 23.2753 16.5168 23.2778 16.5041 23.2778C16.4914 23.2778 16.4789 23.2753 16.4675 23.2704L16.239 23.1544C16.2198 23.1456 16.2225 23.1288 16.2436 23.1176L16.4621 23.008C16.4733 23.0028 16.4858 23 16.4985 22.9999C16.5112 22.9997 16.5238 23.0022 16.5352 23.0072V23.0072Z" fill="#2B303F"/>
<path d="M16.2116 22.844L16.4401 22.9592C16.4584 22.9688 16.4566 22.9856 16.4347 22.996L16.2162 23.1064C16.205 23.1115 16.1926 23.1142 16.1801 23.1142C16.1675 23.1142 16.1551 23.1115 16.144 23.1064L15.9145 22.9912C15.8962 22.9816 15.899 22.9648 15.92 22.9544L16.1385 22.844C16.1498 22.8389 16.1623 22.8362 16.175 22.8362C16.1878 22.8362 16.2003 22.8389 16.2116 22.844V22.844Z" fill="#2B303F"/>
<path d="M15.8873 22.68L16.1167 22.8C16.135 22.8088 16.1323 22.8256 16.1112 22.8368L15.8928 22.9472C15.8814 22.9521 15.8689 22.9547 15.8562 22.9547C15.8435 22.9547 15.831 22.9521 15.8196 22.9472L15.5911 22.8312C15.5728 22.8224 15.5746 22.8056 15.5966 22.7944L15.815 22.684C15.8259 22.6784 15.8381 22.6752 15.8506 22.6745C15.8632 22.6738 15.8757 22.6757 15.8873 22.68Z" fill="#2B303F"/>
<path d="M15.5634 22.5168L15.792 22.632C15.8112 22.6416 15.8084 22.6576 15.7874 22.6688L15.5689 22.7792C15.5576 22.7843 15.5451 22.787 15.5323 22.787C15.5196 22.787 15.5071 22.7843 15.4958 22.7792L15.2672 22.664C15.248 22.6544 15.2508 22.6376 15.2727 22.6272L15.4903 22.5168C15.5016 22.5117 15.5141 22.509 15.5269 22.509C15.5396 22.509 15.5521 22.5117 15.5634 22.5168V22.5168Z" fill="#2B303F"/>
<path d="M15.2398 22.3528L15.4683 22.4688C15.4866 22.4776 15.4848 22.4944 15.4628 22.5056L15.2453 22.6152C15.2339 22.6202 15.2214 22.6229 15.2087 22.6229C15.196 22.6229 15.1834 22.6202 15.1721 22.6152L14.9436 22.4992C14.9244 22.4896 14.9271 22.4736 14.9482 22.4624L15.1666 22.352C15.1781 22.3472 15.1906 22.3447 15.2033 22.3449C15.216 22.345 15.2285 22.3477 15.2398 22.3528Z" fill="#2B303F"/>
<path d="M14.9162 22.1896L15.1447 22.3048C15.163 22.3144 15.1612 22.3304 15.1393 22.3416L14.9208 22.452C14.9096 22.4571 14.8972 22.4598 14.8847 22.4598C14.8721 22.4598 14.8597 22.4571 14.8485 22.452L14.6191 22.3368C14.6008 22.3272 14.6036 22.3104 14.6246 22.3L14.8431 22.1896C14.8544 22.1845 14.8669 22.1818 14.8796 22.1818C14.8924 22.1818 14.9049 22.1845 14.9162 22.1896V22.1896Z" fill="#2B303F"/>
<path d="M14.5919 22.0256L14.8213 22.1416C14.8396 22.1504 14.8369 22.1672 14.8158 22.1776L14.5973 22.288C14.586 22.2929 14.5734 22.2954 14.5608 22.2954C14.5481 22.2954 14.5356 22.2929 14.5242 22.288L14.2957 22.172C14.2774 22.1624 14.2792 22.1464 14.3012 22.1352L14.5196 22.0248C14.5309 22.02 14.5433 22.0176 14.5559 22.0177C14.5684 22.0178 14.5807 22.0205 14.5919 22.0256V22.0256Z" fill="#2B303F"/>
<path d="M14.268 21.8616L14.4966 21.9776C14.5157 21.9872 14.513 22.0032 14.492 22.0144L14.2735 22.1248C14.2621 22.1297 14.2496 22.1323 14.2369 22.1323C14.2242 22.1323 14.2117 22.1297 14.2004 22.1248L13.9718 22.0096C13.9526 22 13.9554 21.9832 13.9773 21.9728L14.1949 21.8624C14.2062 21.8574 14.2187 21.8547 14.2313 21.8546C14.244 21.8545 14.2566 21.8568 14.268 21.8616V21.8616Z" fill="#2B303F"/>
<path d="M13.9443 21.6984L14.1729 21.8136C14.1912 21.8232 14.1893 21.84 14.1674 21.8504L13.9489 21.9608C13.9377 21.9657 13.9253 21.9682 13.9128 21.9682C13.9003 21.9682 13.8879 21.9657 13.8767 21.9608L13.6482 21.8448C13.629 21.8352 13.6317 21.8192 13.6482 21.808L13.8666 21.6976C13.8787 21.6921 13.892 21.6893 13.9056 21.6895C13.9192 21.6896 13.9325 21.6927 13.9443 21.6984Z" fill="#2B303F"/>
<path d="M13.6207 21.5344L13.8501 21.6504C13.8684 21.66 13.8666 21.676 13.8446 21.6872L13.6262 21.7976C13.6149 21.8025 13.6026 21.8051 13.59 21.8051C13.5775 21.8051 13.5651 21.8025 13.5539 21.7976L13.3245 21.6824C13.3062 21.6728 13.308 21.656 13.33 21.6456L13.5484 21.5352C13.5596 21.5302 13.5719 21.5275 13.5844 21.5274C13.597 21.5272 13.6094 21.5296 13.6207 21.5344Z" fill="#2B303F"/>
<path d="M13.1408 21.292L13.5248 21.4864C13.5439 21.496 13.5412 21.5128 13.5248 21.5232L13.3063 21.6336C13.2949 21.6385 13.2824 21.641 13.2697 21.641C13.257 21.641 13.2445 21.6385 13.2331 21.6336L12.8437 21.44C12.8254 21.4304 12.8282 21.4136 12.8492 21.4032L13.0677 21.2928C13.079 21.2878 13.0915 21.2851 13.1041 21.285C13.1168 21.2848 13.1294 21.2872 13.1408 21.292V21.292Z" fill="#2B303F"/>
<path d="M17.3405 23.0968L17.5691 23.2128C17.5873 23.2216 17.5855 23.2384 17.5636 23.2496L17.3451 23.36C17.3339 23.3649 17.3215 23.3675 17.309 23.3675C17.2964 23.3675 17.2841 23.3649 17.2729 23.36L17.0434 23.244C17.0251 23.2352 17.0279 23.2184 17.0489 23.2072L17.2674 23.0968C17.2787 23.0919 17.2913 23.0893 17.3039 23.0893C17.3166 23.0893 17.3291 23.0919 17.3405 23.0968V23.0968Z" fill="#2B303F"/>
<path d="M17.0163 22.9328L17.2448 23.0488C17.2631 23.0584 17.2613 23.0744 17.2393 23.0856L17.0209 23.2C17.0097 23.2049 16.9973 23.2075 16.9848 23.2075C16.9722 23.2075 16.9598 23.2049 16.9486 23.2L16.7192 23.084C16.7009 23.0752 16.7036 23.0584 16.7247 23.0472L16.9432 22.9376C16.9541 22.932 16.9664 22.9286 16.9791 22.9278C16.9918 22.9269 17.0045 22.9286 17.0163 22.9328V22.9328Z" fill="#2B303F"/>
<path d="M16.6914 22.7688L16.92 22.8848C16.9383 22.8944 16.9364 22.9104 16.9145 22.9216L16.6969 23.032C16.6855 23.0369 16.673 23.0394 16.6604 23.0394C16.6477 23.0394 16.6352 23.0369 16.6238 23.032L16.3952 22.9168C16.376 22.9072 16.3788 22.8904 16.3998 22.88L16.6183 22.7696C16.6296 22.7646 16.6421 22.7619 16.6548 22.7618C16.6674 22.7616 16.68 22.764 16.6914 22.7688Z" fill="#2B303F"/>
<path d="M16.3633 22.6056L16.5918 22.7208C16.611 22.7304 16.6083 22.7464 16.5863 22.7576L16.3688 22.868C16.3574 22.8729 16.3449 22.8754 16.3322 22.8754C16.3195 22.8754 16.307 22.8729 16.2956 22.868L16.0671 22.7528C16.0479 22.7432 16.0506 22.7264 16.0671 22.716L16.2856 22.6056C16.2975 22.5998 16.3108 22.5967 16.3244 22.5967C16.338 22.5967 16.3514 22.5998 16.3633 22.6056V22.6056Z" fill="#2B303F"/>
<path d="M16.0453 22.4424L16.272 22.56C16.2912 22.5696 16.2885 22.5856 16.2665 22.5968L16.049 22.7072C16.0376 22.7121 16.0251 22.7146 16.0124 22.7146C15.9997 22.7146 15.9872 22.7121 15.9758 22.7072L15.7473 22.5912C15.7281 22.5824 15.7308 22.5656 15.7519 22.5544L15.9704 22.4448C15.9817 22.4391 15.9944 22.4359 16.0075 22.4355C16.0206 22.4351 16.0335 22.4374 16.0453 22.4424V22.4424Z" fill="#2B303F"/>
<path d="M15.7232 22.2784L15.9517 22.3944C15.9709 22.404 15.9682 22.42 15.9472 22.4312L15.7232 22.5416C15.7118 22.5465 15.6993 22.549 15.6866 22.549C15.674 22.549 15.6615 22.5465 15.6501 22.5416L15.4215 22.4264C15.4023 22.4168 15.4051 22.4 15.427 22.3896L15.6446 22.2792C15.6566 22.2734 15.6701 22.2703 15.6838 22.2701C15.6975 22.27 15.711 22.2728 15.7232 22.2784V22.2784Z" fill="#2B303F"/>
<path d="M15.3964 22.1152L15.6249 22.2304C15.6441 22.24 15.6414 22.256 15.6249 22.2672L15.4064 22.3776C15.3951 22.3825 15.3825 22.3851 15.3699 22.3851C15.3572 22.3851 15.3447 22.3825 15.3333 22.3776L15.1048 22.2624C15.0865 22.2528 15.0883 22.236 15.1102 22.2256L15.3278 22.1152C15.3385 22.1107 15.3502 22.1084 15.3621 22.1084C15.374 22.1084 15.3857 22.1107 15.3964 22.1152V22.1152Z" fill="#2B303F"/>
<path d="M15.0718 21.9512L15.3013 22.0664C15.3196 22.076 15.3168 22.092 15.2958 22.1032L15.0773 22.2136C15.066 22.2187 15.0535 22.2214 15.0408 22.2214C15.028 22.2214 15.0155 22.2187 15.0042 22.2136L14.7756 22.0984C14.7574 22.0888 14.7592 22.072 14.7811 22.0616L14.9996 21.9512C15.0108 21.9461 15.0231 21.9434 15.0357 21.9434C15.0483 21.9434 15.0607 21.9461 15.0718 21.9512V21.9512Z" fill="#2B303F"/>
<path d="M14.7471 21.7872L14.9766 21.9024C14.9949 21.912 14.9921 21.9288 14.9711 21.9392L14.7526 22.0496C14.7413 22.0547 14.7288 22.0574 14.716 22.0574C14.7033 22.0574 14.6908 22.0547 14.6795 22.0496L14.4509 21.9344C14.4327 21.9248 14.4345 21.9088 14.4564 21.8976L14.6749 21.7872C14.6861 21.7821 14.6984 21.7794 14.711 21.7794C14.7236 21.7794 14.736 21.7821 14.7471 21.7872V21.7872Z" fill="#2B303F"/>
<path d="M14.4233 21.6232L14.6519 21.7384C14.6702 21.748 14.6683 21.7648 14.6464 21.7752L14.4279 21.8856C14.4168 21.8907 14.4044 21.8934 14.3918 21.8934C14.3792 21.8934 14.3668 21.8907 14.3557 21.8856L14.1262 21.7704C14.108 21.7608 14.1098 21.7448 14.1317 21.7336L14.3502 21.6232C14.3616 21.6183 14.3741 21.6157 14.3868 21.6157C14.3995 21.6157 14.412 21.6183 14.4233 21.6232V21.6232Z" fill="#2B303F"/>
<path d="M14.0989 21.4592L14.3275 21.5744C14.3458 21.584 14.3439 21.6008 14.322 21.6112L14.1035 21.7216C14.0923 21.7265 14.0799 21.729 14.0674 21.729C14.0549 21.729 14.0425 21.7265 14.0313 21.7216L13.8037 21.6088C13.7854 21.5992 13.7881 21.5832 13.8091 21.572L14.0276 21.4616C14.0385 21.4565 14.0506 21.4537 14.063 21.4533C14.0753 21.4529 14.0876 21.4549 14.0989 21.4592V21.4592Z" fill="#2B303F"/>
<path d="M13.7744 21.2952L14.003 21.4112C14.0213 21.42 14.0194 21.4368 13.9975 21.448L13.779 21.5576C13.7679 21.5627 13.7555 21.5653 13.7429 21.5653C13.7303 21.5653 13.718 21.5627 13.7068 21.5576L13.4783 21.4416C13.4591 21.432 13.4618 21.416 13.4828 21.4048L13.7013 21.2944C13.7127 21.2896 13.7253 21.2872 13.738 21.2873C13.7507 21.2874 13.7631 21.2901 13.7744 21.2952V21.2952Z" fill="#2B303F"/>
<path d="M17.6642 23.2608L18.049 23.4552C18.0682 23.4648 18.0655 23.4808 18.0445 23.492L17.826 23.6C17.8147 23.6051 17.8022 23.6078 17.7894 23.6078C17.7767 23.6078 17.7642 23.6051 17.7529 23.6L17.3689 23.4104C17.3506 23.4008 17.3525 23.3848 17.3744 23.3736L17.5929 23.2632C17.6038 23.258 17.6158 23.2551 17.6282 23.2547C17.6406 23.2543 17.6529 23.2564 17.6642 23.2608V23.2608Z" fill="#2B303F"/>
<path d="M13.1565 21.28L13.385 21.396C13.3956 21.4005 13.4071 21.4029 13.4189 21.4029C13.4306 21.4029 13.4421 21.4005 13.4527 21.396L13.684 21.2792C13.6879 21.2779 13.6914 21.2755 13.6938 21.2724C13.6962 21.2694 13.6975 21.2657 13.6975 21.262C13.6975 21.2583 13.6962 21.2546 13.6938 21.2515C13.6914 21.2485 13.6879 21.2461 13.684 21.2448L13.6657 21.2352C13.6483 21.2272 13.6483 21.2128 13.6657 21.204L13.9098 21.0808C13.929 21.0712 13.929 21.056 13.9098 21.0464L13.7644 20.9728C13.7539 20.9681 13.7423 20.9656 13.7306 20.9656C13.7188 20.9656 13.7072 20.9681 13.6968 20.9728L13.4682 21.088L13.4216 21.112L13.3869 21.1296L13.353 21.1464L13.1565 21.2456C13.1373 21.2568 13.1373 21.272 13.1565 21.28Z" fill="#2B303F"/>
<path d="M18.7612 22.8632L18.9898 22.9792C19.0081 22.988 19.0062 23.0048 18.9843 23.016L18.7658 23.1256C18.7546 23.1305 18.7422 23.133 18.7297 23.133C18.7172 23.133 18.7048 23.1305 18.6936 23.1256L18.465 23.0096C18.4459 23 18.4486 22.984 18.465 22.9728L18.6835 22.8624C18.6956 22.8569 18.7089 22.8541 18.7225 22.8543C18.7361 22.8544 18.7494 22.8575 18.7612 22.8632V22.8632Z" fill="#2B303F"/>
<path d="M18.4376 22.7L18.667 22.816C18.6853 22.8248 18.6835 22.8416 18.6615 22.8528L18.443 22.96C18.4319 22.965 18.4195 22.9677 18.4069 22.9677C18.3944 22.9677 18.382 22.965 18.3708 22.96L18.1414 22.844C18.1231 22.8344 18.1249 22.8184 18.1469 22.8072L18.3653 22.6968C18.3768 22.6924 18.3893 22.6903 18.4019 22.6909C18.4144 22.6914 18.4266 22.6946 18.4376 22.7V22.7Z" fill="#2B303F"/>
<path d="M18.1148 22.5368L18.3433 22.6528C18.3625 22.6616 18.3598 22.6784 18.3433 22.6896L18.1203 22.8C18.109 22.805 18.0964 22.8077 18.0837 22.8077C18.071 22.8077 18.0585 22.805 18.0472 22.8L17.8186 22.684C17.8003 22.6752 17.8022 22.6584 17.8241 22.6472L18.0426 22.5368C18.0538 22.5319 18.0662 22.5293 18.0787 22.5293C18.0912 22.5293 18.1036 22.5319 18.1148 22.5368V22.5368Z" fill="#2B303F"/>
<path d="M15.3652 21.1472L15.5938 21.2632C15.613 21.2728 15.6102 21.2888 15.5883 21.3L15.3707 21.4104C15.3593 21.4153 15.3468 21.4178 15.3342 21.4178C15.3215 21.4178 15.309 21.4153 15.2976 21.4104L15.0691 21.2944C15.0499 21.2856 15.0526 21.2688 15.0691 21.2576L15.2875 21.148C15.2994 21.1421 15.3127 21.139 15.3263 21.1388C15.3399 21.1387 15.3533 21.1416 15.3652 21.1472V21.1472Z" fill="#2B303F"/>
<path d="M15.0422 20.984L15.2707 21.1C15.289 21.1096 15.2872 21.1256 15.2652 21.1368L15.0467 21.2472C15.0355 21.2521 15.0232 21.2547 15.0106 21.2547C14.9981 21.2547 14.9857 21.2521 14.9745 21.2472L14.7451 21.1312C14.7268 21.1224 14.7295 21.1056 14.7506 21.0944L14.969 20.9848C14.9804 20.9798 14.9928 20.9771 15.0055 20.977C15.0182 20.9768 15.0307 20.9792 15.0422 20.984V20.984Z" fill="#2B303F"/>
<path d="M14.7178 20.8208L14.9473 20.9368C14.9656 20.9464 14.9628 20.9624 14.9418 20.9736L14.7233 21.084C14.712 21.0889 14.6994 21.0915 14.6868 21.0915C14.6741 21.0915 14.6615 21.0889 14.6502 21.084L14.4216 20.9688C14.4034 20.9592 14.4052 20.9424 14.4271 20.932L14.6456 20.8216C14.6568 20.8166 14.6691 20.8139 14.6816 20.8138C14.6941 20.8136 14.7065 20.816 14.7178 20.8208V20.8208Z" fill="#2B303F"/>
<path d="M14.3963 20.6576L14.6248 20.7736C14.644 20.7832 14.6412 20.7992 14.6248 20.8104L14.4063 20.9208C14.3949 20.9257 14.3824 20.9283 14.3697 20.9283C14.3571 20.9283 14.3445 20.9257 14.3332 20.9208L14.1046 20.8056C14.0854 20.796 14.0882 20.7792 14.1101 20.7688L14.3277 20.6584C14.3384 20.654 14.3501 20.6517 14.3619 20.6515C14.3737 20.6514 14.3854 20.6535 14.3963 20.6576V20.6576Z" fill="#2B303F"/>
<path d="M17.7089 22.332L18.0207 22.492C18.0399 22.5008 18.0371 22.5176 18.0152 22.5288L17.7976 22.64C17.7862 22.6449 17.7737 22.6474 17.761 22.6474C17.7484 22.6474 17.7359 22.6449 17.7245 22.64L17.4127 22.48C17.3935 22.4704 17.3963 22.4536 17.4182 22.4432L17.6358 22.3328C17.647 22.3275 17.6595 22.3247 17.6723 22.3246C17.685 22.3245 17.6976 22.327 17.7089 22.332V22.332Z" fill="#2B303F"/>
<path d="M15.6876 21.3104L15.9993 21.4704C16.0185 21.48 16.0157 21.4968 15.9947 21.5072L15.7762 21.6176C15.7649 21.6227 15.7524 21.6254 15.7397 21.6254C15.7269 21.6254 15.7144 21.6227 15.7031 21.6176L15.3914 21.4576C15.3731 21.4488 15.3749 21.432 15.3969 21.4208L15.6144 21.3112C15.6257 21.306 15.6382 21.3032 15.6509 21.3031C15.6636 21.303 15.6762 21.3055 15.6876 21.3104V21.3104Z" fill="#2B303F"/>
<path d="M16.0938 21.52L17.615 22.288C17.6333 22.2976 17.6314 22.3144 17.6095 22.3248L17.391 22.4352C17.3799 22.4403 17.3675 22.443 17.3549 22.443C17.3423 22.443 17.3299 22.4403 17.3188 22.4352L15.7976 21.6672C15.7793 21.6576 15.7812 21.6408 15.8031 21.6304L16.0216 21.52C16.0327 21.5149 16.0451 21.5122 16.0577 21.5122C16.0703 21.5122 16.0827 21.5149 16.0938 21.52V21.52Z" fill="#2B303F"/>
<path d="M17.5664 22.8936L17.7949 23.0096C17.8132 23.0192 17.8114 23.0352 17.7895 23.0464L17.571 23.1568C17.5598 23.1617 17.5474 23.1643 17.5349 23.1643C17.5223 23.1643 17.51 23.1617 17.4988 23.1568L17.2693 23.04C17.251 23.0312 17.2528 23.0144 17.2748 23.0032L17.4933 22.8936C17.5047 22.8887 17.5172 22.8862 17.5298 22.8862C17.5425 22.8862 17.555 22.8887 17.5664 22.8936V22.8936Z" fill="#2B303F"/>
<path d="M17.2429 22.7304L17.4714 22.8456C17.4897 22.8552 17.4879 22.872 17.4659 22.8824L17.2474 22.9928C17.2362 22.9977 17.2238 23.0002 17.2113 23.0002C17.1988 23.0002 17.1864 22.9977 17.1752 22.9928L16.9458 22.88C16.9275 22.8704 16.9302 22.8544 16.9512 22.8432L17.1697 22.7328C17.1809 22.7275 17.1933 22.7245 17.206 22.7241C17.2187 22.7237 17.2313 22.7258 17.2429 22.7304V22.7304Z" fill="#2B303F"/>
<path d="M16.919 22.5672L17.1475 22.6824C17.1658 22.692 17.1639 22.7088 17.142 22.7192L16.9244 22.8296C16.9131 22.8347 16.9006 22.8374 16.8879 22.8374C16.8751 22.8374 16.8626 22.8347 16.8513 22.8296L16.6228 22.7144C16.6036 22.7048 16.6063 22.688 16.6228 22.6776L16.8412 22.5672C16.8531 22.5614 16.8665 22.5583 16.8801 22.5583C16.8937 22.5583 16.9071 22.5614 16.919 22.5672V22.5672Z" fill="#2B303F"/>
<path d="M16.5957 22.4L16.8242 22.516C16.8434 22.5256 16.8407 22.5416 16.8188 22.5528L16.6012 22.6632C16.5898 22.6681 16.5773 22.6706 16.5646 22.6706C16.552 22.6706 16.5394 22.6681 16.5281 22.6632L16.2995 22.548C16.2803 22.5384 16.2831 22.5216 16.2995 22.5112L16.518 22.4008C16.5299 22.3951 16.5432 22.3921 16.5567 22.392C16.5703 22.3918 16.5837 22.3946 16.5957 22.4V22.4Z" fill="#2B303F"/>
<path d="M16.2719 22.24L16.5005 22.356C16.5197 22.3648 16.5169 22.3816 16.4959 22.3928L16.2774 22.5024C16.2661 22.5074 16.2535 22.5101 16.2408 22.5101C16.2281 22.5101 16.2156 22.5074 16.2043 22.5024L15.9757 22.3864C15.9565 22.3768 15.9593 22.3608 15.9812 22.3496L16.1988 22.24C16.2102 22.2351 16.2227 22.2326 16.2354 22.2326C16.248 22.2326 16.2605 22.2351 16.2719 22.24V22.24Z" fill="#2B303F"/>
<path d="M15.9483 22.08L16.1768 22.1952C16.196 22.2048 16.1933 22.2216 16.1723 22.232L15.9538 22.3424C15.9425 22.3475 15.9299 22.3502 15.9172 22.3502C15.9045 22.3502 15.892 22.3475 15.8807 22.3424L15.6521 22.2272C15.6338 22.2176 15.6357 22.2016 15.6576 22.1904L15.8761 22.08C15.8872 22.0749 15.8996 22.0722 15.9122 22.0722C15.9248 22.0722 15.9372 22.0749 15.9483 22.08V22.08Z" fill="#2B303F"/>
<path d="M15.6247 21.9128L15.8542 22.0288C15.8724 22.0384 15.8697 22.0544 15.8487 22.0656L15.632 22.176C15.6206 22.1809 15.6081 22.1835 15.5954 22.1835C15.5828 22.1835 15.5702 22.1809 15.5589 22.176L15.3303 22.0608C15.3121 22.0512 15.3139 22.0344 15.3358 22.024L15.5543 21.9136C15.5652 21.9089 15.5772 21.9063 15.5894 21.9062C15.6016 21.9061 15.6136 21.9083 15.6247 21.9128V21.9128Z" fill="#2B303F"/>
<path d="M15.3013 21.7496L15.5308 21.8656C15.5491 21.8744 15.5472 21.8912 15.5253 21.9024L15.3068 22.012C15.2957 22.017 15.2833 22.0197 15.2707 22.0197C15.2581 22.0197 15.2458 22.017 15.2346 22.012L15.0051 21.896C14.9869 21.8872 14.9887 21.8704 15.0106 21.8592L15.2291 21.7488C15.2404 21.744 15.2528 21.7416 15.2653 21.7417C15.2779 21.7418 15.2902 21.7445 15.3013 21.7496Z" fill="#2B303F"/>
<path d="M14.9782 21.5864L15.2067 21.7016C15.225 21.7112 15.2232 21.728 15.2013 21.7384L14.9828 21.8488C14.9716 21.8539 14.9592 21.8566 14.9467 21.8566C14.9341 21.8566 14.9217 21.8539 14.9106 21.8488L14.6811 21.7336C14.6628 21.724 14.6656 21.708 14.6866 21.6968L14.9051 21.5864C14.9164 21.5815 14.929 21.5789 14.9416 21.5789C14.9543 21.5789 14.9668 21.5815 14.9782 21.5864V21.5864Z" fill="#2B303F"/>
<path d="M14.6548 21.4232L14.8834 21.5384C14.9016 21.548 14.8998 21.564 14.8779 21.5752L14.6594 21.6856C14.6482 21.6905 14.6358 21.6931 14.6233 21.6931C14.6107 21.6931 14.5984 21.6905 14.5872 21.6856L14.3586 21.5704C14.3394 21.5608 14.3422 21.544 14.3632 21.5336L14.5817 21.4232C14.593 21.4181 14.6055 21.4154 14.6182 21.4154C14.631 21.4154 14.6435 21.4181 14.6548 21.4232V21.4232Z" fill="#2B303F"/>
<path d="M14.3311 21.2592L14.5596 21.3752C14.5788 21.3848 14.5761 21.4008 14.5541 21.412L14.3366 21.52C14.3252 21.5249 14.3127 21.5274 14.3 21.5274C14.2873 21.5274 14.2748 21.5249 14.2634 21.52L14.0349 21.404C14.0157 21.3952 14.0184 21.3784 14.0395 21.3672L14.258 21.2576C14.2694 21.2528 14.282 21.2504 14.2947 21.2507C14.3074 21.251 14.3199 21.2539 14.3311 21.2592Z" fill="#2B303F"/>
<path d="M14.0078 21.096L14.2363 21.2112C14.2555 21.2208 14.2528 21.2376 14.2308 21.248L14.0132 21.36C14.0019 21.3649 13.9893 21.3674 13.9767 21.3674C13.964 21.3674 13.9515 21.3649 13.9401 21.36L13.7116 21.244C13.6924 21.2344 13.6951 21.2184 13.7171 21.2072L13.9346 21.0968C13.9459 21.0918 13.9584 21.0891 13.9711 21.089C13.9838 21.0888 13.9963 21.0912 14.0078 21.096V21.096Z" fill="#2B303F"/>
<path d="M17.8892 23.0576L18.3628 23.2976C18.381 23.3072 18.3792 23.324 18.3573 23.3344L18.1388 23.44C18.1276 23.4449 18.1152 23.4474 18.1027 23.4474C18.0901 23.4474 18.0778 23.4449 18.0666 23.44L17.593 23.2C17.5747 23.1904 17.5766 23.1736 17.5985 23.1632L17.817 23.0528C17.8286 23.0484 17.8412 23.0465 17.8538 23.0474C17.8664 23.0482 17.8785 23.0517 17.8892 23.0576V23.0576Z" fill="#2B303F"/>
<path d="M18.0407 22.816L18.2692 22.932C18.2875 22.9416 18.2857 22.9576 18.2638 22.9688L18.0453 23.0792C18.0341 23.0841 18.0217 23.0867 18.0092 23.0867C17.9966 23.0867 17.9843 23.0841 17.9731 23.0792L17.7436 22.964C17.7253 22.9544 17.7281 22.9376 17.7491 22.9272L17.9676 22.8168C17.9789 22.8118 17.9914 22.8091 18.004 22.809C18.0167 22.8088 18.0293 22.8112 18.0407 22.816V22.816Z" fill="#2B303F"/>
<path d="M17.7173 22.6528L17.9459 22.7688C17.9641 22.7776 17.9623 22.7944 17.9404 22.8056L17.7219 22.916C17.7107 22.9209 17.6983 22.9235 17.6858 22.9235C17.6732 22.9235 17.6609 22.9209 17.6497 22.916L17.4211 22.8C17.4019 22.7912 17.4047 22.7744 17.4257 22.7632L17.6433 22.656C17.6544 22.6503 17.667 22.647 17.6798 22.6465C17.6927 22.6459 17.7056 22.6481 17.7173 22.6528V22.6528Z" fill="#2B303F"/>
<path d="M17.3934 22.4896L17.6219 22.6048C17.6411 22.6144 17.6384 22.6312 17.6165 22.6416L17.3989 22.752C17.3875 22.7569 17.375 22.7594 17.3623 22.7594C17.3496 22.7594 17.3371 22.7569 17.3257 22.752L17.0945 22.64C17.0753 22.6304 17.078 22.6144 17.099 22.6032L17.3175 22.4928C17.329 22.487 17.3418 22.4837 17.355 22.4832C17.3682 22.4826 17.3814 22.4848 17.3934 22.4896V22.4896Z" fill="#2B303F"/>
<path d="M17.0702 22.3264L17.2987 22.4416C17.3179 22.4512 17.3152 22.468 17.2987 22.4784L17.0803 22.5888C17.069 22.5939 17.0564 22.5966 17.0437 22.5966C17.031 22.5966 17.0184 22.5939 17.0071 22.5888L16.7786 22.4736C16.7603 22.464 16.7621 22.4472 16.7841 22.4368L17.0016 22.3264C17.0123 22.3219 17.0241 22.3196 17.0359 22.3196C17.0478 22.3196 17.0595 22.3219 17.0702 22.3264V22.3264Z" fill="#2B303F"/>
<path d="M16.7462 22.16L16.9756 22.276C16.9939 22.2856 16.9911 22.3016 16.9701 22.3128L16.7516 22.4232C16.7403 22.4281 16.7278 22.4307 16.7151 22.4307C16.7024 22.4307 16.6899 22.4281 16.6785 22.4232L16.45 22.308C16.4317 22.2984 16.4335 22.2816 16.4555 22.2712L16.6739 22.1608C16.6851 22.1558 16.6974 22.1531 16.7099 22.153C16.7225 22.1529 16.7349 22.1552 16.7462 22.16V22.16Z" fill="#2B303F"/>
<path d="M16.4238 22L16.6524 22.116C16.6706 22.1248 16.6688 22.1416 16.6469 22.1528L16.4284 22.2624C16.4172 22.2675 16.4049 22.2701 16.3923 22.2701C16.3797 22.2701 16.3673 22.2675 16.3562 22.2624L16.1267 22.1464C16.1084 22.1368 16.1103 22.1208 16.1322 22.1096L16.3507 21.9992C16.3621 21.9944 16.3747 21.992 16.3874 21.9921C16.4001 21.9922 16.4125 21.9949 16.4238 22V22Z" fill="#2B303F"/>
<path d="M16.1001 21.84L16.3287 21.9552C16.3469 21.9648 16.3451 21.9816 16.3232 21.992L16.1047 22.1024C16.0936 22.1075 16.0812 22.1102 16.0686 22.1102C16.056 22.1102 16.0436 22.1075 16.0325 22.1024L15.8039 21.9872C15.7847 21.9776 15.7875 21.9616 15.8085 21.9504L16.027 21.84C16.0384 21.8351 16.0509 21.8325 16.0636 21.8325C16.0762 21.8325 16.0888 21.8351 16.1001 21.84V21.84Z" fill="#2B303F"/>
<path d="M15.7764 21.6728L16.0049 21.788C16.0241 21.7976 16.0214 21.8136 15.9994 21.8248L15.7819 21.9352C15.7706 21.9403 15.758 21.943 15.7453 21.943C15.7326 21.943 15.72 21.9403 15.7087 21.9352L15.4802 21.82C15.461 21.8104 15.4637 21.7936 15.4802 21.7832L15.6987 21.6728C15.7105 21.667 15.7239 21.6639 15.7375 21.6639C15.7511 21.6639 15.7645 21.667 15.7764 21.6728V21.6728Z" fill="#2B303F"/>
<path d="M15.449 21.5088L15.6775 21.6248C15.6967 21.6344 15.694 21.6504 15.6775 21.6616L15.459 21.772C15.4477 21.7769 15.4352 21.7795 15.4225 21.7795C15.4098 21.7795 15.3973 21.7769 15.3859 21.772L15.1574 21.656C15.1382 21.6472 15.1409 21.6304 15.1629 21.6192L15.3804 21.5096C15.3911 21.5052 15.4028 21.5029 15.4146 21.5027C15.4264 21.5026 15.4381 21.5047 15.449 21.5088V21.5088Z" fill="#2B303F"/>
<path d="M15.1295 21.3456L15.3589 21.4616C15.3772 21.4704 15.3744 21.4872 15.3534 21.4976L15.1349 21.608C15.1236 21.6129 15.111 21.6154 15.0984 21.6154C15.0857 21.6154 15.0732 21.6129 15.0618 21.608L14.8333 21.492C14.815 21.4824 14.8168 21.4664 14.8388 21.4552L15.0572 21.3448C15.0685 21.34 15.0809 21.3376 15.0935 21.3377C15.106 21.3379 15.1183 21.3406 15.1295 21.3456V21.3456Z" fill="#2B303F"/>
<path d="M14.8093 21.1824L15.0387 21.2976C15.057 21.3072 15.0552 21.324 15.0332 21.3344L14.8093 21.4448C14.7981 21.4499 14.7857 21.4526 14.7731 21.4526C14.7606 21.4526 14.7482 21.4499 14.737 21.4448L14.5076 21.3296C14.4893 21.32 14.4911 21.304 14.5131 21.2928L14.7316 21.1824C14.7434 21.1764 14.7568 21.1733 14.7704 21.1733C14.784 21.1733 14.7974 21.1764 14.8093 21.1824V21.1824Z" fill="#2B303F"/>
<path d="M14.0825 20.8168L14.7115 21.1368C14.7298 21.1464 14.7279 21.1624 14.706 21.1736L14.4875 21.28C14.4763 21.2849 14.464 21.2875 14.4514 21.2875C14.4389 21.2875 14.4265 21.2849 14.4153 21.28L13.7864 20.96C13.7672 20.9504 13.7699 20.9336 13.7909 20.9232L14.0094 20.8128C14.0211 20.8083 14.0338 20.8063 14.0465 20.807C14.0593 20.8077 14.0716 20.8111 14.0825 20.8168V20.8168Z" fill="#2B303F"/>
<path d="M18.3633 22.98L18.676 23.14C18.6943 23.1496 18.6915 23.1656 18.6705 23.1768L18.452 23.2872C18.4407 23.2921 18.4281 23.2947 18.4154 23.2947C18.4028 23.2947 18.3902 23.2921 18.3789 23.2872L18.0672 23.1272C18.0489 23.1176 18.0507 23.1016 18.0726 23.0904L18.2911 22.98C18.3023 22.9749 18.3147 22.9722 18.3272 22.9722C18.3398 22.9722 18.3522 22.9749 18.3633 22.98V22.98Z" fill="#2B303F"/>
<path d="M12.8153 21.4568L17.4089 23.7768C17.4272 23.7864 17.4254 23.8024 17.4035 23.8136L17.2947 23.8688C17.2833 23.8737 17.2708 23.8763 17.2581 23.8763C17.2454 23.8763 17.2329 23.8737 17.2215 23.8688L12.6279 21.5488C12.6096 21.5392 12.6123 21.5224 12.6334 21.512L12.7422 21.4568C12.7535 21.4517 12.766 21.449 12.7787 21.449C12.7914 21.449 12.804 21.4517 12.8153 21.4568V21.4568Z" fill="#2B303F"/>
<path d="M18.1906 21.56L18.1605 21.5752L17.367 21.976L15.9555 21.2632L15.9263 21.2488L16.7499 20.8328L18.1906 21.56Z" fill="#BFBFBF"/>
<path d="M18.1605 21.5752L17.367 21.976L15.9556 21.2632L16.75 20.8624L18.1605 21.5752Z" fill="#E5E5E5"/>
<path d="M20.4542 22.496V22.56C20.4543 22.6045 20.4409 22.6483 20.4156 22.6869C20.3903 22.7255 20.3538 22.7576 20.3098 22.78L17.5116 24.1936C17.4676 24.2158 17.4178 24.2273 17.3671 24.2272C17.3165 24.2271 17.2667 24.2155 17.2227 24.1936L12.1601 21.6336C12.1161 21.6112 12.0796 21.5791 12.0543 21.5405C12.0289 21.5019 12.0156 21.4581 12.0156 21.4136V21.352L17.3689 24.056L20.4542 22.496Z" fill="#E5E5E5"/>
<path d="M17.5945 17.9848L16.6557 17.52C16.6557 17.52 15.7937 18.24 15.7937 18.2688C15.4468 18.6136 15.1265 18.9781 14.8347 19.36C14.7168 19.5064 14.5897 19.5944 14.3292 19.8536C14.0686 20.1128 13.8355 20.46 13.7651 20.7296C13.6947 20.9992 13.7185 21.1008 13.7752 21.1296C13.8465 21.1672 13.916 21.1208 13.9644 21C14.0261 20.7999 14.1262 20.6106 14.2606 20.44C14.2606 20.44 14.1399 20.7024 14.0833 20.8632C14.0328 21.0043 14.0042 21.1507 13.9982 21.2984C13.9982 21.4384 14.1948 21.5384 14.2469 21.4184C14.299 21.2984 14.3027 21.1944 14.3904 20.9568C14.4368 20.8288 14.4997 20.7059 14.5778 20.5904C14.53 20.7494 14.4966 20.9115 14.4782 21.0752C14.459 21.3 14.5056 21.3904 14.5394 21.448C14.5732 21.5056 14.714 21.528 14.7561 21.3752C14.7936 21.2352 14.7725 21.0512 14.8923 20.7888C14.9837 20.5976 15.0751 20.4688 15.0916 20.5032C15.108 20.5376 15.0523 20.6464 15.0715 20.8152C15.0907 20.984 15.2223 21.1152 15.3302 21.0888C15.438 21.0624 15.4161 21.0656 15.4289 20.8944C15.4417 20.7232 15.5148 20.5688 15.5093 20.328C15.4912 20.1605 15.5197 19.9917 15.5925 19.836C15.6739 19.6536 16.0697 19.2472 16.5158 18.86L17.5945 17.9848Z" fill="#FFCEA9"/>
<path d="M17.2857 24.0936C17.2379 24.1098 17.1866 24.1164 17.1355 24.1129C17.0844 24.1095 17.0348 24.096 16.9905 24.0736L11.9498 21.5272C11.9061 21.5051 11.8686 21.4749 11.8399 21.4387C11.8111 21.4024 11.7918 21.3611 11.7834 21.3176L11.2349 18.4376C11.2335 18.4214 11.2335 18.405 11.2349 18.3888C11.2349 18.3491 11.2438 18.3098 11.2612 18.2731C11.2787 18.2365 11.3042 18.2032 11.3364 18.1752L16.5745 20.8216C16.6072 20.8387 16.6352 20.8619 16.6563 20.8895C16.6775 20.9172 16.6914 20.9487 16.697 20.9816L17.2857 24.0936Z" fill="#F4F4F4"/>
<path d="M17.369 24.056L17.3343 24.0736C17.3193 24.0812 17.3037 24.0879 17.2877 24.0936L16.6907 20.9776C16.6851 20.9446 16.6712 20.9132 16.65 20.8855C16.6289 20.8579 16.6009 20.8346 16.5682 20.8176L11.3301 18.1712C11.3512 18.1532 11.3748 18.1376 11.4005 18.1248L16.6487 20.776C16.6808 20.7924 16.7085 20.8148 16.7296 20.8417C16.7508 20.8685 16.765 20.899 16.7712 20.9312L17.369 24.056Z" fill="#E5E5E5"/>
<path d="M18.2075 16.32C18.2075 16.32 17.8126 16.3024 17.6499 16.1008C17.6801 15.7568 18.1838 14.4488 19.1967 14.3512C18.921 14.5206 18.7022 14.7515 18.5631 15.02C18.3794 15.4112 18.2075 16.32 18.2075 16.32Z" fill="#EDEDED"/>
<path opacity="0.4" d="M6.71927 20.2408C7.06663 20.2408 7.34822 20.0986 7.34822 19.9232C7.34822 19.7478 7.06663 19.6056 6.71927 19.6056C6.37192 19.6056 6.09033 19.7478 6.09033 19.9232C6.09033 20.0986 6.37192 20.2408 6.71927 20.2408Z" fill="#D6D8E5"/>
<path d="M6.80863 20.1816C7.15599 20.1816 7.43757 20.0394 7.43757 19.864C7.43757 19.6886 7.15599 19.5464 6.80863 19.5464C6.46128 19.5464 6.17969 19.6886 6.17969 19.864C6.17969 20.0394 6.46128 20.1816 6.80863 20.1816Z" fill="#D6D8E5"/>
<path d="M5.9668 18.7776L6.18711 19.8864H7.43585L7.65068 18.7856L5.9668 18.7776Z" fill="#D6D8E5"/>
<path d="M6.80868 19.1896C7.27417 19.1896 7.65153 18.9991 7.65153 18.764C7.65153 18.529 7.27417 18.3384 6.80868 18.3384C6.34318 18.3384 5.96582 18.529 5.96582 18.764C5.96582 18.9991 6.34318 19.1896 6.80868 19.1896Z" fill="#E4E6EF"/>
<path d="M6.80872 19.096C6.62007 19.0997 6.43347 19.0611 6.26662 18.984C6.14412 18.9216 6.07373 18.8416 6.07373 18.764C6.07373 18.6864 6.14412 18.604 6.26662 18.544C6.43493 18.4703 6.62053 18.432 6.80872 18.432C6.9969 18.432 7.1825 18.4703 7.35081 18.544C7.47422 18.6064 7.54461 18.6864 7.54461 18.764C7.54461 18.8416 7.47422 18.924 7.35081 18.984C7.184 19.0612 6.99738 19.0998 6.80872 19.096V19.096Z" fill="#28221C"/>
<path d="M7.17173 18.4288C7.18372 18.2855 7.15769 18.1417 7.09569 18.0086C7.03369 17.8755 6.93738 17.7568 6.8143 17.6616V17.6616C6.69121 17.7568 6.59491 17.8755 6.5329 18.0086C6.4709 18.1417 6.44488 18.2855 6.45686 18.4288L5.9751 18.3888C6.17896 19.0592 6.81795 19.0016 6.81795 19.0016C6.86549 19.0016 7.45787 19.032 7.65624 18.3888L7.17173 18.4288Z" fill="#99B524"/>
<path d="M6.81433 19.0032C6.81433 19.0032 6.77136 18.4808 5.96964 18.1296C5.96964 18.1296 5.78041 18.9968 6.81433 19.0032Z" fill="#A6CE28"/>
<path d="M6.80859 19.0032C6.80859 19.0032 6.85613 18.48 7.65328 18.1296C7.65328 18.1296 7.84251 18.9968 6.80859 19.0032Z" fill="#A6CE28"/>
<path opacity="0.4" d="M23.4781 27.5968C23.9315 27.5968 24.2991 27.4113 24.2991 27.1824C24.2991 26.9535 23.9315 26.768 23.4781 26.768C23.0248 26.768 22.6572 26.9535 22.6572 27.1824C22.6572 27.4113 23.0248 27.5968 23.4781 27.5968Z" fill="#D6D8E5"/>
<path d="M24.3797 27.12V26.0168L22.7415 26.0528V27.0728C22.7104 27.196 22.7881 27.324 22.9746 27.4184C23.1546 27.4981 23.3535 27.5396 23.5551 27.5396C23.7568 27.5396 23.9556 27.4981 24.1356 27.4184C24.3011 27.3368 24.3806 27.2304 24.3797 27.12Z" fill="#D6D8E5"/>
<path d="M23.5587 26.4312C24.0121 26.4312 24.3796 26.2457 24.3796 26.0168C24.3796 25.7879 24.0121 25.6024 23.5587 25.6024C23.1053 25.6024 22.7378 25.7879 22.7378 26.0168C22.7378 26.2457 23.1053 26.4312 23.5587 26.4312Z" fill="#E4E6EF"/>
<path d="M24.2499 26.0168C24.2499 26.0848 24.1859 26.1552 24.0744 26.212C23.9315 26.2777 23.7732 26.3135 23.6118 26.3168H23.5588C23.3795 26.3197 23.2022 26.2831 23.0432 26.2104C22.9317 26.1536 22.8677 26.0832 22.8677 26.0152C22.8677 25.9472 22.9317 25.8768 23.0432 25.8208C23.202 25.7478 23.3794 25.7112 23.5588 25.7144H23.6118C23.7733 25.7175 23.9317 25.7537 24.0744 25.82C24.1859 25.8784 24.2499 25.9496 24.2499 26.0168Z" fill="#28221C"/>
<path opacity="0.07" d="M24.2497 26.0168C24.2497 26.0848 24.1857 26.1552 24.0742 26.212C23.9325 26.2807 23.7732 26.3168 23.6112 26.3168C23.4492 26.3168 23.2899 26.2807 23.1482 26.212C23.0366 26.1552 22.9727 26.0848 22.9727 26.0168C22.9727 25.9488 23.0366 25.8784 23.1482 25.8224C23.2897 25.7532 23.4491 25.7168 23.6112 25.7168C23.7733 25.7168 23.9327 25.7532 24.0742 25.8224C24.1857 25.8784 24.2497 25.9496 24.2497 26.0168Z" fill="white"/>
<path d="M24.2601 26.5296L24.0855 26.4408L24.0014 26.484L24.0855 26.5272V26.5552L24.2491 26.6352L24.2446 26.6616C24.2847 26.7108 24.3208 26.7624 24.3524 26.816L24.3588 26.8112V27.1672C24.3588 27.2608 24.2958 27.2288 24.2674 27.2152L24.0846 27.1232L24.0005 27.1656L24.0846 27.2088V27.2368L24.2674 27.3296C24.2862 27.3393 24.3061 27.3471 24.3268 27.3528L24.3159 27.3976L24.4073 27.3504C24.4278 27.3352 24.4436 27.3157 24.4533 27.2938C24.4631 27.2719 24.4664 27.2482 24.4631 27.2248V26.8528C24.4588 26.7891 24.4384 26.7271 24.4033 26.6712C24.3682 26.6152 24.3193 26.5669 24.2601 26.5296Z" fill="#B0B4C1"/>
<path d="M24.1843 27.3752L24.0015 27.2824V27.168L24.1843 27.2608C24.2117 27.2744 24.2757 27.3064 24.2757 27.2128V26.8408C24.2725 26.809 24.2613 26.7782 24.243 26.7505C24.2247 26.7229 24.1996 26.6991 24.1697 26.6808L24.0033 26.6008V26.4864L24.177 26.5744C24.2378 26.6114 24.2884 26.6598 24.325 26.7162C24.3615 26.7725 24.3831 26.8354 24.3882 26.9V27.272C24.3863 27.3704 24.3333 27.4504 24.1843 27.3752Z" fill="#BFC2D1"/>
<path d="M5.76667 8.27521C5.62314 7.94561 5.46774 7.82001 5.15052 7.64161C4.83331 7.46321 4.0389 7.04961 3.35054 6.70161C2.66218 6.35361 1.86412 5.95921 1.54873 5.82161C1.33025 5.72321 1.18855 5.68001 1.07428 5.72321L1.05417 5.73281L1.04229 5.73841L0.381348 6.04881L0.764381 6.29921C0.721604 6.59795 0.70297 6.89897 0.708617 7.20001V7.20001C0.708617 7.97681 0.784492 8.46081 0.932586 8.79041C1.08068 9.12001 1.23243 9.24641 1.54782 9.43041C1.8632 9.61441 2.66035 10.0224 3.35054 10.3704C3.86064 10.6288 4.43016 10.9104 4.81868 11.096L4.89913 11.6872L5.646 11.34C5.69554 11.3148 5.73729 11.2794 5.76758 11.2368C5.91659 11.0576 5.99155 10.6496 5.99155 9.87681C5.99064 9.08881 5.91567 8.60801 5.76667 8.27521Z" fill="#DB302C"/>
<path d="M5.05713 8.60881C4.91453 8.27841 4.75912 8.15281 4.4419 7.97441C4.12469 7.79601 3.33029 7.38241 2.64192 7.03441C1.95356 6.68641 1.1555 6.29281 0.840113 6.15441C0.524728 6.01601 0.365664 5.98161 0.223055 6.16641C0.0804461 6.35121 0 6.75361 0 7.53361C0 8.31041 0.0758753 8.79441 0.223055 9.12401C0.370235 9.45361 0.523814 9.58001 0.839199 9.76401C1.15458 9.94801 1.95173 10.356 2.64192 10.7048C3.33211 11.0536 4.12561 11.4432 4.44282 11.5848C4.76003 11.7264 4.91453 11.7552 5.05805 11.5696C5.20157 11.384 5.28202 10.9824 5.28202 10.2056C5.28202 9.42241 5.21071 8.94081 5.05713 8.60881Z" fill="#F44336"/>
<path d="M1.98096 9.53602V7.53442L3.63102 9.36882L1.98096 9.53602Z" fill="#FAFAFA"/>
<path d="M18.6727 4.21202C18.6727 2.77202 17.519 1.02642 16.0966 0.307224C15.3973 -0.0455757 14.7638 -0.0799757 14.2994 0.138424L14.2838 0.146424L14.2665 0.155224L13.7436 0.421624L13.8734 0.473624C13.6494 0.746424 13.5205 1.13042 13.5205 1.60962C13.5205 3.04962 14.6742 4.79522 16.0966 5.51362C16.5281 5.73202 16.9349 5.83362 17.2923 5.82082L17.2777 5.99442L17.9176 5.67442H17.924L17.9332 5.66962C18.3893 5.42642 18.6727 4.92402 18.6727 4.21202Z" fill="#499BCE"/>
<path d="M17.3352 5.96731C18.3413 5.45899 18.3414 3.81082 17.3354 2.28603C16.3294 0.761228 14.6984 -0.0627864 13.6923 0.445537C12.6862 0.953859 12.6861 2.60203 13.6921 4.12683C14.698 5.65162 16.3291 6.47564 17.3352 5.96731Z" fill="#55ACEE"/>
<path d="M16.9851 3.13201C16.8627 3.12359 16.743 3.09652 16.6313 3.05201C16.6956 3.04578 16.7562 3.02265 16.8052 2.98566C16.8541 2.94867 16.8891 2.89956 16.9055 2.84481C16.773 2.85479 16.6397 2.83866 16.5152 2.79761C16.4104 2.62439 16.2553 2.47841 16.0654 2.37441C15.7235 2.20161 15.4493 2.34081 15.4493 2.68481C15.4494 2.73502 15.4549 2.78511 15.4657 2.83441C14.9538 2.55041 14.5004 2.07281 14.1969 1.54321C14.1378 1.62363 14.1088 1.71812 14.1137 1.81361C14.126 2.05198 14.2217 2.28128 14.3879 2.47041C14.282 2.41115 14.1878 2.3371 14.1091 2.25121V2.25921C14.119 2.42435 14.1675 2.58595 14.2516 2.73402C14.3357 2.88209 14.4537 3.01347 14.5982 3.12001C14.5413 3.10687 14.4868 3.08667 14.4364 3.06001C14.3956 3.03959 14.3568 3.01631 14.3203 2.99041C14.403 3.28463 14.608 3.54133 14.8953 3.71041C14.685 3.77041 14.419 3.73601 14.1311 3.58961C14.0817 3.56481 14.0323 3.53681 13.9839 3.50961C14.2386 3.81362 14.5596 4.07054 14.9282 4.26561C16.0599 4.83841 16.6797 4.20321 16.6797 3.38081C16.6797 3.35361 16.6797 3.32641 16.6797 3.30081C16.7995 3.27474 16.9069 3.21655 16.9869 3.13441L16.9851 3.13201Z" fill="#F1F2F2"/>
<path d="M33.7561 6.9144L30.0482 5.04C29.9843 5.00073 29.9107 4.97508 29.8334 4.96508C29.7561 4.95508 29.6772 4.96101 29.603 4.9824V4.9824H29.5975C29.5763 4.99066 29.556 5.00085 29.5372 5.0128L28.9448 5.3096L29.3644 5.8192V9.1288C29.3768 9.33702 29.4451 9.53975 29.564 9.72048C29.6828 9.9012 29.8487 10.0548 30.0482 10.1688L31.8765 11.0928V9.2616L31.4048 9.0216C31.3725 9.00304 31.3457 8.97809 31.3265 8.94876C31.3073 8.91944 31.2962 8.88656 31.2942 8.8528V8.2616C31.2942 8.1992 31.3445 8.1736 31.4057 8.2048L31.8756 8.4448V7.8752C31.8756 7.2128 32.276 7.0544 32.8611 7.3496L33.341 7.5896C33.3737 7.60822 33.4009 7.63339 33.4203 7.66302C33.4397 7.69265 33.4507 7.72589 33.4525 7.76V8.2576C33.4525 8.32 33.4032 8.3448 33.3419 8.3136L33.0476 8.1656C32.7294 8.0056 32.6682 8.1264 32.6682 8.3504V8.844L33.3666 9.2C33.4011 9.21943 33.4293 9.24623 33.4487 9.27786C33.468 9.30949 33.4779 9.34492 33.4772 9.3808L33.4078 9.9408C33.4014 9.9944 33.3538 10.0128 33.2971 9.984L32.6709 9.664V11.4944L33.4334 11.88L33.5677 12.424L34.2378 12.088L34.2451 12.084H34.2506C34.3695 12.0192 34.4435 11.888 34.4435 11.7008V7.9512C34.4302 7.74324 34.361 7.54097 34.2415 7.36082C34.1221 7.18066 33.9557 7.02771 33.7561 6.9144V6.9144Z" fill="#384B7A"/>
<path d="M30.8008 11.1888L32.9829 12.292L33.3422 8.56482L32.6922 7.63122L30.5951 6.54562L30.1499 7.32402C30.1499 7.32402 30.1846 9.04482 30.2413 9.40402C30.298 9.76322 30.8008 11.1888 30.8008 11.1888Z" fill="white"/>
<path d="M33.1236 7.23441L29.4157 5.36001C29.0382 5.16881 28.7319 5.32401 28.7319 5.70561V9.45121C28.7443 9.65944 28.8127 9.86216 28.9315 10.0429C29.0503 10.2236 29.2162 10.3772 29.4157 10.4912L31.244 11.4152V9.58401L30.7733 9.34401C30.7408 9.3255 30.7139 9.30057 30.6945 9.27125C30.6751 9.24193 30.6639 9.20903 30.6617 9.17521V8.58401C30.6617 8.52161 30.712 8.49601 30.7733 8.52721L31.244 8.76721V8.19681C31.244 7.53441 31.6435 7.37601 32.2286 7.67121L32.7085 7.91121C32.7406 7.9299 32.7672 7.9549 32.7863 7.98422C32.8053 8.01353 32.8163 8.04633 32.8182 8.08001V8.57761C32.8182 8.64001 32.768 8.66481 32.7067 8.63361L32.4123 8.48561C32.0942 8.32561 32.033 8.44641 32.033 8.67041V9.16401L32.7314 9.51761C32.7659 9.53704 32.7941 9.56384 32.8135 9.59547C32.8328 9.62711 32.8426 9.66253 32.842 9.69841L32.7725 10.2584C32.7661 10.3112 32.7186 10.3304 32.6619 10.3016L32.0357 9.98561V11.816L33.1236 12.3656C33.5011 12.5568 33.8074 12.4016 33.8074 12.02V8.27121C33.7944 8.06354 33.7258 7.86145 33.607 7.68132C33.4882 7.50119 33.3226 7.34808 33.1236 7.23441Z" fill="#475993"/>
<path d="M40.0001 23.44C40.0001 21.7824 38.67 19.7672 37.03 18.9376C36.2311 18.5376 35.5071 18.4872 34.9732 18.736L34.9567 18.7448C34.9253 18.7594 34.8948 18.7755 34.8653 18.7928L34.2473 19.1128L34.4192 19.184C34.1888 19.4944 34.0581 19.9168 34.0581 20.436C34.0581 22.0936 35.3882 24.1096 37.0291 24.9384C37.4105 25.1451 37.844 25.2665 38.2916 25.292L38.3236 25.5104L39.0778 25.1456C39.6464 24.8848 40.0001 24.2928 40.0001 23.44Z" fill="#8E2FEA"/>
<path d="M38.0983 24.9372C39.0768 24.4428 39.0769 22.8397 38.0984 21.3566C37.12 19.8735 35.5335 19.072 34.555 19.5664C33.5765 20.0608 33.5764 21.6639 34.5548 23.147C35.5333 24.6301 37.1197 25.4316 38.0983 24.9372Z" fill="white"/>
<path d="M36.3516 22.88C36.6788 23.0456 36.9449 22.9112 36.9449 22.5808C36.9405 22.44 36.9025 22.3016 36.8333 22.1744C36.732 21.9723 36.5647 21.8008 36.3525 21.6816C36.1541 21.5816 35.9795 21.592 35.8707 21.6888C35.7917 21.7701 35.7517 21.8751 35.7592 21.9816C35.7703 22.1616 35.8297 22.3367 35.9326 22.4928C36.0356 22.6489 36.1791 22.7816 36.3516 22.88Z" fill="#A93BFF"/>
<path d="M37.647 22.2032V21.7008V21.6256L37.573 21.5888L37.0757 21.3392L37.0775 21.9176L37.647 22.2032Z" fill="#A93BFF"/>
<path d="M36.3515 19.288C34.7179 18.4624 33.3887 19.1344 33.3887 20.7848C33.3887 22.4352 34.7179 24.4504 36.3515 25.276C37.9851 26.1016 39.3143 25.4296 39.3143 23.7792C39.3143 22.1288 37.986 20.1136 36.3515 19.288ZM38.0372 22.784V24.1776C38.0372 24.5408 37.7446 24.6888 37.3854 24.5072L35.3185 23.4624C35.1289 23.3542 34.9711 23.2084 34.8579 23.0369C34.7446 22.8654 34.6791 22.673 34.6667 22.4752V20.3864C34.6667 20.0232 34.9592 19.8752 35.3185 20.0568L37.389 21.1016C37.5786 21.2098 37.7364 21.3556 37.8496 21.5271C37.9629 21.6986 38.0284 21.891 38.0408 22.0888L38.0372 22.784Z" fill="#A93BFF"/>
<path d="M37.2741 22.7472C37.2741 23.2608 36.86 23.4672 36.3517 23.2136C35.8435 22.96 35.4303 22.3296 35.4303 21.816C35.4279 21.708 35.4509 21.6007 35.4979 21.5008L34.9951 21.2472V22.64C35.0012 22.7381 35.0335 22.8335 35.0896 22.9186C35.1457 23.0036 35.2238 23.0759 35.3178 23.1296L37.3893 24.1752C37.5721 24.2648 37.712 24.192 37.712 24.0152V22.6176L37.2092 22.364C37.2516 22.4884 37.2735 22.6174 37.2741 22.7472V22.7472Z" fill="#A93BFF"/>
</g>
<defs>
<clipPath id="clip0_21_1095">
<rect width="40" height="40" fill="white"/>
</clipPath>
</defs>
</svg>
