<svg width="18" height="22" viewBox="0 0 18 22" fill="none" xmlns="http://www.w3.org/2000/svg">
<path d="M8.80804 21.2616L8.61736 21.0367L2.62966 13.9749L2.62881 13.9739C2.60725 13.9482 2.54075 13.8618 2.48561 13.7899L2.40829 13.6888L2.38358 13.6564L2.37672 13.6474L2.37491 13.645L2.37444 13.6444L2.37432 13.6442L2.37429 13.6442L2.37428 13.6442L2.57318 13.4927L2.37428 13.6442L2.37407 13.6439C1.3181 12.253 0.747572 10.5542 0.750008 8.80786M8.80804 21.2616L15.044 13.4909C16.0663 12.1441 16.6186 10.499 16.6161 8.80803H16.8661C16.8661 8.80791 16.8661 8.80779 16.8661 8.80766C16.866 6.67067 16.017 4.62123 14.5059 3.11014C12.9948 1.59897 10.9452 0.75 8.80804 0.75C6.67092 0.75 4.62133 1.59897 3.11015 3.11014C1.59902 4.62128 0.750055 6.6708 0.750008 8.80786M8.80804 21.2616L8.99872 21.0367L14.9889 13.972L14.9893 13.9715C15.0101 13.9468 15.0764 13.8606 15.1309 13.7894L15.2079 13.6886L15.2326 13.6563L15.2394 13.6473L15.2413 13.6449L15.2417 13.6443L15.2418 13.6441L15.2419 13.6441L15.2419 13.6441L15.0429 13.4927L15.2419 13.6441L15.2502 13.6331L15.2514 13.6311L8.80804 21.2616ZM0.750008 8.80786C0.750008 8.80792 0.750008 8.80798 0.750008 8.80803H1.00001L0.750008 8.80768C0.750008 8.80774 0.750008 8.8078 0.750008 8.80786ZM13.7117 12.4844L13.7105 12.486L13.7104 12.4861L13.7048 12.4935L13.7046 12.4938L13.7041 12.4945L13.6848 12.5199L13.6244 12.5996C13.5801 12.6578 13.5353 12.7166 13.5195 12.7367L8.80803 18.2936L4.10263 12.7443C4.08478 12.7219 4.03844 12.6613 3.99296 12.6016L3.93205 12.5214L3.91247 12.4957L3.90653 12.4879L3.90398 12.4846L3.90388 12.4845C3.10169 11.427 2.66814 10.1357 2.66965 8.80832V8.80803C2.66965 7.18003 3.31637 5.61871 4.46754 4.46754C5.61872 3.31636 7.18004 2.66964 8.80804 2.66964C10.436 2.66964 11.9974 3.31636 13.1485 4.46754C14.2997 5.61871 14.9464 7.18003 14.9464 8.80803V8.80833C14.948 10.1358 14.5143 11.4271 13.7117 12.4844Z" fill="white" stroke="white" stroke-width="0.5"/>
<path fill-rule="evenodd" clip-rule="evenodd" d="M10.0396 8.89172C10.4838 9.19328 10.7951 9.60184 10.7951 10.1466V11.1193H12.0921V10.1466C12.0921 9.43971 10.9346 9.02143 10.0396 8.89172Z" fill="white"/>
<path d="M7.55257 8.5253C8.26889 8.5253 8.84958 7.94461 8.84958 7.22829C8.84958 6.51197 8.26889 5.93127 7.55257 5.93127C6.83625 5.93127 6.25555 6.51197 6.25555 7.22829C6.25555 7.94461 6.83625 8.5253 7.55257 8.5253Z" fill="white"/>
<path fill-rule="evenodd" clip-rule="evenodd" d="M9.49809 8.5253C10.2147 8.5253 10.7951 7.94489 10.7951 7.22829C10.7951 6.51169 10.2147 5.93127 9.49809 5.93127C9.34569 5.93127 9.20302 5.9637 9.06683 6.0091C9.33596 6.34308 9.49809 6.76785 9.49809 7.22829C9.49809 7.68873 9.33596 8.1135 9.06683 8.44748C9.20302 8.49288 9.34569 8.5253 9.49809 8.5253Z" fill="white"/>
<path fill-rule="evenodd" clip-rule="evenodd" d="M7.55259 8.84949C6.68683 8.84949 4.95856 9.28399 4.95856 10.1465V11.1193H10.1466V10.1465C10.1466 9.28399 8.41834 8.84949 7.55259 8.84949Z" fill="white"/>
</svg>
