<svg width="40" height="40" viewBox="0 0 40 40" fill="none" xmlns="http://www.w3.org/2000/svg">
<g clip-path="url(#clip0_21_359)">
<path opacity="0.4" d="M23.9832 32.9752L15.4178 28.9304C15.3688 28.907 15.3284 28.8733 15.3007 28.8327C15.273 28.7921 15.259 28.7462 15.2603 28.6997C15.2616 28.6532 15.2781 28.6079 15.308 28.5684C15.338 28.5289 15.3803 28.4967 15.4305 28.4752L16.5084 28.02C16.5554 28.0002 16.6076 27.9903 16.6605 27.9913C16.7133 27.9923 16.7649 28.0041 16.8108 28.0256L25.6639 32.2064C25.7132 32.2296 25.7539 32.2633 25.7818 32.3039C25.8097 32.3445 25.8238 32.3905 25.8225 32.4371C25.8212 32.4837 25.8046 32.5291 25.7744 32.5686C25.7443 32.6081 25.7017 32.6403 25.6512 32.6616L24.8709 32.992C24.7331 33.0505 24.5795 33.0796 24.4244 33.0767C24.2693 33.0737 24.1176 33.0388 23.9832 32.9752V32.9752Z" fill="#D6D8E5"/>
<path d="M24.5079 32.2136L17.2097 28.7576C16.5912 28.4648 16.0947 27.68 16.0947 27.004V10.3064C16.0947 9.6304 16.5961 9.32 17.2145 9.6128L24.5128 13.0688C25.1312 13.3616 25.6326 14.1464 25.6326 14.8224V31.52C25.6277 32.196 25.1264 32.5064 24.5079 32.2136Z" fill="#B1B4C4"/>
<path d="M24.6338 32.5152L25.2122 32.2752L24.6572 31.4952L24.6338 32.5152Z" fill="#B1B4C4"/>
<path d="M15.9766 9.77922L16.5092 9.55042L16.4019 10.1936L15.9766 9.77922Z" fill="#B1B4C4"/>
<path d="M24.0426 32.4048L16.7443 28.9488C16.1259 28.656 15.6245 27.8704 15.6245 27.1944V10.4976C15.6245 9.82159 16.1259 9.51039 16.7443 9.80319L24.0426 13.2592C24.661 13.552 25.1624 14.3376 25.1624 15.0136V31.7104C25.1663 32.3864 24.661 32.6976 24.0426 32.4048Z" fill="#616E84"/>
<path d="M25.0843 15.056V31.7528C25.0843 32.4296 24.5839 32.74 23.9654 32.4472L21.1025 31.092L20.2129 30.6704L16.6662 28.9904C16.0478 28.6976 15.5474 27.9128 15.5474 27.236V10.54C15.5474 9.8632 16.0478 9.5536 16.6662 9.8456L23.9654 13.3016C24.5809 13.5944 25.0843 14.3792 25.0843 15.056Z" fill="#20232D"/>
<path d="M24.5586 14.8864V31.1488C24.5586 31.5584 24.2084 31.7248 23.7783 31.5192L21.4967 30.4392L21.2948 30.344L21.2275 30.3112L20.732 30.08L19.3039 29.4056L18.7118 29.1256L18.4738 29.0128L16.8565 28.2472C16.4244 28.0424 16.0762 27.544 16.0762 27.1336V10.8688C16.0762 10.4592 16.4264 10.2928 16.8565 10.4976L19.7038 11.8472V11.8536C19.7156 12.0273 19.7771 12.1962 19.8833 12.3468C19.9896 12.4973 20.1376 12.6252 20.3154 12.72C20.653 12.88 20.9261 12.7496 20.9261 12.4312C20.9261 12.4312 20.9261 12.4264 20.9261 12.424L23.7763 13.7736C24.2084 13.9784 24.5586 14.48 24.5586 14.8864Z" fill="white"/>
<path d="M20.5607 12.6021C20.6517 12.5592 20.6522 12.4201 20.562 12.2913C20.4718 12.1625 20.3249 12.0929 20.234 12.1357C20.143 12.1786 20.1425 12.3177 20.2327 12.4465C20.323 12.5753 20.4698 12.6449 20.5607 12.6021Z" fill="#2B303F"/>
<path opacity="0.1" d="M20.3163 12.4112C20.2881 12.3961 20.2645 12.3758 20.2476 12.3519C20.2306 12.328 20.2208 12.3012 20.2188 12.2736C20.2188 12.2224 20.2626 12.2024 20.3163 12.2272C20.3447 12.2423 20.3684 12.2627 20.3853 12.2868C20.4023 12.3108 20.4121 12.3378 20.4138 12.3656C20.4129 12.416 20.3699 12.4368 20.3163 12.4112Z" fill="white"/>
<path d="M25.3812 17.2528C25.3217 17.2816 25.2729 17.2528 25.2729 17.1864V16.4744C25.2736 16.4413 25.2837 16.4087 25.3025 16.3794C25.3213 16.3501 25.3483 16.3248 25.3812 16.3056V16.3056C25.4407 16.2768 25.4885 16.3056 25.4885 16.372V17.084C25.4881 17.1171 25.4781 17.1496 25.4595 17.1789C25.4408 17.2082 25.414 17.2336 25.3812 17.2528V17.2528Z" fill="#757B89"/>
<path d="M25.3812 18.4192C25.3217 18.448 25.2729 18.4192 25.2729 18.3528V17.6408C25.2736 17.6077 25.2837 17.5751 25.3025 17.5458C25.3213 17.5165 25.3483 17.4912 25.3812 17.472V17.472C25.4407 17.4432 25.4885 17.472 25.4885 17.5384V18.2504C25.4881 18.2835 25.4781 18.316 25.4595 18.3453C25.4408 18.3747 25.414 18.4 25.3812 18.4192V18.4192Z" fill="#757B89"/>
<path d="M23.1833 16.6024L17.2555 13.7952C17.1637 13.7414 17.0886 13.6707 17.0362 13.5887C16.9838 13.5067 16.9557 13.4157 16.9541 13.3232V11.984C16.9541 11.8024 17.0887 11.7184 17.2555 11.7976L23.1833 14.604C23.275 14.6581 23.35 14.729 23.4023 14.8111C23.4546 14.8932 23.4828 14.9842 23.4847 15.0768V16.4152C23.4847 16.5976 23.3491 16.6808 23.1833 16.6024Z" fill="#E9EAF2"/>
<path d="M16.9541 13.1768V14.4136L17.791 14.0488L16.9541 13.1768Z" fill="#E9EAF2"/>
<path d="M22.6301 15.2464L18.1597 13.1296V12.7488L22.6301 14.8656V15.2464Z" fill="#D9DAE2"/>
<path d="M20.37 14.7472L18.1597 13.7V13.32L20.37 14.3664V14.7472Z" fill="#D9DAE2"/>
<path d="M21.5758 22.6672L17.2555 20.6216C17.1637 20.5678 17.0886 20.4971 17.0362 20.4151C16.9838 20.3331 16.9557 20.2422 16.9541 20.1496V19.4528C16.9541 19.2712 17.0887 19.1872 17.2555 19.2664L21.5758 21.312C21.6674 21.3659 21.7424 21.4367 21.7948 21.5187C21.8471 21.6006 21.8753 21.6915 21.8772 21.784V22.48C21.8772 22.6624 21.7416 22.7464 21.5758 22.6672Z" fill="#E9EAF2"/>
<path d="M16.9541 19.98V21.2168L17.791 20.852L16.9541 19.98Z" fill="#E9EAF2"/>
<path d="M21.2334 22.0536L17.8633 20.4576V20.0768L21.2334 21.6728V22.0536Z" fill="#D9DAE2"/>
<path d="M19.3527 18.5144L23.1832 20.328C23.3491 20.408 23.4847 20.3232 23.4847 20.1416V18.8C23.4829 18.7075 23.4547 18.6166 23.4024 18.5346C23.35 18.4527 23.275 18.3819 23.1832 18.328L19.3527 16.516C19.1859 16.436 19.0513 16.5216 19.0513 16.7032V18.0424C19.053 18.1349 19.0812 18.2258 19.1336 18.3078C19.1859 18.3898 19.261 18.4605 19.3527 18.5144Z" fill="#E9EAF2"/>
<path d="M23.4849 19.9952V21.232L22.647 20.0744L23.4849 19.9952Z" fill="#E9EAF2"/>
<path d="M19.8423 17.652L22.3726 18.8504V18.4696L19.8423 17.272V17.652Z" fill="#D9DAE2"/>
<path d="M19.8423 18.2232L21.1982 18.8656V18.4848L19.8423 17.8424V18.2232Z" fill="#D9DAE2"/>
<path d="M17.2555 24.6096L23.1482 27.4C23.315 27.48 23.4496 27.3952 23.4496 27.2128V25.8744C23.448 25.7817 23.4198 25.6907 23.3675 25.6086C23.3151 25.5264 23.24 25.4556 23.1482 25.4016L17.2555 22.6112C17.0887 22.5312 16.9541 22.616 16.9541 22.7984V24.1376C16.9559 24.2301 16.9841 24.321 17.0364 24.403C17.0887 24.4849 17.1638 24.5557 17.2555 24.6096V24.6096Z" fill="#E9EAF2"/>
<path d="M23.4497 27.0672V28.304L22.6128 27.1464L23.4497 27.0672Z" fill="#E9EAF2"/>
<path d="M17.8584 23.8008L22.0274 25.7752V25.3944L17.8584 23.42V23.8008Z" fill="#D9DAE2"/>
<path d="M17.8584 24.372L21.7426 26.2112V25.8304L17.8584 23.9912V24.372Z" fill="#D9DAE2"/>
<path d="M23.1832 30.32L17.2555 27.512C17.1531 27.4571 17.0679 27.3833 17.0067 27.2964C16.9456 27.2096 16.9101 27.1121 16.9033 27.012V26.3464C16.9033 26.1624 17.0613 26.088 17.2555 26.18L23.1832 28.9864C23.2854 29.0414 23.3704 29.1153 23.4314 29.2021C23.4924 29.289 23.5277 29.3863 23.5344 29.4864V30.152C23.5344 30.336 23.3764 30.4104 23.1832 30.32ZM17.2555 26.2752C17.1169 26.2096 17.0038 26.2624 17.0038 26.3936V27.06C17.0086 27.1315 17.0339 27.2011 17.0777 27.2631C17.1214 27.325 17.1823 27.3777 17.2555 27.4168L23.1832 30.2232C23.3217 30.2888 23.4339 30.236 23.4339 30.1048V29.44C23.4293 29.3686 23.4041 29.299 23.3606 29.237C23.317 29.175 23.2563 29.1223 23.1832 29.0832L17.2555 26.2752Z" fill="#E9EAF2"/>
<path d="M17.4896 27.2896L17.3892 27.2424V26.608L17.4896 26.6552V27.2896Z" fill="#E9EAF2"/>
<path opacity="0.4" d="M35.3062 24.8888C37.1723 24.8888 38.6851 24.1725 38.6851 23.2888C38.6851 22.4052 37.1723 21.6888 35.3062 21.6888C33.44 21.6888 31.9272 22.4052 31.9272 23.2888C31.9272 24.1725 33.44 24.8888 35.3062 24.8888Z" fill="#D6D8E5"/>
<path d="M37.1644 22.88C36.9293 23.04 36.5791 22.8936 36.5655 22.908C36.2897 23.1181 36.0002 23.3157 35.6983 23.5C35.552 23.5944 35.3237 23.7208 35.3647 23.9C35.4388 24.2248 36.0729 24.1248 36.3119 24.0256C36.5508 23.9264 36.7459 23.7616 36.9722 23.6464C37.1342 23.5664 37.2932 23.5216 37.3185 23.3544C37.3351 23.2552 37.2083 22.8752 37.1644 22.88Z" fill="#38226D"/>
<path d="M37.3161 23.2888C37.2859 23.4488 37.1288 23.4928 36.9689 23.5744C36.7387 23.6912 36.5358 23.8608 36.2968 23.96C36.0763 24.0512 35.5252 24.1424 35.3701 23.9104C35.454 24.224 36.0763 24.1256 36.3134 24.0272C36.5504 23.9288 36.7474 23.7632 36.9737 23.648C37.1357 23.568 37.2947 23.5232 37.32 23.356C37.3214 23.3336 37.3201 23.3111 37.3161 23.2888V23.2888Z" fill="#9C73FF"/>
<path d="M35.1275 22.2576C34.8925 22.4176 34.4808 22.2432 34.4642 22.2576C34.2191 22.4607 33.9602 22.6522 33.6888 22.8312C33.5424 22.9256 33.3142 23.052 33.3561 23.2312C33.4293 23.556 34.0633 23.456 34.3023 23.3568C34.5413 23.2576 34.7374 23.0928 34.9637 22.9776C35.1246 22.8976 35.2836 22.8528 35.309 22.6856C35.3236 22.5864 35.1695 22.2536 35.1275 22.2576Z" fill="#38226D"/>
<path d="M35.301 22.64C35.2707 22.8 35.1137 22.844 34.9537 22.9256C34.7235 23.0432 34.5206 23.212 34.2817 23.3112C34.0612 23.4032 33.5101 23.4944 33.355 23.2624C33.4389 23.5752 34.0622 23.4768 34.2982 23.3784C34.5343 23.28 34.7323 23.1152 34.9596 22.9992C35.1205 22.9192 35.2795 22.8744 35.3049 22.7072C35.3062 22.6848 35.3049 22.6623 35.301 22.64V22.64Z" fill="#9C73FF"/>
<path d="M37.1739 15.76C37.1632 16.052 37.052 17.3176 37.0032 17.9872C36.9544 18.6568 36.9418 19.4784 36.9418 19.4784C36.9418 19.4784 37.0832 19.9664 37.1739 20.54C37.2646 21.1136 37.1739 22.924 37.1739 22.924C37.0842 22.9715 36.9797 22.9967 36.873 22.9967C36.7662 22.9967 36.6618 22.9715 36.5721 22.924C36.5721 22.924 36.1965 21.4752 36.0219 20.8224C35.8473 20.1696 35.818 19.7936 35.7293 19.3888C35.62 18.8992 35.384 16.6144 35.384 16.6144L35.2864 16.6192L35.0367 19.2C35.1143 19.3902 35.1675 19.5864 35.1957 19.7856C35.264 20.2056 35.1235 22.3192 35.1235 22.3192C35.0231 22.365 34.9092 22.3871 34.7944 22.3831C34.6796 22.3792 34.5683 22.3493 34.4729 22.2968C34.4729 22.2968 33.8447 19.4968 33.8447 19.072C33.8447 18.7904 33.9033 15.072 33.9033 15.072L37.1739 15.76Z" fill="#593F3F"/>
<path d="M36.3223 10.1304C36.3223 10.1304 36.2823 10.7656 36.2999 10.8224C36.3174 10.8792 36.6549 11.0624 36.7535 11.1312C36.852 11.2 36.218 11.7112 35.9097 11.8272C35.6015 11.9432 34.6241 11.6376 34.6075 11.244C34.5909 10.8504 34.7743 10.52 34.9245 10.5024C35.0747 10.4848 36.3223 10.1304 36.3223 10.1304Z" fill="#FFCEA9"/>
<path d="M34.4533 10.6976C34.4533 10.6976 34.2436 10.4344 33.4779 11.8976C32.7121 13.3608 32.24 13.7448 31.8967 14.1088C31.5865 14.44 31.4333 13.9136 31.4333 13.9136C31.4333 13.9136 31.6801 13.6584 31.4743 13.6584C31.3592 13.664 31.1982 13.8584 31.1982 13.8584L31.4606 14.2024L32.1434 14.4864C32.1434 14.4864 32.9794 13.856 33.2496 13.4672C33.5422 13.1608 33.9802 12.5528 33.9802 12.5528L34.4533 10.6976Z" fill="#FFCEA9"/>
<path d="M31.2013 14.1552C31.1935 14.1504 30.9896 13.956 30.9896 13.956C30.9896 13.956 30.8677 13.8688 31.0004 13.8624C31.133 13.856 31.6061 13.8552 31.6061 13.8552C31.6545 13.8514 31.7028 13.8625 31.7417 13.8864C31.8012 13.9248 32.4869 14.6368 32.4869 14.6368C32.4869 14.6368 32.5172 14.68 32.4284 14.6848C32.3396 14.6896 31.7651 14.6848 31.7651 14.6848L31.2013 14.1552Z" fill="#20232D"/>
<path d="M31.1455 14.0352C31.1455 14.0352 30.9436 14.004 30.9904 14.1632C31.0373 14.3224 31.327 14.4872 31.327 14.4872L31.6294 14.6952C31.6663 14.7147 31.7093 14.725 31.7532 14.725C31.7972 14.725 31.8402 14.7147 31.8771 14.6952C31.9552 14.6552 32.0644 14.5464 31.9444 14.4432C31.8244 14.34 31.7171 14.1136 31.4109 14.1232C31.4109 14.1232 31.3943 14.0632 31.2158 14.0432" fill="#FFCEA9"/>
<path d="M36.409 10.932C36.409 10.932 35.8462 11.6184 35.0619 11.6832C34.8151 11.4832 34.7927 10.772 35.1351 10.5448C35.1351 10.5448 34.82 10.336 34.6044 10.3768C34.3493 10.4898 34.1541 10.6762 34.0562 10.9C33.9119 11.2624 33.8309 11.68 33.8436 12.3544C33.8563 13.0288 33.8436 15.088 33.8436 15.088C33.8436 15.088 33.9548 15.524 34.6639 15.848C35.3731 16.172 35.8959 16.2032 36.3836 16.1112C36.7806 16.0352 37.1084 15.9208 37.245 15.6848C37.2098 15.212 36.9523 13.9792 37.0499 13.3848C37.1474 12.7904 37.2986 12.3448 37.3425 11.8648C37.3864 11.3848 37.2645 11.3936 36.9709 11.2248C36.7925 11.1161 36.6047 11.0182 36.409 10.932V10.932Z" fill="#F4F4F4"/>
<path d="M36.7233 16.0392C36.8404 15.932 37.0413 15.3376 37.1564 14.9624C37.2675 14.5412 37.29 14.1074 37.2227 13.68C37.1194 13.168 36.8326 12.4592 36.7516 12.1656C36.6706 11.872 36.7779 11.7472 36.9369 11.6288C37.1233 11.4896 37.4013 11.5312 37.5807 11.9392C37.8149 12.5035 37.9723 13.0873 38.0499 13.68C38.092 14.1214 38.0448 14.5656 37.9104 14.9944C37.7905 15.3944 37.6178 15.684 37.3895 16.0504C37.3281 16.1496 37.1876 16.4288 37.0969 16.6304C37.0062 16.832 36.617 16.1368 36.7233 16.0392Z" fill="#FFCEA9"/>
<path d="M34.5683 9.18321C34.661 8.68961 35.0941 8.31601 35.7144 8.34401C35.9639 8.35476 36.203 8.42946 36.3979 8.55759C36.5928 8.68571 36.7338 8.86079 36.8009 9.05813C36.868 9.25547 36.858 9.46511 36.7721 9.65749C36.6862 9.84988 36.5288 10.0153 36.3221 10.1304C36.2998 10.205 36.2671 10.2772 36.2246 10.3456C36.0051 10.556 35.3418 10.6864 35.1516 10.6656C34.9068 10.6368 34.7751 10.5528 34.658 10.3336C34.4532 9.94481 34.5176 9.42721 34.5683 9.18321Z" fill="#FFCEA9"/>
<path d="M36.3223 10.1304L36.2657 9.70001C36.2657 9.70001 36.694 8.78962 35.6805 8.96402C35.0113 9.08002 34.8435 9.12961 34.6407 8.76161C34.4378 8.39361 35.1547 8.06321 36.0063 8.15521C36.3007 8.1793 36.5733 8.29342 36.7698 8.47487C36.9662 8.65632 37.0722 8.89179 37.0666 9.13441C37.0393 9.40561 36.9515 9.95361 36.3223 10.1304Z" fill="#3A2C6D"/>
<path d="M38.0559 12.6C38.0559 12.6 37.5038 13.0512 36.8492 12.92C36.7517 12.868 36.5313 11.8136 36.5313 11.8136C36.5313 11.8136 36.5312 11.2296 37.0775 11.2448C37.6237 11.26 38.0559 12.6 38.0559 12.6Z" fill="#EDEDED"/>
<path d="M33.8476 12.008C33.8476 12.008 33.4896 12.0448 33.3706 11.9072C33.3921 11.6672 33.8691 10.4432 34.6094 10.3768C34.4291 10.5105 34.2734 10.6649 34.1471 10.8352C33.8827 11.1944 33.8476 12.008 33.8476 12.008Z" fill="#EDEDED"/>
<path opacity="0.4" d="M3.37308 40C5.23598 40 6.74617 39.2851 6.74617 38.4032C6.74617 37.5213 5.23598 36.8064 3.37308 36.8064C1.51018 36.8064 0 37.5213 0 38.4032C0 39.2851 1.51018 40 3.37308 40Z" fill="#D6D8E5"/>
<path d="M0.899573 26.4424C0.86153 26.7112 0.471353 27.8704 0.555241 28.268C0.639129 28.6656 1.97451 29.3296 1.97451 29.3296L2.15985 28.6496L1.41948 28.0552L1.61945 26.9288L0.899573 26.4424Z" fill="#FFCEA9"/>
<path d="M1.93226 25.2992C1.80224 25.2501 1.65481 25.2418 1.51785 25.2759C1.38089 25.3099 1.26389 25.384 1.18897 25.484C0.993883 25.7512 0.788065 26.6664 0.769531 26.8232C0.769531 26.8232 1.04558 27.1352 1.45917 27.0832L1.93226 25.2992Z" fill="#EDEDED"/>
<path d="M3.45816 38.228C3.74875 38.2939 4.05929 38.2631 4.3224 38.1424C4.53114 38.148 5.66168 37.7512 5.81483 38.084C5.94944 38.376 5.45977 38.644 5.19835 38.6984C4.62771 38.8112 4.20535 39.0448 3.97612 39.0848C3.80541 39.1144 3.58594 39.1336 3.44743 39.0232C3.28453 38.8912 3.29818 38.4 3.45816 38.228Z" fill="#2B2A30"/>
<path d="M3.97587 39.004C4.2051 38.964 4.62747 38.7304 5.1981 38.6176C5.41758 38.5736 5.79507 38.3776 5.83311 38.1424C5.88384 38.4112 5.44294 38.6496 5.1981 38.7024C4.62747 38.8152 4.2051 39.0488 3.97587 39.0888C3.80517 39.1184 3.58569 39.1376 3.44718 39.0272C3.41195 38.9955 3.38653 38.9574 3.37305 38.916C3.45824 38.9681 3.5571 39.0032 3.66176 39.0185C3.76641 39.0338 3.87397 39.0288 3.97587 39.004V39.004Z" fill="#BF4B4B"/>
<path d="M1.62526 37.5528C1.91584 37.6187 2.22639 37.5879 2.4895 37.4672C2.69727 37.4728 3.82781 37.076 3.98193 37.4088C4.11654 37.7008 3.62686 37.9688 3.36545 38.0232C2.79481 38.1368 2.37147 38.3696 2.14224 38.4096C1.97154 38.4392 1.75206 38.4584 1.61453 38.348C1.45065 38.216 1.46333 37.7272 1.62526 37.5528Z" fill="#2B2A30"/>
<path d="M2.14579 38.3288C2.37502 38.2888 2.79836 38.0552 3.369 37.9424C3.5875 37.8984 3.96597 37.7024 4.00401 37.4672C4.05474 37.736 3.61383 37.9744 3.369 38.0272C2.79836 38.1408 2.37502 38.3736 2.14579 38.4136C1.97509 38.4432 1.75562 38.4624 1.61808 38.352C1.58289 38.3202 1.55718 38.2821 1.54297 38.2408C1.62816 38.2929 1.72702 38.328 1.83168 38.3433C1.93633 38.3586 2.04389 38.3536 2.14579 38.3288V38.3288Z" fill="#BF4B4B"/>
<path d="M1.60261 35.0344C1.65093 34.6901 1.73812 34.3503 1.86305 34.0192C1.86305 34.0192 1.78599 33.1432 1.74697 32.312C1.7021 31.3696 1.30315 30.54 1.61821 29.7872L5.1698 30.4344C5.1698 30.4344 4.95521 34.1944 4.90741 34.648C4.88142 35.0021 4.82831 35.3545 4.74841 35.7032C4.58649 36.4328 4.32312 38.168 4.32312 38.168C3.94855 38.3472 3.45595 38.248 3.45595 38.248C3.45595 38.248 3.48326 36.0528 3.50765 35.528C3.53691 34.888 3.56032 34.9352 3.56032 34.9352L3.44327 33.3352L3.36718 32.54C3.36718 32.54 3.26964 33.124 3.20526 33.6456C3.14868 34.1 3.01017 34.5112 2.86581 35.3576C2.73607 36.092 2.52538 37.5672 2.52538 37.5672C2.15081 37.7456 1.64163 37.5976 1.64163 37.5976C1.64163 37.5976 1.50116 35.6712 1.60261 35.0344Z" fill="#E88C40"/>
<path d="M2.1208 25.3152C2.391 25.3264 2.59194 25.3832 2.6251 25.3152C2.65438 25.2009 2.67522 25.0852 2.68753 24.9688C2.65632 24.904 2.629 24.8352 2.629 24.8352C2.29052 24.664 2.18323 24.3632 2.14128 24.0136C2.0652 23.4152 2.45928 22.8936 3.18891 22.8288C3.87172 22.7696 4.37992 23.1656 4.51453 23.7088C4.58672 23.9768 4.73108 24.4832 4.53599 24.924C4.42675 25.1704 4.28628 25.3664 4.14582 25.404C4.00998 25.4005 3.8745 25.3906 3.74003 25.3744V25.3744C3.74003 25.3744 3.70394 25.54 3.67858 25.6472C3.65322 25.7544 3.66395 25.8072 3.92244 25.9408C4.18093 26.0744 3.53226 26.3408 3.106 26.3144C2.67973 26.288 2.20273 26.0744 2.07105 25.852C1.92278 25.604 1.93546 25.308 2.1208 25.3152Z" fill="#FFCEA9"/>
<path d="M2.51091 25.348C2.43677 25.5016 2.62698 25.6888 3.13422 25.8192C3.64145 25.9496 3.68729 25.7816 3.68729 25.7816C3.68729 25.7816 4.43058 26.06 4.67249 26.1984C4.9778 26.3728 5.11241 26.8784 5.15338 27.7312C5.20118 28.7176 5.20508 30.1816 5.16509 30.4344C5.16509 30.4344 4.5964 30.8992 3.86775 30.8504C3.13909 30.8016 1.91686 30.2728 1.6174 29.8648C1.6252 28.9992 1.74909 28.8584 1.57838 28.36C1.18821 27.2192 0.981412 26.752 1.17065 25.9936C1.32769 25.3688 1.54717 25.2912 1.85346 25.2968C2.07354 25.3045 2.29298 25.3216 2.51091 25.348V25.348Z" fill="#F4F4F4"/>
<path d="M6.29728 28.5472C5.70031 28.6704 5.55985 28.3616 5.48084 28.1056C5.2916 27.4856 5.1882 26.9264 5.04676 26.5744C4.87996 26.16 4.70536 26.0944 4.4615 26.0144C4.16886 25.92 3.925 26.12 4.0206 26.648C4.13472 27.272 4.28397 27.7104 4.56782 28.4496C4.64293 28.6424 4.80973 28.9848 5.05554 29.1504C5.36378 29.3552 5.82809 29.3464 6.53041 29.2032C6.82987 29.1416 7.1586 28.9952 7.72533 28.7784C7.87945 28.72 7.99845 28.68 8.29109 28.568C8.58436 28.4599 8.84138 28.2952 9.04023 28.088C9.19337 27.9064 9.16606 27.7904 9.13777 27.7496C9.10948 27.7088 9.07632 27.7392 8.99438 27.8152C8.87642 27.9446 8.73064 28.0552 8.56421 28.1416C8.56421 28.1416 8.75345 27.9816 8.85684 27.8776C8.94832 27.7855 9.02442 27.6838 9.08315 27.5752C9.1368 27.4688 9.0256 27.3248 8.94073 27.4008C8.85587 27.4768 8.81588 27.5528 8.66176 27.7048C8.57843 27.7854 8.48381 27.8576 8.37985 27.92C8.47566 27.8135 8.5608 27.7009 8.63444 27.5832C8.73199 27.4192 8.40521 27.5032 8.21793 27.6632C8.08137 27.7792 7.96529 27.8464 7.96139 27.8144C7.95749 27.7824 7.69217 28.0168 7.55658 28.1344C7.42099 28.252 6.86596 28.4296 6.29728 28.5472Z" fill="#FFCEA9"/>
<path d="M4.23827 25.9288C4.63722 25.88 4.92108 26.0272 5.09568 26.5232C5.27029 27.0192 5.39514 27.4264 5.39514 27.4264C5.23731 27.6133 4.99822 27.7435 4.72696 27.7904C4.249 27.8848 4.07732 27.6984 4.07732 27.6984C4.07732 27.6984 3.94466 27.1784 3.86272 26.8248C3.78078 26.4712 3.74469 25.988 4.23827 25.9288Z" fill="#EDEDED"/>
<path d="M4.48721 23.632C4.48721 23.632 5.11734 22.8456 3.75172 22.6856C2.76653 22.5704 2.13346 23.0896 2.06031 23.6528C1.99007 24.1912 2.39391 24.7496 2.68654 24.972C2.82895 25.0136 3.13524 25.0376 3.5381 24.8872C3.55416 24.7407 3.56035 24.5935 3.55664 24.4464C3.55664 24.4464 3.07672 23.6176 4.48721 23.632Z" fill="#2B2A30"/>
<path d="M7.68846 27.9288C7.68846 27.9288 7.53336 27.6976 7.63188 27.64C7.7304 27.5824 7.87087 27.8 7.89915 27.884C7.92744 27.968 7.88842 27.8584 7.88842 27.8584C7.88842 27.8584 7.7821 27.5968 7.85136 27.5464C7.92061 27.496 8.01328 27.608 8.10595 27.772C8.19861 27.936 8.12838 27.7584 8.12838 27.7584C8.12838 27.7584 7.97524 27.496 8.04059 27.4592C8.12838 27.4112 8.27275 27.5664 8.35859 27.7064C8.44443 27.8464 8.24348 28.0128 8.24348 28.0128L7.68846 27.9288Z" fill="#FFCEA9"/>
<path d="M7.98783 28.3424L7.4133 28.068C7.36355 28.0448 7.37038 28.0048 7.42695 27.9776L8.82574 27.3152C8.85529 27.3015 8.88841 27.2938 8.92234 27.2927C8.95627 27.2915 8.99003 27.2971 9.02083 27.3088L9.60024 27.5832C9.64901 27.6064 9.64316 27.6472 9.58658 27.6736L8.17902 28.336C8.15003 28.3494 8.11759 28.3569 8.08436 28.358C8.05113 28.3591 8.01805 28.3538 7.98783 28.3424V28.3424Z" fill="#B1B4C4"/>
<path d="M7.37549 28.0288V27.9848L7.43792 28.004L7.37549 28.0288Z" fill="#B1B4C4"/>
<path d="M9.62494 27.6208V27.5792L9.5752 27.6048L9.62494 27.6208Z" fill="#B1B4C4"/>
<path d="M7.98783 28.3056L7.4133 28.0312C7.36355 28.008 7.37038 27.9672 7.42695 27.9408L8.82086 27.28C8.85034 27.2661 8.88347 27.2582 8.91745 27.2571C8.95142 27.256 8.98521 27.2617 9.01595 27.2736L9.59536 27.548C9.64413 27.5712 9.63828 27.6112 9.58171 27.6384L8.18292 28.3008C8.15321 28.3142 8.12001 28.3217 8.08608 28.3225C8.05216 28.3234 8.01848 28.3175 7.98783 28.3056V28.3056Z" fill="#616E84"/>
<path d="M7.50746 28.2C7.51027 28.1987 7.51015 28.1942 7.50719 28.19C7.50424 28.1858 7.49958 28.1834 7.49677 28.1847C7.49397 28.1861 7.49409 28.1905 7.49705 28.1948C7.5 28.199 7.50466 28.2013 7.50746 28.2Z" fill="#757B89"/>
<path d="M7.50555 28.1007C7.50834 28.0994 7.50821 28.0949 7.50525 28.0907C7.50229 28.0865 7.49761 28.0841 7.49482 28.0855C7.49202 28.0868 7.49215 28.0913 7.49511 28.0955C7.49807 28.0997 7.50275 28.102 7.50555 28.1007Z" fill="#757B89"/>
<path d="M7.53338 28.1149C7.53618 28.1135 7.53604 28.109 7.53308 28.1048C7.53012 28.1006 7.52545 28.0983 7.52265 28.0996C7.51985 28.1009 7.51998 28.1054 7.52294 28.1096C7.52591 28.1138 7.53058 28.1162 7.53338 28.1149Z" fill="#757B89"/>
<path d="M7.5617 28.1272C7.5645 28.1258 7.56436 28.1213 7.5614 28.1171C7.55844 28.1129 7.55377 28.1106 7.55097 28.1119C7.54817 28.1132 7.5483 28.1177 7.55126 28.1219C7.55423 28.1261 7.5589 28.1285 7.5617 28.1272Z" fill="#757B89"/>
<path d="M7.80095 28.2411C7.80375 28.2398 7.80362 28.2353 7.80066 28.2311C7.7977 28.2269 7.79302 28.2246 7.79022 28.2259C7.78743 28.2272 7.78756 28.2317 7.79052 28.2359C7.79348 28.2401 7.79816 28.2425 7.80095 28.2411Z" fill="#757B89"/>
<path d="M7.82879 28.2541C7.83159 28.2528 7.83145 28.2483 7.82849 28.2441C7.82553 28.2399 7.82086 28.2375 7.81806 28.2389C7.81526 28.2402 7.81539 28.2447 7.81835 28.2489C7.82132 28.2531 7.82599 28.2554 7.82879 28.2541Z" fill="#757B89"/>
<path d="M7.85662 28.2676C7.85942 28.2663 7.85928 28.2618 7.85632 28.2576C7.85336 28.2534 7.84869 28.251 7.84589 28.2524C7.84309 28.2537 7.84322 28.2582 7.84618 28.2624C7.84915 28.2666 7.85382 28.2689 7.85662 28.2676Z" fill="#757B89"/>
<path d="M7.88445 28.2806C7.88725 28.2792 7.88712 28.2748 7.88415 28.2706C7.88119 28.2663 7.87652 28.264 7.87372 28.2653C7.87092 28.2667 7.87106 28.2711 7.87402 28.2754C7.87698 28.2796 7.88165 28.2819 7.88445 28.2806Z" fill="#757B89"/>
<path d="M7.71474 28.204L7.63769 28.168C7.63499 28.1663 7.63279 28.1641 7.63127 28.1616C7.62975 28.1591 7.62894 28.1564 7.62891 28.1536C7.62891 28.1488 7.62891 28.1464 7.63769 28.1488L7.71474 28.1848C7.71742 28.1863 7.71962 28.1884 7.72115 28.1907C7.72267 28.1931 7.72349 28.1957 7.72352 28.1984C7.72352 28.204 7.71962 28.2064 7.71474 28.204Z" fill="#757B89"/>
<path d="M9.44913 27.7248L9.37792 27.7584C9.37792 27.7584 9.37012 27.7584 9.37012 27.7536C9.37031 27.7511 9.3711 27.7487 9.37244 27.7465C9.37378 27.7443 9.37564 27.7424 9.37792 27.7408L9.44913 27.7072C9.44913 27.7072 9.45791 27.7072 9.45791 27.712C9.45788 27.7146 9.45706 27.7171 9.45553 27.7193C9.45399 27.7215 9.45179 27.7234 9.44913 27.7248V27.7248Z" fill="#757B89"/>
<path d="M9.34025 27.7768L9.26904 27.8104C9.26904 27.8104 9.26124 27.8104 9.26124 27.8056C9.26116 27.8031 9.26183 27.8006 9.26319 27.7984C9.26455 27.7962 9.26656 27.7942 9.26904 27.7928L9.34025 27.7592C9.34025 27.7592 9.34903 27.7592 9.34903 27.764C9.34892 27.7665 9.34806 27.769 9.34653 27.7713C9.34501 27.7735 9.34285 27.7754 9.34025 27.7768Z" fill="#757B89"/>
<path d="M7.98783 28.2992L7.4133 28.0248C7.36355 28.0016 7.37038 27.9608 7.42695 27.9336L8.82574 27.2712C8.85529 27.2575 8.88841 27.2498 8.92234 27.2486C8.95627 27.2475 8.99003 27.2531 9.02083 27.2648L9.60024 27.5392C9.64901 27.5624 9.64316 27.6032 9.58658 27.6296L8.1878 28.292C8.15778 28.3066 8.12381 28.3149 8.08892 28.3162C8.05403 28.3175 8.0193 28.3116 7.98783 28.2992V28.2992Z" fill="#20232D"/>
<path d="M9.52913 27.5504L9.3038 27.44C9.28874 27.4464 9.27201 27.4498 9.25503 27.4498C9.23804 27.4498 9.22131 27.4464 9.20625 27.44C9.17894 27.4272 9.17894 27.4072 9.20625 27.3944L8.98093 27.2872C8.96152 27.2793 8.94016 27.2752 8.9185 27.2752C8.89684 27.2752 8.87547 27.2793 8.85607 27.2872L7.49045 27.932C7.45631 27.9488 7.45631 27.9752 7.49045 27.9912L8.03962 28.2512C8.05886 28.2591 8.08006 28.2632 8.10156 28.2632C8.12307 28.2632 8.14427 28.2591 8.16351 28.2512L9.52913 27.6056C9.56424 27.5928 9.56424 27.5664 9.52913 27.5504Z" fill="#2B303F"/>
<path opacity="0.5" d="M9.52913 27.5504L9.3038 27.44C9.28874 27.4464 9.27201 27.4498 9.25503 27.4498C9.23804 27.4498 9.22131 27.4464 9.20625 27.44C9.17894 27.4272 9.17894 27.4072 9.20625 27.3944L8.98093 27.2872C8.96152 27.2793 8.94016 27.2752 8.9185 27.2752C8.89684 27.2752 8.87547 27.2793 8.85607 27.2872L7.49045 27.932C7.45631 27.9488 7.45631 27.9752 7.49045 27.9912L8.03962 28.2512C8.05886 28.2591 8.08006 28.2632 8.10156 28.2632C8.12307 28.2632 8.14427 28.2591 8.16351 28.2512L9.52913 27.6056C9.56424 27.5928 9.56424 27.5664 9.52913 27.5504Z" fill="url(#paint0_linear_21_359)"/>
<path d="M9.23972 27.4392C9.25426 27.4392 9.26605 27.4338 9.26605 27.4272C9.26605 27.4206 9.25426 27.4152 9.23972 27.4152C9.22517 27.4152 9.21338 27.4206 9.21338 27.4272C9.21338 27.4338 9.22517 27.4392 9.23972 27.4392Z" fill="#2B303F"/>
<path opacity="0.1" d="M9.23193 27.4312C9.23193 27.4312 9.23193 27.4256 9.23193 27.424C9.23427 27.4228 9.23698 27.4221 9.23974 27.4221C9.2425 27.4221 9.2452 27.4228 9.24754 27.424C9.24754 27.424 9.24754 27.4288 9.24754 27.4312C9.24252 27.4328 9.23695 27.4328 9.23193 27.4312Z" fill="white"/>
<path d="M8.88847 28.2328C8.88847 28.2328 9.19475 28.0064 9.1811 27.7064C9.16256 27.4976 9.00844 27.648 9.00844 27.648L8.85335 27.8784C8.77644 27.9635 8.67619 28.0326 8.56072 28.08C8.45203 28.0886 8.34394 28.1017 8.23687 28.1192C8.04666 28.1496 7.85742 28.3448 7.85742 28.3448L8.09641 28.4992L8.88847 28.2328Z" fill="#FFCEA9"/>
<path d="M7.46691 17.6304L1.82787 14.96C1.77369 14.9294 1.71179 14.9092 1.64678 14.9009C1.58176 14.8926 1.5153 14.8964 1.45233 14.912C1.42825 14.9202 1.40562 14.9309 1.38502 14.944L0.755859 15.2392L1.24358 15.7088V17.6368C1.25453 17.8036 1.31323 17.9659 1.41491 18.1106C1.51659 18.2552 1.6584 18.3782 1.82885 18.4696L3.58464 19.3744L4.06164 20.2712L3.55928 20.9696L4.25868 20.6416L4.92295 20.0088L7.04259 20.9504L7.15672 21.5104L7.87074 21.176L7.89025 21.1664H7.89708C7.95158 21.1304 7.99435 21.0838 8.02158 21.0309C8.04881 20.978 8.05966 20.9204 8.05315 20.8632V18.4632C8.04209 18.2964 7.98325 18.134 7.88139 17.9893C7.77954 17.8447 7.63754 17.7217 7.46691 17.6304V17.6304Z" fill="#FF7B7B" fill-opacity="0.37"/>
<path d="M6.76874 17.9584L1.1297 15.2888C0.805852 15.1352 0.544434 15.2592 0.544434 15.5656V17.9656C0.555385 18.1323 0.614079 18.2946 0.71576 18.4393C0.817442 18.584 0.959251 18.707 1.1297 18.7984L2.8855 19.704L3.55953 20.9704L4.22381 20.3376L6.76776 21.4688C7.09161 21.6216 7.35303 21.4976 7.35303 21.1912V18.7912C7.34218 18.6245 7.28364 18.4622 7.18213 18.3176C7.08062 18.1729 6.939 18.0498 6.76874 17.9584V17.9584Z" fill="#E88C40"/>
<path d="M39.4127 2.74079L33.762 0.0655949C33.7077 0.0347161 33.6457 0.0142878 33.5805 0.00583735C33.5153 -0.00261313 33.4486 0.00113273 33.3854 0.0167949V0.0167949C33.3612 0.0246158 33.3385 0.0354046 33.3181 0.0487949L32.688 0.344795L33.1757 0.814395V2.74719C33.1866 2.91418 33.2452 3.07673 33.3469 3.22168C33.4486 3.36664 33.5904 3.48993 33.761 3.58159L35.5217 4.48879L35.9996 5.38719L35.4973 6.08719L36.1986 5.75999L36.8639 5.12559L38.9864 6.0696L39.1015 6.6296L39.8165 6.29359L39.836 6.28479H39.8429C39.8977 6.24892 39.9407 6.20242 39.9681 6.14949C39.9956 6.09655 40.0065 6.03885 39.9999 5.98159V3.58159C39.99 3.41336 39.9316 3.24944 39.8296 3.10329C39.7275 2.95714 39.5846 2.83291 39.4127 2.74079V2.74079Z" fill="#593F3F"/>
<path opacity="0.2" d="M39.402 2.73936L33.7512 0.0641606C33.697 0.0332817 33.635 0.0128535 33.5698 0.00440303C33.5046 -0.00404745 33.4379 -0.000301592 33.3747 0.0153606C33.3504 0.0231814 33.3277 0.0339703 33.3074 0.0473606L32.6772 0.343361L33.165 0.812961V2.74576C33.1758 2.91275 33.2345 3.0753 33.3362 3.22025C33.4378 3.3652 33.5797 3.4885 33.7502 3.58016L35.5109 4.48736L35.9889 5.38576L35.4865 6.08576L36.1879 5.75856L36.8531 5.12416L38.9757 6.06816L39.0908 6.62816L39.8058 6.29216L39.8253 6.28336H39.8321C39.8869 6.24749 39.93 6.20098 39.9574 6.14805C39.9848 6.09512 39.9957 6.03742 39.9892 5.98016V3.58016C39.9793 3.41192 39.9209 3.24801 39.8188 3.10185C39.7168 2.9557 39.5739 2.83147 39.402 2.73936Z" fill="#593F3F"/>
<path d="M38.7116 3.06961L33.0618 0.394407C32.738 0.240807 32.4766 0.365607 32.4766 0.672807V3.07281C32.4874 3.2398 32.5461 3.40234 32.6478 3.5473C32.7494 3.69225 32.8913 3.81555 33.0618 3.90721L34.8235 4.81761L35.4995 6.08721L36.1647 5.45281L38.7126 6.58561C39.0374 6.73921 39.2978 6.61521 39.2978 6.30801V3.90801C39.2877 3.74024 39.2293 3.57683 39.1274 3.43112C39.0255 3.2854 38.883 3.16153 38.7116 3.06961V3.06961Z" fill="#756060" fill-opacity="0.84"/>
<path d="M34.335 2.96125C34.4932 2.88636 34.4932 2.64357 34.3351 2.41896C34.177 2.19436 33.9206 2.07299 33.7624 2.14788C33.6043 2.22277 33.6043 2.46556 33.7624 2.69016C33.9205 2.91477 34.1769 3.03614 34.335 2.96125Z" fill="white"/>
<path d="M36.1518 3.77052C36.3107 3.69563 36.3113 3.45201 36.1532 3.22637C35.9951 3.00073 35.7381 2.87853 35.5792 2.95342C35.4203 3.02831 35.4197 3.27193 35.5778 3.49757C35.7359 3.72321 35.9929 3.84541 36.1518 3.77052Z" fill="white"/>
<path d="M37.6866 4.54902C37.8448 4.47413 37.8448 4.23134 37.6867 4.00673C37.5286 3.78213 37.2722 3.66076 37.114 3.73565C36.9559 3.81054 36.9558 4.05333 37.1139 4.27793C37.272 4.50254 37.5284 4.62391 37.6866 4.54902Z" fill="white"/>
<path d="M29.7001 7.7488C29.7001 7.1888 29.2192 6.5032 28.6271 6.2224C28.3111 6.0728 28.0282 6.0688 27.8321 6.1808L27.4751 6.3464L27.6273 6.396C27.575 6.50245 27.5494 6.61646 27.5522 6.7312C27.5522 7.2912 28.033 7.976 28.6251 8.2576C28.7165 8.30205 28.815 8.33572 28.9178 8.3576V8.5328L29.3782 8.32C29.5811 8.2248 29.7001 8.028 29.7001 7.7488Z" fill="#DD990E"/>
<path d="M28.9916 8.50675C29.411 8.30814 29.4108 7.66388 28.9911 7.06773C28.5715 6.47159 27.8913 6.14932 27.4718 6.34792C27.0524 6.54652 27.0526 7.19079 27.4723 7.78693C27.8919 8.38308 28.5722 8.70535 28.9916 8.50675Z" fill="#F9CB07"/>
<path d="M27.916 7.15162C27.9757 7.12334 27.9756 7.03155 27.9158 6.94661C27.856 6.86166 27.7592 6.81573 27.6994 6.844C27.6397 6.87228 27.6398 6.96406 27.6996 7.04901C27.7594 7.13395 27.8563 7.17989 27.916 7.15162Z" fill="#CC8B09"/>
<path d="M28.749 7.54517C28.8087 7.51689 28.8086 7.42511 28.7488 7.34016C28.6891 7.25522 28.5922 7.20928 28.5324 7.23756C28.4727 7.26583 28.4728 7.35762 28.5326 7.44256C28.5924 7.52751 28.6893 7.57345 28.749 7.54517Z" fill="#CC8B09"/>
<path d="M27.8081 7.5408C27.8081 7.5408 27.9486 7.856 28.2315 7.9896C28.5143 8.1232 28.6802 7.9536 28.6802 7.9536L27.8081 7.5408Z" fill="#CC8B09"/>
<path d="M9.74658 24.5056L10.3533 24.7936V23.5112L9.74658 23.224V24.5056Z" fill="#4399FF"/>
<path d="M10.3533 23.5128L9.74658 23.2248L10.2382 22.992L10.8693 23.2816L10.3533 23.5128Z" fill="#70B6FC"/>
<path d="M12.6571 24.4272C12.6546 24.3667 12.6336 24.3077 12.5961 24.2556C12.5586 24.2035 12.5058 24.1599 12.4425 24.1288L11.7314 23.792L11.8446 23.3544V23.3216C11.845 23.275 11.8371 23.2287 11.8212 23.184C11.7997 23.1264 11.7236 22.9896 11.6748 23.0176L10.9306 23.3704C10.8857 23.3808 10.8633 23.4232 10.8633 23.4872V24.56C10.8679 24.624 10.8906 24.6863 10.9297 24.7419C10.9689 24.7974 11.0233 24.8447 11.0886 24.88L12.104 25.36C12.1938 25.4024 12.2728 25.3864 12.3069 25.328L12.6454 24.7296C12.6556 24.7074 12.6596 24.6836 12.6571 24.66V24.4272Z" fill="#FFCEA9"/>
<path d="M11.9102 25.536L12.2681 25.364L11.9423 25.0016L11.9102 25.536Z" fill="#FFCEA9"/>
<path d="M12.3158 24.5904C12.313 24.53 12.2919 24.4711 12.2545 24.419C12.217 24.3669 12.1643 24.3233 12.1012 24.292L11.3901 23.956L11.5033 23.5176V23.4856C11.5036 23.4388 11.4958 23.3922 11.4799 23.3472C11.4584 23.2896 11.3823 23.1536 11.3335 23.1808L10.5893 23.5336C10.5444 23.544 10.522 23.5872 10.522 23.6512V24.72C10.5264 24.7841 10.5491 24.8464 10.5882 24.902C10.6274 24.9576 10.6818 25.0048 10.7473 25.04L11.7627 25.52C11.8525 25.5632 11.9315 25.5472 11.9656 25.488L12.3041 24.8896C12.3142 24.8674 12.3182 24.8436 12.3158 24.82V24.5904Z" fill="#EFBD9C"/>
</g>
<defs>
<linearGradient id="paint0_linear_21_359" x1="6.95586" y1="28.821" x2="7.49916" y2="27.6683" gradientUnits="userSpaceOnUse">
<stop offset="0.21" stop-color="white" stop-opacity="0"/>
<stop offset="1" stop-color="white" stop-opacity="0.2"/>
</linearGradient>
<clipPath id="clip0_21_359">
<rect width="40" height="40" fill="white"/>
</clipPath>
</defs>
</svg>
