<svg width="49" height="41" viewBox="0 0 49 41" fill="none" xmlns="http://www.w3.org/2000/svg">
<circle cx="25" cy="20" r="15" fill="url(#paint0_linear_71_102)" fill-opacity="0.25"/>
<path d="M20.1902 9.64791H19.9677V3.53688C19.9677 3.0724 19.8765 2.61248 19.6992 2.18336C19.5219 1.75424 19.2621 1.36433 18.9345 1.0359C18.607 0.707469 18.2181 0.446943 17.7901 0.269197C17.3622 0.0914519 16.9034 -3.19707e-05 16.4402 -3.05176e-05H3.52752C3.06428 -3.19707e-05 2.60558 0.0914518 2.1776 0.269197C1.74962 0.446943 1.36075 0.70747 1.03319 1.0359C0.705626 1.36433 0.44579 1.75424 0.268515 2.18336C0.0912405 2.61248 -7.24637e-07 3.0724 0 3.53688V37.0625C-4.34781e-07 37.527 0.0912412 37.9869 0.268516 38.416C0.44579 38.8451 0.705627 39.235 1.03319 39.5635C1.36075 39.8919 1.74962 40.1524 2.1776 40.3302C2.60558 40.5079 3.06428 40.5994 3.52752 40.5994H16.4402C16.9034 40.5994 17.3622 40.5079 17.7901 40.3302C18.2181 40.1524 18.607 39.8919 18.9345 39.5635C19.2621 39.235 19.5219 38.8451 19.6992 38.416C19.8765 37.9869 19.9677 37.527 19.9677 37.0625V13.9978H20.1902V9.64791Z" fill="#E6E6E6"/>
<path d="M16.5825 0.920166H14.897C14.9745 1.11071 15.0041 1.31744 14.9832 1.52215C14.9622 1.72686 14.8914 1.92327 14.7769 2.09406C14.6624 2.26486 14.5078 2.40481 14.3267 2.50158C14.1456 2.59835 13.9435 2.64897 13.7382 2.64899H6.34073C6.13549 2.64897 5.93341 2.59835 5.75228 2.50158C5.57115 2.40481 5.41653 2.26486 5.30205 2.09406C5.18757 1.92327 5.11674 1.72686 5.0958 1.52215C5.07486 1.31744 5.10445 1.11071 5.18196 0.920166H3.60767C3.26173 0.920166 2.91917 0.988485 2.59956 1.12122C2.27995 1.25396 1.98955 1.44852 1.74493 1.69379C1.50031 1.93906 1.30627 2.23023 1.17388 2.55069C1.0415 2.87115 0.973359 3.21462 0.973358 3.56148V37.0379C0.973358 37.3848 1.0415 37.7282 1.17388 38.0487C1.30627 38.3692 1.50031 38.6603 1.74493 38.9056C1.98955 39.1509 2.27995 39.3454 2.59956 39.4782C2.91917 39.6109 3.26173 39.6792 3.60767 39.6792H16.5825C16.9285 39.6792 17.271 39.6109 17.5907 39.4782C17.9103 39.3454 18.2007 39.1509 18.4453 38.9056C18.6899 38.6603 18.8839 38.3692 19.0163 38.0487C19.1487 37.7282 19.2169 37.3848 19.2169 37.0379V3.56148C19.2169 3.21462 19.1487 2.87115 19.0163 2.55069C18.8839 2.23023 18.6899 1.93906 18.4453 1.69379C18.2007 1.44852 17.9103 1.25396 17.5907 1.12122C17.271 0.988485 16.9285 0.920166 16.5825 0.920166Z" fill="white"/>
<path d="M6.27246 7.72559H5.49777C5.47053 7.72559 5.44441 7.73644 5.42515 7.75575C5.40589 7.77506 5.39507 7.80126 5.39507 7.82857V8.16951C5.39507 8.19682 5.40589 8.22301 5.42515 8.24233C5.44441 8.26164 5.47053 8.27249 5.49777 8.27249H5.62615V8.78333H6.14409V8.27249H6.27246C6.2997 8.27249 6.32583 8.26164 6.34509 8.24233C6.36435 8.22301 6.37517 8.19682 6.37517 8.16951V7.82857C6.37517 7.80126 6.36435 7.77506 6.34509 7.75575C6.32583 7.73644 6.2997 7.72559 6.27246 7.72559Z" fill="#E6E6E6"/>
<path d="M7.0484 10.8458C6.57396 10.1497 6.33141 9.32096 6.35551 8.47819C6.35595 8.45875 6.34965 8.43975 6.3377 8.42443C6.32575 8.40911 6.30887 8.39841 6.28995 8.39414V8.24683H5.47177V8.3921H5.4605C5.43823 8.39213 5.41689 8.40102 5.40117 8.41683C5.38544 8.43263 5.37663 8.45406 5.37666 8.47638C5.37666 8.47843 5.37674 8.48047 5.37689 8.48251C5.44134 9.38341 5.22369 10.1913 4.72392 10.9063C4.69516 10.9473 4.68047 10.9967 4.68205 11.0468L4.77151 13.8216C4.77366 13.8835 4.79957 13.9421 4.84382 13.9853C4.88808 14.0285 4.94726 14.0529 5.00902 14.0534H6.85961C6.92208 14.0529 6.98188 14.0279 7.02627 13.9839C7.07066 13.9398 7.09614 13.8801 7.09727 13.8175L7.13174 11.1234C7.13277 11.0246 7.10369 10.9277 7.0484 10.8458Z" fill="#88DEE3"/>
<path d="M6.75545 11.7675H5.14466C5.12081 11.7675 5.09725 11.7727 5.07558 11.7827C5.05392 11.7927 5.03466 11.8072 5.01914 11.8254C5.00361 11.8435 4.99219 11.8648 4.98564 11.8878C4.97909 11.9108 4.97758 11.9349 4.9812 11.9585L5.22462 13.545H6.62233L6.91799 11.9639C6.92247 11.9399 6.92163 11.9153 6.91553 11.8917C6.90944 11.8681 6.89823 11.8462 6.88271 11.8274C6.86719 11.8087 6.84774 11.7936 6.82575 11.7832C6.80375 11.7729 6.77975 11.7675 6.75545 11.7675Z" fill="white"/>
<path d="M14.8963 16.0376H14.1216C14.0943 16.0376 14.0682 16.0484 14.0489 16.0678C14.0297 16.0871 14.0189 16.1133 14.0189 16.1406V16.4815C14.0189 16.5088 14.0297 16.535 14.0489 16.5543C14.0682 16.5736 14.0943 16.5845 14.1216 16.5845H14.2499V17.0953H14.7679V16.5845H14.8963C14.9235 16.5845 14.9496 16.5736 14.9689 16.5543C14.9881 16.535 14.999 16.5088 14.999 16.4815V16.1406C14.999 16.1133 14.9881 16.0871 14.9689 16.0678C14.9496 16.0484 14.9235 16.0376 14.8963 16.0376Z" fill="#E6E6E6"/>
<path d="M15.6722 19.1579C15.1978 18.4618 14.9552 17.633 14.9793 16.7902C14.9797 16.7708 14.9734 16.7518 14.9615 16.7365C14.9495 16.7212 14.9327 16.7105 14.9137 16.7062V16.5589H14.0956V16.7041H14.0843C14.0733 16.7042 14.0624 16.7063 14.0522 16.7106C14.042 16.7148 14.0327 16.721 14.025 16.7289C14.0172 16.7367 14.011 16.746 14.0068 16.7562C14.0026 16.7664 14.0004 16.7774 14.0005 16.7884C14.0005 16.7905 14.0005 16.7925 14.0007 16.7946C14.0651 17.6955 13.8475 18.5034 13.3477 19.2183C13.319 19.2594 13.3043 19.3087 13.3058 19.3589L13.3953 22.1336C13.3975 22.1955 13.4234 22.2542 13.4676 22.2974C13.5119 22.3406 13.5711 22.3649 13.6328 22.3654H15.4834C15.5459 22.3649 15.6057 22.34 15.6501 22.2959C15.6945 22.2518 15.7199 22.1921 15.7211 22.1295L15.7555 19.4355C15.7566 19.3366 15.7275 19.2398 15.6722 19.1579Z" fill="#3B9C44"/>
<path d="M15.3792 20.0796H13.7685C13.7446 20.0796 13.721 20.0847 13.6994 20.0947C13.6777 20.1047 13.6585 20.1193 13.6429 20.1374C13.6274 20.1556 13.616 20.1768 13.6094 20.1998C13.6029 20.2228 13.6014 20.247 13.605 20.2706L13.8484 21.857H15.2461L15.5418 20.2759C15.5463 20.252 15.5454 20.2273 15.5393 20.2038C15.5332 20.1802 15.522 20.1582 15.5065 20.1395C15.491 20.1207 15.4715 20.1056 15.4495 20.0953C15.4275 20.0849 15.4035 20.0796 15.3792 20.0796H15.3792Z" fill="white"/>
<path d="M5.18336 27.7884H4.81589C4.80296 27.7884 4.79057 27.7935 4.78144 27.8027C4.7723 27.8119 4.76717 27.8243 4.76717 27.8372V27.999C4.76717 28.0119 4.7723 28.0243 4.78144 28.0335C4.79057 28.0427 4.80296 28.0478 4.81589 28.0478H4.87678V28.2901H5.12246V28.0478H5.18336C5.19628 28.0478 5.20867 28.0427 5.21781 28.0335C5.22694 28.0243 5.23208 28.0119 5.23208 27.999V27.8372C5.23208 27.8243 5.22694 27.8119 5.21781 27.8027C5.20867 27.7935 5.19628 27.7884 5.18336 27.7884Z" fill="#E6E6E6"/>
<path d="M5.55142 29.2685C5.32637 28.9383 5.21132 28.5452 5.22275 28.1454C5.22296 28.1362 5.21997 28.1272 5.2143 28.1199C5.20863 28.1126 5.20063 28.1075 5.19165 28.1055V28.0356H4.80355V28.1046H4.7982C4.79297 28.1046 4.7878 28.1056 4.78297 28.1076C4.77814 28.1096 4.77375 28.1126 4.77006 28.1163C4.76637 28.12 4.76344 28.1244 4.76144 28.1293C4.75945 28.1341 4.75843 28.1393 4.75843 28.1445C4.75843 28.1455 4.75847 28.1465 4.75854 28.1474C4.79436 28.5554 4.6846 28.9628 4.44881 29.2971C4.43517 29.3166 4.4282 29.34 4.42895 29.3638L4.47138 30.68C4.4724 30.7094 4.48469 30.7372 4.50568 30.7577C4.52668 30.7782 4.55475 30.7897 4.58405 30.79H5.46187C5.4915 30.7897 5.51986 30.7779 5.54092 30.757C5.56198 30.7361 5.57406 30.7078 5.5746 30.6781L5.59095 29.4002C5.59144 29.3533 5.57765 29.3073 5.55142 29.2685Z" fill="#BD1C21"/>
<path d="M5.42508 29.7523H4.58749V30.1722H5.42508V29.7523Z" fill="white"/>
<path d="M6.89394 27.7884H6.52647C6.51355 27.7884 6.50116 27.7935 6.49202 27.8027C6.48289 27.8119 6.47775 27.8243 6.47775 27.8372V27.999C6.47775 28.0119 6.48289 28.0243 6.49202 28.0335C6.50116 28.0427 6.51355 28.0478 6.52647 28.0478H6.58737V28.2901H6.83305V28.0478H6.89394C6.90686 28.0478 6.91926 28.0427 6.92839 28.0335C6.93753 28.0243 6.94266 28.0119 6.94266 27.999V27.8372C6.94266 27.8243 6.93753 27.8119 6.92839 27.8027C6.91926 27.7935 6.90686 27.7884 6.89394 27.7884Z" fill="#E6E6E6"/>
<path d="M7.26201 29.2685C7.03696 28.9383 6.92191 28.5452 6.93334 28.1454C6.93354 28.1362 6.93056 28.1272 6.92489 28.1199C6.91922 28.1126 6.91121 28.1075 6.90224 28.1055V28.0356H6.51414V28.1046H6.50879C6.50356 28.1046 6.49838 28.1056 6.49356 28.1076C6.48873 28.1096 6.48434 28.1126 6.48065 28.1163C6.47695 28.12 6.47403 28.1244 6.47203 28.1293C6.47004 28.1341 6.46901 28.1393 6.46902 28.1445C6.46902 28.1455 6.46906 28.1465 6.46913 28.1474C6.50495 28.5554 6.39519 28.9628 6.1594 29.2971C6.14576 29.3166 6.13879 29.34 6.13954 29.3638L6.18197 30.68C6.18299 30.7094 6.19528 30.7372 6.21627 30.7577C6.23726 30.7782 6.26534 30.7897 6.29463 30.79H7.17245C7.20208 30.7897 7.23045 30.7779 7.25151 30.757C7.27256 30.7361 7.28465 30.7078 7.28519 30.6781L7.30154 29.4002C7.30202 29.3533 7.28823 29.3073 7.26201 29.2685Z" fill="#BD1C21"/>
<path d="M7.13566 29.7523H6.29808V30.1722H7.13566V29.7523Z" fill="white"/>
<path d="M8.60451 27.7884H8.23704C8.22412 27.7884 8.21173 27.7935 8.20259 27.8027C8.19346 27.8119 8.18832 27.8243 8.18832 27.8372V27.999C8.18832 28.0119 8.19346 28.0243 8.20259 28.0335C8.21173 28.0427 8.22412 28.0478 8.23704 28.0478H8.29794V28.2901H8.54362V28.0478H8.60451C8.61744 28.0478 8.62983 28.0427 8.63896 28.0335C8.6481 28.0243 8.65323 28.0119 8.65323 27.999V27.8372C8.65323 27.8243 8.6481 27.8119 8.63896 27.8027C8.62983 27.7935 8.61744 27.7884 8.60451 27.7884Z" fill="#E6E6E6"/>
<path d="M8.97259 29.2685C8.74754 28.9383 8.63249 28.5452 8.64392 28.1454C8.64413 28.1362 8.64114 28.1272 8.63547 28.1199C8.6298 28.1126 8.6218 28.1075 8.61282 28.1055V28.0356H8.22472V28.1046H8.21938C8.21415 28.1046 8.20897 28.1056 8.20414 28.1076C8.19931 28.1096 8.19493 28.1126 8.19123 28.1163C8.18754 28.12 8.18461 28.1244 8.18262 28.1293C8.18062 28.1341 8.1796 28.1393 8.17961 28.1445C8.17961 28.1455 8.17964 28.1465 8.17972 28.1474C8.21554 28.5554 8.10578 28.9628 7.86998 29.2971C7.85634 29.3166 7.84937 29.34 7.85012 29.3638L7.89256 30.68C7.89358 30.7094 7.90586 30.7372 7.92686 30.7577C7.94785 30.7782 7.97592 30.7897 8.00522 30.79H8.88304C8.91267 30.7897 8.94104 30.7779 8.96209 30.757C8.98315 30.7361 8.99523 30.7078 8.99577 30.6781L9.01213 29.4002C9.01261 29.3533 8.99882 29.3073 8.97259 29.2685Z" fill="#BD1C21"/>
<path d="M8.84625 29.7523H8.00867V30.1722H8.84625V29.7523Z" fill="white"/>
<path d="M13.5504 24.5728H12.7758C12.7623 24.5728 12.7489 24.5755 12.7365 24.5806C12.724 24.5858 12.7127 24.5934 12.7031 24.6029C12.6936 24.6125 12.686 24.6239 12.6809 24.6364C12.6757 24.6489 12.673 24.6622 12.673 24.6758V25.0167C12.673 25.044 12.6839 25.0702 12.7031 25.0895C12.7224 25.1088 12.7485 25.1197 12.7758 25.1197H12.9041V25.6305H13.4221V25.1197H13.5504C13.5777 25.1197 13.6038 25.1088 13.6231 25.0895C13.6423 25.0702 13.6532 25.044 13.6532 25.0167V24.6758C13.6532 24.6622 13.6505 24.6489 13.6453 24.6364C13.6402 24.6239 13.6326 24.6125 13.6231 24.6029C13.6135 24.5934 13.6022 24.5858 13.5898 24.5806C13.5773 24.5755 13.5639 24.5728 13.5504 24.5728Z" fill="#E6E6E6"/>
<path d="M14.3264 27.6931C13.8519 26.997 13.6094 26.1682 13.6335 25.3254C13.6339 25.306 13.6276 25.287 13.6157 25.2717C13.6037 25.2563 13.5869 25.2456 13.5679 25.2414V25.0941H12.7498V25.2393H12.7385C12.7275 25.2393 12.7165 25.2415 12.7064 25.2458C12.6962 25.25 12.6869 25.2562 12.6792 25.2641C12.6714 25.2719 12.6652 25.2812 12.661 25.2914C12.6568 25.3016 12.6546 25.3126 12.6546 25.3236C12.6546 25.3257 12.6547 25.3277 12.6549 25.3297C12.7193 26.2306 12.5017 27.0386 12.0019 27.7535C11.9731 27.7946 11.9585 27.8439 11.96 27.8941L12.0495 30.6688C12.0516 30.7307 12.0775 30.7893 12.1218 30.8325C12.1661 30.8757 12.2252 30.9001 12.287 30.9006H14.1376C14.2001 30.9001 14.2599 30.8752 14.3043 30.8311C14.3486 30.787 14.3741 30.7273 14.3753 30.6647L14.4097 27.9707C14.4108 27.8718 14.3817 27.7749 14.3264 27.6931Z" fill="#88DEE3"/>
<path d="M14.0334 28.6147H12.4226C12.3988 28.6147 12.3752 28.6199 12.3536 28.6299C12.3319 28.6399 12.3127 28.6544 12.2971 28.6726C12.2816 28.6907 12.2702 28.712 12.2636 28.735C12.2571 28.758 12.2556 28.7821 12.2592 28.8057L12.5026 30.3922H13.9003L14.196 28.8111C14.2005 28.7871 14.1996 28.7625 14.1935 28.7389C14.1874 28.7153 14.1762 28.6934 14.1607 28.6746C14.1452 28.6559 14.1257 28.6408 14.1037 28.6304C14.0817 28.6201 14.0577 28.6147 14.0334 28.6147Z" fill="white"/>
<path d="M13.9734 14.4106H9.35547C9.67832 12.6604 9.60405 10.547 9.35547 8.2742H13.9734C13.7314 10.547 13.6591 12.6604 13.9734 14.4106Z" fill="#3B9C44"/>
<path d="M11.6922 12.2908C12.3068 12.2908 12.805 11.7913 12.805 11.1751C12.805 10.5589 12.3068 10.0594 11.6922 10.0594C11.0777 10.0594 10.5795 10.5589 10.5795 11.1751C10.5795 11.7913 11.0777 12.2908 11.6922 12.2908Z" fill="white"/>
<path d="M9.74493 22.5553H5.12703C5.44988 20.8051 5.37561 18.6917 5.12703 16.4189H9.74493C9.50297 18.6917 9.43066 20.8051 9.74493 22.5553Z" fill="#BD1C21"/>
<path d="M7.46379 20.4354C8.07834 20.4354 8.57654 19.9359 8.57654 19.3197C8.57654 18.7035 8.07834 18.204 7.46379 18.204C6.84924 18.204 6.35104 18.7035 6.35104 19.3197C6.35104 19.9359 6.84924 20.4354 7.46379 20.4354Z" fill="white"/>
<path d="M16.5883 14.8011H11.9704C12.2933 13.0509 12.219 10.9375 11.9704 8.6647H16.5883C16.3464 10.9375 16.2741 13.0509 16.5883 14.8011Z" fill="#E6E6E6"/>
<path d="M14.3072 12.6813C14.9217 12.6813 15.4199 12.1818 15.4199 11.5656C15.4199 10.9494 14.9217 10.4499 14.3072 10.4499C13.6926 10.4499 13.1944 10.9494 13.1944 11.5656C13.1944 12.1818 13.6926 12.6813 14.3072 12.6813Z" fill="white"/>
<path d="M16.5883 14.5222H11.9704C12.2933 12.772 12.219 10.6586 11.9704 8.38577H16.5883C16.3464 10.6586 16.2741 12.772 16.5883 14.5222Z" fill="#FBEC00"/>
<path d="M14.3072 12.4023C14.9217 12.4023 15.4199 11.9028 15.4199 11.2866C15.4199 10.6704 14.9217 10.1709 14.3072 10.1709C13.6926 10.1709 13.1944 10.6704 13.1944 11.2866C13.1944 11.9028 13.6926 12.4023 14.3072 12.4023Z" fill="white"/>
<path d="M16.5883 14.8011H11.9704C12.2933 13.0509 12.219 10.9375 11.9704 8.6647H16.5883C16.3464 10.9375 16.2741 13.0509 16.5883 14.8011Z" fill="#FBEC00"/>
<path d="M14.3072 12.6813C14.9217 12.6813 15.4199 12.1818 15.4199 11.5656C15.4199 10.9494 14.9217 10.4499 14.3072 10.4499C13.6926 10.4499 13.1944 10.9494 13.1944 11.5656C13.1944 12.1818 13.6926 12.6813 14.3072 12.6813Z" fill="white"/>
<path d="M17.6454 14.0759H2.51207V15.7495H17.6454V14.0759Z" fill="#E6E6E6"/>
<path d="M17.6454 22.3879H2.51207V24.0615H17.6454V22.3879Z" fill="#E6E6E6"/>
<path d="M17.6454 30.7H2.51207V32.3735H17.6454V30.7Z" fill="#E6E6E6"/>
<path d="M43.9706 37.4895L40.2004 34.8158C41.472 33.5739 42.6285 31.8054 43.7345 29.8059L47.5046 32.4796C45.9981 34.1951 44.722 35.8787 43.9706 37.4895Z" fill="#70A4D6"/>
<path d="M43.9716 34.6429C44.5862 34.6429 45.0844 34.1434 45.0844 33.5272C45.0844 32.911 44.5862 32.4115 43.9716 32.4115C43.3571 32.4115 42.8589 32.911 42.8589 33.5272C42.8589 34.1434 43.3571 34.6429 43.9716 34.6429Z" fill="white"/>
<path d="M25.7836 25.2888H25.3698C25.3552 25.2888 25.3413 25.2946 25.331 25.3049C25.3207 25.3152 25.3149 25.3292 25.3149 25.3438V25.5259C25.3149 25.5332 25.3163 25.5403 25.3191 25.547C25.3218 25.5537 25.3259 25.5597 25.331 25.5648C25.3361 25.5699 25.3421 25.574 25.3488 25.5768C25.3554 25.5795 25.3626 25.581 25.3698 25.581H25.4384V25.8539H25.715V25.581H25.7836C25.7982 25.581 25.8121 25.5752 25.8224 25.5648C25.8327 25.5545 25.8385 25.5405 25.8385 25.5259V25.3438C25.8385 25.3292 25.8327 25.3152 25.8224 25.3049C25.8121 25.2946 25.7982 25.2888 25.7836 25.2888Z" fill="#E6E6E6"/>
<path d="M26.1981 26.9557C25.9447 26.5838 25.8151 26.1411 25.828 25.6909C25.8282 25.6805 25.8249 25.6703 25.8185 25.6621C25.8121 25.654 25.8031 25.6482 25.793 25.646V25.5673H25.3559V25.6449H25.3499C25.344 25.6449 25.3381 25.646 25.3327 25.6483C25.3273 25.6506 25.3223 25.6539 25.3182 25.6581C25.314 25.6623 25.3107 25.6672 25.3085 25.6727C25.3062 25.6781 25.3051 25.684 25.3051 25.6899C25.3051 25.691 25.3051 25.6921 25.3052 25.6932C25.3455 26.1526 25.2219 26.6114 24.9564 26.988C24.941 27.0099 24.9331 27.0363 24.934 27.0631L24.9818 28.5454C24.9829 28.5784 24.9968 28.6098 25.0204 28.6328C25.0441 28.6559 25.0757 28.6689 25.1087 28.6692H26.0973C26.1306 28.6689 26.1626 28.6556 26.1863 28.6321C26.21 28.6085 26.2236 28.5766 26.2242 28.5432L26.2427 27.104C26.2432 27.0512 26.2277 26.9994 26.1981 26.9557Z" fill="#70A4D6"/>
<path opacity="0.2" d="M25.6974 25.3481C25.6974 25.3796 25.6849 25.4098 25.6627 25.432C25.6405 25.4543 25.6104 25.4668 25.579 25.4668C25.5476 25.4668 25.5175 25.4543 25.4953 25.432C25.4731 25.4098 25.4606 25.3796 25.4606 25.3481" fill="black"/>
<path d="M26.0056 27.2413H25.171V27.7991H26.0056V27.2413Z" fill="white"/>
<path d="M38.8801 31.0795H38.1054C38.0782 31.0795 38.052 31.0903 38.0328 31.1097C38.0135 31.129 38.0027 31.1552 38.0027 31.1825V31.5234C38.0027 31.5507 38.0135 31.5769 38.0328 31.5962C38.052 31.6156 38.0782 31.6264 38.1054 31.6264H38.2338V32.1372H38.7517V31.6264H38.8801C38.9073 31.6264 38.9334 31.6156 38.9527 31.5962C38.972 31.5769 38.9828 31.5507 38.9828 31.5234V31.1825C38.9828 31.1552 38.972 31.129 38.9527 31.1097C38.9334 31.0903 38.9073 31.0795 38.8801 31.0795Z" fill="#E6E6E6"/>
<path d="M39.656 34.1998C39.1816 33.5037 38.939 32.6749 38.9631 31.8321C38.9636 31.8127 38.9573 31.7937 38.9453 31.7784C38.9334 31.763 38.9165 31.7523 38.8976 31.7481V31.6008H38.0794V31.746H38.0681C38.0571 31.7461 38.0462 31.7482 38.036 31.7525C38.0258 31.7567 38.0166 31.7629 38.0088 31.7708C38.001 31.7786 37.9948 31.7879 37.9906 31.7981C37.9864 31.8083 37.9843 31.8193 37.9843 31.8303C37.9843 31.8324 37.9844 31.8344 37.9845 31.8364C38.049 32.7374 37.8313 33.5453 37.3315 34.2602C37.3028 34.3013 37.2881 34.3506 37.2897 34.4008L37.3791 37.1755C37.3813 37.2374 37.4072 37.2961 37.4514 37.3393C37.4957 37.3824 37.5549 37.4068 37.6166 37.4073H39.4672C39.5297 37.4068 39.5895 37.3819 39.6339 37.3378C39.6783 37.2937 39.7038 37.234 39.7049 37.1714L39.7394 34.4774C39.7404 34.3785 39.7113 34.2817 39.656 34.1998Z" fill="#70A4D6"/>
<path opacity="0.2" d="M38.7186 31.1906C38.7186 31.2495 38.6953 31.306 38.6537 31.3477C38.6121 31.3894 38.5558 31.4128 38.497 31.4128C38.4382 31.4128 38.3819 31.3894 38.3403 31.3477C38.2988 31.306 38.2754 31.2495 38.2754 31.1906" fill="black"/>
<path d="M39.3631 35.1215H37.7523C37.7284 35.1215 37.7049 35.1266 37.6832 35.1366C37.6615 35.1466 37.6423 35.1612 37.6268 35.1793C37.6112 35.1975 37.5998 35.2188 37.5933 35.2417C37.5867 35.2647 37.5852 35.2889 37.5888 35.3125L37.8322 36.8989H39.23L39.5256 35.3178C39.5301 35.2939 39.5293 35.2692 39.5232 35.2457C39.5171 35.2221 39.5058 35.2001 39.4903 35.1814C39.4748 35.1626 39.4554 35.1475 39.4334 35.1372C39.4114 35.1268 39.3874 35.1215 39.3631 35.1215Z" fill="white"/>
<path d="M36.6698 37.4852H32.0519C32.3747 35.735 32.3004 33.6216 32.0519 31.3488H36.6698C36.4278 33.6216 36.3555 35.735 36.6698 37.4852Z" fill="#70A4D6"/>
<path d="M34.3886 35.3653C35.0032 35.3653 35.5014 34.8658 35.5014 34.2496C35.5014 33.6334 35.0032 33.1339 34.3886 33.1339C33.7741 33.1339 33.2759 33.6334 33.2759 34.2496C33.2759 34.8658 33.7741 35.3653 34.3886 35.3653Z" fill="white"/>
<path d="M17.7814 18.1731L18.8181 18.0786L19.4778 16.4722L18.2998 15.8107L17.7814 18.1731Z" fill="#FFB8B8"/>
<path d="M27.2955 22.5831C27.3299 22.4969 27.3435 22.4037 27.335 22.3112C27.3265 22.2187 27.2962 22.1296 27.2466 22.0512C27.197 21.9727 27.1296 21.9072 27.0498 21.8601C26.97 21.8129 26.8802 21.7854 26.7877 21.7799L25.1781 21.6837L24.9411 22.4738L26.5981 22.9301C26.7366 22.9682 26.8842 22.9539 27.0128 22.8899C27.1414 22.8259 27.242 22.7167 27.2955 22.5831Z" fill="#FFB8B8"/>
<path d="M25.5671 22.9434L25.5494 21.4607L21.9741 20.8887L19.2198 17.7213C19.0765 17.5565 18.8785 17.4494 18.6624 17.4198C18.4464 17.3902 18.2269 17.44 18.0448 17.5602C17.9345 17.633 17.8414 17.7291 17.7723 17.8419C17.7031 17.9547 17.6595 18.0813 17.6445 18.2128C17.6296 18.3443 17.6436 18.4776 17.6856 18.603C17.7276 18.7285 17.7966 18.8433 17.8877 18.9391L20.16 21.7429L25.5671 22.9434Z" fill="#70A4D6"/>
<path d="M16.9803 39.6234H17.9228L20.2604 29.0264L22.6821 32.3L24.0958 39.3871H24.9911L24.8026 31.7803L21.6454 23.6537H18.5354C17.6855 25.196 17.0188 26.7857 17.7814 28.4257L16.9803 39.6234Z" fill="#2F2E41"/>
<path d="M23.518 40.267C23.5076 40.3004 23.5044 40.3357 23.5087 40.3705C23.5129 40.4053 23.5245 40.4387 23.5426 40.4687C23.5608 40.4986 23.5851 40.5243 23.6139 40.5441C23.6427 40.5639 23.6754 40.5773 23.7098 40.5834L26.016 40.9937C26.1071 41.0104 26.2012 40.9932 26.2805 40.9451C26.3598 40.8971 26.4188 40.8216 26.4464 40.733C26.4733 40.6483 26.4696 40.5567 26.4358 40.4745C26.4021 40.3923 26.3406 40.3246 26.262 40.2834C25.7549 40.0223 25.3185 39.6419 24.9902 39.1747C24.7367 39.4114 24.4534 39.3891 24.1526 39.2147L23.8335 39.2547L23.518 40.267Z" fill="#2F2E41"/>
<path d="M16.544 40.267C16.5336 40.3004 16.5304 40.3357 16.5346 40.3705C16.5388 40.4053 16.5504 40.4387 16.5686 40.4687C16.5867 40.4986 16.611 40.5243 16.6398 40.5441C16.6687 40.5639 16.7014 40.5773 16.7358 40.5834L19.0419 40.9937C19.1331 41.0104 19.2271 40.9932 19.3064 40.9451C19.3857 40.8971 19.4447 40.8216 19.4724 40.733C19.4993 40.6483 19.4955 40.5567 19.4618 40.4745C19.428 40.3923 19.3665 40.3246 19.288 40.2834C18.7809 40.0223 18.3445 39.6419 18.0161 39.1747C17.7627 39.4114 17.4794 39.3891 17.1786 39.2147L16.8595 39.2547L16.544 40.267Z" fill="#2F2E41"/>
<path d="M19.5014 17.0628C20.2301 17.0628 20.8208 16.4705 20.8208 15.7398C20.8208 15.0092 20.2301 14.4169 19.5014 14.4169C18.7727 14.4169 18.182 15.0092 18.182 15.7398C18.182 16.4705 18.7727 17.0628 19.5014 17.0628Z" fill="#FFB8B8"/>
<path d="M18.3233 24.0081L21.7632 23.9136L20.753 20.7257C21.3808 19.7166 20.749 18.7085 19.8548 17.7006L19.148 17.2281L18.017 17.1336C17.5274 17.659 17.2595 18.3539 17.2694 19.0729C17.2918 20.6124 17.5637 22.2884 18.3233 24.0081Z" fill="#70A4D6"/>
<path d="M26.2267 26.154C26.2922 26.0883 26.3412 26.008 26.3697 25.9196C26.3981 25.8312 26.4053 25.7374 26.3904 25.6457C26.3756 25.554 26.3393 25.4672 26.2845 25.3923C26.2296 25.3175 26.1578 25.2568 26.075 25.2153L24.6329 24.4919L24.105 25.1249L25.4494 26.198C25.5617 26.2876 25.703 26.3327 25.8464 26.3246C25.9898 26.3165 26.1251 26.2557 26.2267 26.154Z" fill="#FFB8B8"/>
<path d="M24.4963 25.8035L25.0618 24.4333L21.9992 22.4972L20.7096 18.4989C20.6425 18.2908 20.5025 18.1142 20.3155 18.0018C20.1285 17.8893 19.9072 17.8486 19.6925 17.8873C19.5626 17.9107 19.4393 17.9624 19.3315 18.0388C19.2237 18.1152 19.1339 18.2144 19.0685 18.3294C19.0032 18.4444 18.9638 18.5724 18.9532 18.7043C18.9426 18.8363 18.961 18.969 19.0071 19.093L19.9962 22.5671L24.4963 25.8035Z" fill="#70A4D6"/>
<path d="M17.3338 15.2201C17.3338 15.7348 17.6672 16.532 18.0877 16.8737C18.3707 17.1037 18.7446 17.094 18.8888 16.7793C19.0367 16.4564 19.5465 15.6975 20.4438 15.2201C21.64 14.5837 20.0196 13.4949 18.8888 13.6609C18.039 13.7857 17.3338 14.359 17.3338 15.2201Z" fill="#2F2E41"/>
<path d="M18.1348 14.5114C18.6553 14.5114 19.0773 14.0883 19.0773 13.5664C19.0773 13.0446 18.6553 12.6215 18.1348 12.6215C17.6143 12.6215 17.1924 13.0446 17.1924 13.5664C17.1924 14.0883 17.6143 14.5114 18.1348 14.5114Z" fill="#2F2E41"/>
<path d="M19.2186 13.2357C19.2186 12.9975 19.1287 12.7681 18.967 12.5935C18.8053 12.4189 18.5838 12.3121 18.3469 12.2943C18.3703 12.2926 18.3937 12.2908 18.4176 12.2908C18.6675 12.2908 18.9072 12.3903 19.084 12.5675C19.2607 12.7448 19.36 12.9851 19.36 13.2357C19.36 13.4863 19.2607 13.7267 19.084 13.9039C18.9072 14.0811 18.6675 14.1807 18.4176 14.1807C18.3937 14.1807 18.3703 14.1788 18.3469 14.1771C18.5838 14.1594 18.8053 14.0525 18.967 13.8779C19.1287 13.7033 19.2186 13.4739 19.2186 13.2357Z" fill="#2F2E41"/>
<path d="M19.5249 16.2123C19.642 16.2123 19.737 16.0854 19.737 15.9288C19.737 15.7722 19.642 15.6453 19.5249 15.6453C19.4078 15.6453 19.3129 15.7722 19.3129 15.9288C19.3129 16.0854 19.4078 16.2123 19.5249 16.2123Z" fill="#FFB8B8"/>
<path d="M46.2273 37.8905H31.5564L28.4497 23.1651H25.7983V22.5044H28.9838L32.0905 37.2297H46.2273V37.8905Z" fill="#3F3D56"/>
<path d="M33.7063 40.5806C34.4862 40.5806 35.1184 39.9467 35.1184 39.1647C35.1184 38.3827 34.4862 37.7488 33.7063 37.7488C32.9264 37.7488 32.2942 38.3827 32.2942 39.1647C32.2942 39.9467 32.9264 40.5806 33.7063 40.5806Z" fill="#3F3D56"/>
<path d="M44.2503 40.5806C45.0302 40.5806 45.6624 39.9467 45.6624 39.1647C45.6624 38.3827 45.0302 37.7488 44.2503 37.7488C43.4704 37.7488 42.8381 38.3827 42.8381 39.1647C42.8381 39.9467 43.4704 40.5806 44.2503 40.5806Z" fill="#3F3D56"/>
<path d="M45.9598 37.5793H31.6858L29.1673 25.1002H48.3232C48.421 25.1002 48.5175 25.1214 48.6063 25.1624C48.6951 25.2034 48.774 25.2632 48.8375 25.3377C48.901 25.4122 48.9477 25.4996 48.9744 25.5939C49.001 25.6882 49.0069 25.7871 48.9918 25.884L46.6282 37.0061C46.6038 37.1661 46.5229 37.312 46.4002 37.4172C46.2775 37.5224 46.1212 37.5799 45.9598 37.5793ZM31.8408 37.3905H45.9598C46.0763 37.391 46.1891 37.3495 46.2776 37.2735C46.3662 37.1976 46.4246 37.0923 46.4421 36.9768L48.8057 25.8547C48.8167 25.7848 48.8124 25.7133 48.7932 25.6453C48.774 25.5772 48.7403 25.5141 48.6944 25.4604C48.6486 25.4066 48.5916 25.3634 48.5276 25.3338C48.4635 25.3043 48.3938 25.2889 48.3232 25.2889H29.3959L31.8408 37.3905Z" fill="#3F3D56"/>
<path d="M34.4607 37.5393L32.8114 25.2099L32.9971 25.1792L34.6465 37.5086L34.4607 37.5393Z" fill="#3F3D56"/>
<path d="M43.6316 37.4447L43.4457 37.4145L45.0469 25.1794L45.2328 25.2097L43.6316 37.4447Z" fill="#3F3D56"/>
<path d="M39.2622 25.1945H39.0739V37.5239H39.2622V25.1945Z" fill="#3F3D56"/>
<path d="M30.1291 28.4983L30.1287 28.6871L48.3544 28.7314L48.3549 28.5426L30.1291 28.4983Z" fill="#3F3D56"/>
<path d="M47.0687 34.3301L31.057 34.4398L31.0583 34.6286L47.07 34.5189L47.0687 34.3301Z" fill="#3F3D56"/>
<path d="M26.0808 23.3067C26.6527 23.3067 27.1163 23.0531 27.1163 22.7403C27.1163 22.4275 26.6527 22.174 26.0808 22.174C25.5089 22.174 25.0452 22.4275 25.0452 22.7403C25.0452 23.0531 25.5089 23.3067 26.0808 23.3067Z" fill="#3F3D56"/>
<defs>
<linearGradient id="paint0_linear_71_102" x1="25" y1="15.8" x2="32.5" y2="51.2" gradientUnits="userSpaceOnUse">
<stop stop-color="#6EA1D6"/>
<stop offset="1" stop-color="white"/>
</linearGradient>
</defs>
</svg>
