<svg width="24" height="25" viewBox="0 0 24 25" fill="none" xmlns="http://www.w3.org/2000/svg">
<path d="M19.4318 13.8372C19.4718 13.5172 19.5018 13.1972 19.5018 12.8572C19.5018 12.5172 19.4718 12.1972 19.4318 11.8772L21.5418 10.2272C21.7318 10.0772 21.7818 9.80718 21.6618 9.58718L19.6618 6.12718C19.5718 5.96718 19.4018 5.87718 19.2218 5.87718C19.1618 5.87718 19.1018 5.88718 19.0518 5.90718L16.5618 6.90718C16.0418 6.50718 15.4818 6.17718 14.8718 5.92718L14.4918 3.27718C14.4618 3.03718 14.2518 2.85718 14.0018 2.85718H10.0018C9.75179 2.85718 9.54179 3.03718 9.51179 3.27718L9.13179 5.92718C8.52179 6.17718 7.96179 6.51718 7.44179 6.90718L4.95179 5.90718C4.89179 5.88718 4.83179 5.87718 4.77179 5.87718C4.60179 5.87718 4.43179 5.96718 4.34179 6.12718L2.34179 9.58718C2.21179 9.80718 2.27179 10.0772 2.46179 10.2272L4.57179 11.8772C4.53179 12.1972 4.50179 12.5272 4.50179 12.8572C4.50179 13.1872 4.53179 13.5172 4.57179 13.8372L2.46179 15.4872C2.27179 15.6372 2.22179 15.9072 2.34179 16.1272L4.34179 19.5872C4.43179 19.7472 4.60179 19.8372 4.78179 19.8372C4.84179 19.8372 4.90179 19.8272 4.95179 19.8072L7.44179 18.8072C7.96179 19.2072 8.52179 19.5372 9.13179 19.7872L9.51179 22.4372C9.54179 22.6772 9.75179 22.8572 10.0018 22.8572H14.0018C14.2518 22.8572 14.4618 22.6772 14.4918 22.4372L14.8718 19.7872C15.4818 19.5372 16.0418 19.1972 16.5618 18.8072L19.0518 19.8072C19.1118 19.8272 19.1718 19.8372 19.2318 19.8372C19.4018 19.8372 19.5718 19.7472 19.6618 19.5872L21.6618 16.1272C21.7818 15.9072 21.7318 15.6372 21.5418 15.4872L19.4318 13.8372ZM17.4518 12.1272C17.4918 12.4372 17.5018 12.6472 17.5018 12.8572C17.5018 13.0672 17.4818 13.2872 17.4518 13.5872L17.3118 14.7172L18.2018 15.4172L19.2818 16.2572L18.5818 17.4672L17.3118 16.9572L16.2718 16.5372L15.3718 17.2172C14.9418 17.5372 14.5318 17.7772 14.1218 17.9472L13.0618 18.3772L12.9018 19.5072L12.7018 20.8572H11.3018L10.9518 18.3772L9.89179 17.9472C9.46179 17.7672 9.06179 17.5372 8.66179 17.2372L7.75179 16.5372L6.69179 16.9672L5.42179 17.4772L4.72179 16.2672L5.80179 15.4272L6.69179 14.7272L6.55179 13.5972C6.52179 13.2872 6.50179 13.0572 6.50179 12.8572C6.50179 12.6572 6.52179 12.4272 6.55179 12.1272L6.69179 10.9972L5.80179 10.2972L4.72179 9.45718L5.42179 8.24718L6.69179 8.75718L7.73179 9.17718L8.63179 8.49718C9.06179 8.17718 9.47179 7.93718 9.88179 7.76718L10.9418 7.33718L11.1018 6.20718L11.3018 4.85718H12.6918L13.0418 7.33718L14.1018 7.76718C14.5318 7.94718 14.9318 8.17718 15.3318 8.47718L16.2418 9.17718L17.3018 8.74718L18.5718 8.23718L19.2718 9.44718L18.2018 10.2972L17.3118 10.9972L17.4518 12.1272ZM12.0018 8.85718C9.79179 8.85718 8.00179 10.6472 8.00179 12.8572C8.00179 15.0672 9.79179 16.8572 12.0018 16.8572C14.2118 16.8572 16.0018 15.0672 16.0018 12.8572C16.0018 10.6472 14.2118 8.85718 12.0018 8.85718ZM12.0018 14.8572C10.9018 14.8572 10.0018 13.9572 10.0018 12.8572C10.0018 11.7572 10.9018 10.8572 12.0018 10.8572C13.1018 10.8572 14.0018 11.7572 14.0018 12.8572C14.0018 13.9572 13.1018 14.8572 12.0018 14.8572Z" fill="white"/>
</svg>
