<svg width="19" height="20" viewBox="0 0 19 20" fill="none" xmlns="http://www.w3.org/2000/svg">
<path d="M5.9375 18.1587C6.59334 18.1587 7.125 17.627 7.125 16.9712C7.125 16.3154 6.59334 15.7837 5.9375 15.7837C5.28166 15.7837 4.75 16.3154 4.75 16.9712C4.75 17.627 5.28166 18.1587 5.9375 18.1587Z" fill="white"/>
<path d="M14.25 18.1587C14.9058 18.1587 15.4375 17.627 15.4375 16.9712C15.4375 16.3154 14.9058 15.7837 14.25 15.7837C13.5942 15.7837 13.0625 16.3154 13.0625 16.9712C13.0625 17.627 13.5942 18.1587 14.25 18.1587Z" fill="white"/>
<path d="M16.625 4.50244H3.45563L2.96875 2.00869C2.94099 1.87256 2.86637 1.75047 2.75788 1.66368C2.6494 1.57689 2.51391 1.53089 2.375 1.53369H0V2.72119H1.88813L4.15625 14.1212C4.18401 14.2573 4.25863 14.3794 4.36712 14.4662C4.4756 14.553 4.61109 14.599 4.75 14.5962H15.4375V13.4087H5.23687L4.75 11.0337H15.4375C15.5748 11.037 15.7089 10.9927 15.8172 10.9083C15.9254 10.8239 16.0011 10.7045 16.0312 10.5706L17.2188 5.22682C17.2386 5.13872 17.2382 5.04724 17.2174 4.95935C17.1966 4.87146 17.156 4.78947 17.0988 4.71962C17.0415 4.64977 16.9691 4.5939 16.887 4.55626C16.8049 4.51863 16.7153 4.50022 16.625 4.50244ZM14.9625 9.84619H4.52437L3.69312 5.68994H15.8828L14.9625 9.84619Z" fill="white"/>
</svg>
